<svg width="20" height="16" viewBox="0 0 20 16" fill="none" xmlns="http://www.w3.org/2000/svg">
<path d="M11.1111 13.7143C11.7248 13.7143 12.2222 14.226 12.2222 14.8571C12.2222 15.4883 11.7248 16 11.1111 16H1.11111C0.497461 16 0 15.4883 0 14.8571C0 14.226 0.497461 13.7143 1.11111 13.7143H11.1111ZM18.8889 6.85714C19.5025 6.85714 20 7.36882 20 8C20 8.63118 19.5025 9.14286 18.8889 9.14286H1.11111C0.497461 9.14286 0 8.63118 0 8C0 7.36882 0.497461 6.85714 1.11111 6.85714H18.8889ZM18.8889 0C19.5025 0 20 0.511675 20 1.14286C20 1.77404 19.5025 2.28571 18.8889 2.28571H1.11111C0.497461 2.28571 0 1.77404 0 1.14286C0 0.511675 0.497461 0 1.11111 0H18.8889Z" fill="#051C2C"/>
</svg>
