<svg width="12" height="12" viewBox="0 0 12 12" fill="none" xmlns="http://www.w3.org/2000/svg">
<path opacity="0.7" d="M1.2 9.59999C0.536705 9.59676 0 9.05805 0 8.394V2.1105C0 0.944903 0.944903 0 2.1105 0H8.394C9.05805 0 9.59676 0.536705 9.59999 1.2H2.85825C1.94242 1.2 1.2 1.94242 1.2 2.85825V9.59999ZM3.606 2.4H10.794C11.4601 2.4 12 2.93994 12 3.606V10.794C12 11.4601 11.4601 12 10.794 12H3.606C2.93994 12 2.4 11.4601 2.4 10.794V3.606C2.4 2.93994 2.93994 2.4 3.606 2.4ZM4.2 3.6C3.86863 3.6 3.6 3.86863 3.6 4.2V10.2C3.6 10.5314 3.86863 10.8 4.2 10.8H10.2C10.5314 10.8 10.8 10.5314 10.8 10.2V4.2C10.8 3.86863 10.5314 3.6 10.2 3.6H4.2Z" fill="#051C2C"/>
</svg>
