<svg width="19" height="19" viewBox="0 0 19 19" fill="none" xmlns="http://www.w3.org/2000/svg">
<path d="M9.5 0C11.4631 0 12.7425 0.997362 13.1527 2.82941L18.1739 2.82979C18.6301 2.82979 19 3.19177 19 3.6383C19 4.08483 18.6301 4.44681 18.1739 4.44681H17.2611L15.9292 16.8284C15.7964 18.0629 14.7328 19 13.4646 19H5.53543C4.26716 19 3.20356 18.0629 3.07079 16.8284L1.73891 4.44681H0.826087C0.369852 4.44681 0 4.08483 0 3.6383C0 3.19177 0.369852 2.82979 0.826087 2.82979L5.84726 2.82941C6.25746 0.997362 7.53692 0 9.5 0ZM15.599 4.44681H3.40017L4.71388 16.6591C4.75814 17.0706 5.11267 17.383 5.53543 17.383H13.4646C13.8873 17.383 14.2419 17.0706 14.2861 16.6591L15.599 4.44681ZM9.5 6.06383C9.95623 6.06383 10.3261 6.42581 10.3261 6.87234V14.9574C10.3261 15.404 9.95623 15.766 9.5 15.766C9.04377 15.766 8.67391 15.404 8.67391 14.9574V6.87234C8.67391 6.42581 9.04377 6.06383 9.5 6.06383ZM12.8456 6.06484C13.3013 6.08714 13.6522 6.46674 13.6294 6.91272L13.2164 14.9978C13.1936 15.4438 12.8057 15.7872 12.3501 15.7649C11.8944 15.7427 11.5435 15.363 11.5662 14.9171L11.9793 6.83197C12.0021 6.38599 12.3899 6.04254 12.8456 6.06484ZM6.1544 6.06484C6.61007 6.04254 6.99793 6.38599 7.02071 6.83197L7.43375 14.9171C7.45654 15.363 7.10561 15.7427 6.64995 15.7649C6.19428 15.7872 5.80642 15.4438 5.78364 14.9978L5.3706 6.91272C5.34781 6.46674 5.69873 6.08714 6.1544 6.06484ZM9.5 1.61702C8.45359 1.61702 7.8481 1.98418 7.5569 2.82943H11.4431C11.1519 1.98418 10.5464 1.61702 9.5 1.61702Z" fill="#051C2C"/>
</svg>
