<svg width="164" height="164" viewBox="0 0 164 164" fill="none" xmlns="http://www.w3.org/2000/svg">
<path d="M164 82C164 127.287 127.287 164 82 164C36.7127 164 0 127.287 0 82C0 36.7127 36.7127 0 82 0C127.287 0 164 36.7127 164 82ZM8.2 82C8.2 122.759 41.2414 155.8 82 155.8C122.759 155.8 155.8 122.759 155.8 82C155.8 41.2414 122.759 8.2 82 8.2C41.2414 8.2 8.2 41.2414 8.2 82Z" fill="#F1E92F"/>
<path d="M82 0C101.968 2.38114e-07 121.249 7.28594 136.228 20.4909C151.206 33.6959 160.851 51.9123 163.353 71.7227L155.218 72.7504C152.966 54.9211 144.285 38.5263 130.805 26.6418C117.325 14.7574 99.971 8.2 82 8.2V0Z" fill="#FF6900"/>
<path d="M163.356 71.7419C165.965 92.4344 160.591 113.344 148.328 130.214L141.695 125.393C152.732 110.209 157.568 91.391 155.22 72.7677L163.356 71.7419Z" fill="#FAAF18"/>
<path d="M148.326 130.217C143.266 137.177 137.142 143.298 130.179 148.353L125.361 141.718C131.628 137.168 137.139 131.66 141.693 125.396L148.326 130.217Z" fill="#E21E28"/>
<path d="M74 163.593C93.8931 165.584 113.828 160.227 130 148.542L125.216 142C110.66 152.516 92.7193 157.338 74.8155 155.546L74 163.593Z" fill="#31B984"/>
<path d="M29.963 145.373C42.5051 155.672 57.821 162.017 73.9715 163.606L74.7744 155.445C60.2389 154.015 46.4546 148.305 35.1667 139.036L29.963 145.373Z" fill="#070707"/>
<path d="M59.32 73.06V75.62H57.82V78H55.04V75.62H48.42V73.06L53.08 64H56.04L51.4 73.06H55.04V69.74H57.82V73.06H59.32ZM70.9016 78.28C69.1549 78.28 67.7816 77.62 66.7816 76.3C65.7949 74.9667 65.3016 73.2 65.3016 71C65.3016 68.8 65.7949 67.04 66.7816 65.72C67.7816 64.3867 69.1549 63.72 70.9016 63.72C72.6616 63.72 74.0349 64.3867 75.0216 65.72C76.0082 67.04 76.5016 68.8 76.5016 71C76.5016 73.2 76.0082 74.9667 75.0216 76.3C74.0349 77.62 72.6616 78.28 70.9016 78.28ZM68.7816 74.42C69.2616 75.1933 69.9682 75.58 70.9016 75.58C71.8349 75.58 72.5416 75.1867 73.0216 74.4C73.5149 73.6133 73.7616 72.48 73.7616 71C73.7616 69.5067 73.5149 68.3667 73.0216 67.58C72.5416 66.7933 71.8349 66.4 70.9016 66.4C69.9682 66.4 69.2616 66.7933 68.7816 67.58C68.3016 68.3667 68.0616 69.5067 68.0616 71C68.0616 72.4933 68.3016 73.6333 68.7816 74.42ZM77.3877 78V75.94L82.1677 71.02C83.2343 69.9 83.7677 68.9667 83.7677 68.22C83.7677 67.6733 83.5943 67.2333 83.2477 66.9C82.9143 66.5667 82.481 66.4 81.9477 66.4C80.8943 66.4 80.1143 66.9467 79.6077 68.04L77.2877 66.68C77.7277 65.72 78.361 64.9867 79.1877 64.48C80.0143 63.9733 80.921 63.72 81.9077 63.72C83.1743 63.72 84.261 64.12 85.1677 64.92C86.0743 65.7067 86.5277 66.7733 86.5277 68.12C86.5277 69.5733 85.761 71.0667 84.2277 72.6L81.4877 75.34H86.7477V78H77.3877ZM92.8188 69.1C94.1654 69.1 95.2988 69.5067 96.2188 70.32C97.1388 71.12 97.5988 72.24 97.5988 73.68C97.5988 75.12 97.1121 76.2467 96.1388 77.06C95.1788 77.8733 93.9988 78.28 92.5988 78.28C91.4654 78.28 90.4654 78.0267 89.5988 77.52C88.7321 77.0133 88.1054 76.2667 87.7188 75.28L90.0788 73.9C90.4254 75.02 91.2654 75.58 92.5988 75.58C93.3054 75.58 93.8521 75.4133 94.2388 75.08C94.6388 74.7333 94.8388 74.2667 94.8388 73.68C94.8388 73.1067 94.6454 72.6467 94.2588 72.3C93.8721 71.9533 93.3454 71.78 92.6788 71.78H88.4388L88.9988 64H96.9388V66.58H91.5588L91.3788 69.1H92.8188ZM113.656 74.08C113.656 75.2533 113.282 76.2067 112.536 76.94C111.789 77.66 110.816 78.0933 109.616 78.24V80H108.276V78.26C107.156 78.18 106.196 77.8667 105.396 77.32C104.596 76.7733 104.022 76.0333 103.676 75.1L106.056 73.72C106.482 74.7867 107.222 75.3933 108.276 75.54V72.08C108.262 72.08 108.256 72.08 108.256 72.08L108.216 72.06C107.749 71.8867 107.369 71.7333 107.076 71.6C106.782 71.4667 106.436 71.2733 106.036 71.02C105.649 70.7667 105.342 70.5067 105.116 70.24C104.902 69.96 104.709 69.6067 104.536 69.18C104.376 68.7533 104.296 68.2867 104.296 67.78C104.296 66.6067 104.676 65.6667 105.436 64.96C106.209 64.2533 107.156 63.8467 108.276 63.74V62H109.616V63.78C111.429 63.9933 112.709 64.9333 113.456 66.6L111.136 67.96C110.816 67.16 110.309 66.6733 109.616 66.5V69.84C110.856 70.3333 111.689 70.7267 112.116 71.02C113.142 71.7533 113.656 72.7733 113.656 74.08ZM107.036 67.8C107.036 68.0933 107.129 68.3533 107.316 68.58C107.502 68.7933 107.822 69.0133 108.276 69.24V66.44C107.876 66.52 107.569 66.68 107.356 66.92C107.142 67.16 107.036 67.4533 107.036 67.8ZM109.616 75.5C110.469 75.3133 110.896 74.8467 110.896 74.1C110.896 73.7667 110.789 73.4867 110.576 73.26C110.376 73.0333 110.056 72.82 109.616 72.62V75.5Z" fill="#051C2C"/>
<path opacity="0.8" d="M35.65 97.5C36.3367 97.5 36.9 97.7167 37.34 98.15C37.78 98.5767 38 99.13 38 99.81C38 100.49 37.78 101.047 37.34 101.48C36.9 101.907 36.3367 102.12 35.65 102.12C34.9633 102.12 34.4 101.907 33.96 101.48C33.52 101.047 33.3 100.49 33.3 99.81C33.3 99.2833 33.4433 98.8167 33.73 98.41L36.02 95H36.81L35.09 97.56C35.27 97.52 35.4567 97.5 35.65 97.5ZM34.45 100.99C34.7567 101.29 35.1567 101.44 35.65 101.44C36.1433 101.44 36.54 101.29 36.84 100.99C37.1467 100.69 37.3 100.297 37.3 99.81C37.3 99.3233 37.1467 98.93 36.84 98.63C36.54 98.33 36.1433 98.18 35.65 98.18C35.1567 98.18 34.7567 98.33 34.45 98.63C34.15 98.93 34 99.3233 34 99.81C34 100.297 34.15 100.69 34.45 100.99ZM45.5427 102H44.6627L42.1627 99.59V102H41.5027V97H42.1627V99.21L44.5427 97H45.4427L42.8627 99.4L45.5427 102ZM50.1361 101.37C49.6294 101.87 49.0094 102.12 48.2761 102.12C47.5428 102.12 46.9194 101.87 46.4061 101.37C45.8994 100.863 45.6461 100.24 45.6461 99.5C45.6461 98.76 45.8994 98.14 46.4061 97.64C46.9194 97.1333 47.5428 96.88 48.2761 96.88C49.0094 96.88 49.6294 97.1333 50.1361 97.64C50.6494 98.14 50.9061 98.76 50.9061 99.5C50.9061 100.24 50.6494 100.863 50.1361 101.37ZM46.8761 100.91C47.2561 101.29 47.7228 101.48 48.2761 101.48C48.8294 101.48 49.2961 101.29 49.6761 100.91C50.0561 100.523 50.2461 100.053 50.2461 99.5C50.2461 98.9467 50.0561 98.48 49.6761 98.1C49.2961 97.7133 48.8294 97.52 48.2761 97.52C47.7228 97.52 47.2561 97.7133 46.8761 98.1C46.4961 98.48 46.3061 98.9467 46.3061 99.5C46.3061 100.053 46.4961 100.523 46.8761 100.91ZM56.9105 97V102H56.2505V98.01L54.5005 100.85H54.4205L52.6705 98.01V102H52.0105V97H52.7705L54.4605 99.74L56.1505 97H56.9105ZM62.5094 97V102H61.8494V97.64H58.9694V102H58.3094V97H62.5094ZM68.2051 97H68.8651V102H68.2051V101.02C67.7451 101.753 67.0717 102.12 66.1851 102.12C65.4717 102.12 64.8617 101.867 64.3551 101.36C63.8551 100.853 63.6051 100.233 63.6051 99.5C63.6051 98.7667 63.8551 98.1467 64.3551 97.64C64.8617 97.1333 65.4717 96.88 66.1851 96.88C67.0717 96.88 67.7451 97.2467 68.2051 97.98V97ZM64.8351 100.91C65.2151 101.29 65.6817 101.48 66.2351 101.48C66.7884 101.48 67.2551 101.29 67.6351 100.91C68.0151 100.523 68.2051 100.053 68.2051 99.5C68.2051 98.9467 68.0151 98.48 67.6351 98.1C67.2551 97.7133 66.7884 97.52 66.2351 97.52C65.6817 97.52 65.2151 97.7133 64.8351 98.1C64.4551 98.48 64.2651 98.9467 64.2651 99.5C64.2651 100.053 64.4551 100.523 64.8351 100.91ZM73.8025 97H74.4625V102H73.8025V99.82H70.9225V102H70.2625V97H70.9225V99.18H73.8025V97ZM79.4982 97H80.0582V102H79.3982V98.15L76.4182 102H75.8582V97H76.5182V100.85L79.4982 97ZM82.2539 96.2V95.62H84.8539V96.2H82.2539ZM85.0939 97H85.6539V102H84.9939V98.15L82.0139 102H81.4539V97H82.1139V100.85L85.0939 97ZM92.7296 99.43C93.2763 99.63 93.5496 100.02 93.5496 100.6C93.5496 101.007 93.4129 101.343 93.1396 101.61C92.8729 101.87 92.4863 102 91.9796 102H89.5496V97H91.7796C92.2663 97 92.6429 97.1267 92.9096 97.38C93.1763 97.6267 93.3096 97.9467 93.3096 98.34C93.3096 98.84 93.1163 99.2033 92.7296 99.43ZM91.7796 97.64H90.2096V99.16H91.7796C92.3596 99.16 92.6496 98.9 92.6496 98.38C92.6496 98.1467 92.5729 97.9667 92.4196 97.84C92.2729 97.7067 92.0596 97.64 91.7796 97.64ZM91.9796 101.36C92.2729 101.36 92.4963 101.29 92.6496 101.15C92.8096 101.01 92.8896 100.813 92.8896 100.56C92.8896 100.327 92.8096 100.143 92.6496 100.01C92.4963 99.87 92.2729 99.8 91.9796 99.8H90.2096V101.36H91.9796ZM99.7296 96.88C100.443 96.88 101.05 97.1333 101.55 97.64C102.056 98.1467 102.31 98.7667 102.31 99.5C102.31 100.233 102.056 100.853 101.55 101.36C101.05 101.867 100.443 102.12 99.7296 102.12C98.8429 102.12 98.1696 101.753 97.7096 101.02V104H97.0496V97H97.7096V97.98C98.1696 97.2467 98.8429 96.88 99.7296 96.88ZM98.2796 100.91C98.6596 101.29 99.1263 101.48 99.6796 101.48C100.233 101.48 100.7 101.29 101.08 100.91C101.46 100.523 101.65 100.053 101.65 99.5C101.65 98.9467 101.46 98.48 101.08 98.1C100.7 97.7133 100.233 97.52 99.6796 97.52C99.1263 97.52 98.6596 97.7133 98.2796 98.1C97.8996 98.48 97.7096 98.9467 97.7096 99.5C97.7096 100.053 97.8996 100.523 98.2796 100.91ZM107.707 97H108.367V102H107.707V101.02C107.247 101.753 106.574 102.12 105.687 102.12C104.974 102.12 104.364 101.867 103.857 101.36C103.357 100.853 103.107 100.233 103.107 99.5C103.107 98.7667 103.357 98.1467 103.857 97.64C104.364 97.1333 104.974 96.88 105.687 96.88C106.574 96.88 107.247 97.2467 107.707 97.98V97ZM104.337 100.91C104.717 101.29 105.184 101.48 105.737 101.48C106.29 101.48 106.757 101.29 107.137 100.91C107.517 100.523 107.707 100.053 107.707 99.5C107.707 98.9467 107.517 98.48 107.137 98.1C106.757 97.7133 106.29 97.52 105.737 97.52C105.184 97.52 104.717 97.7133 104.337 98.1C103.957 98.48 103.767 98.9467 103.767 99.5C103.767 100.053 103.957 100.523 104.337 100.91ZM111.984 102.12C111.264 102.12 110.664 101.883 110.184 101.41C109.704 100.93 109.464 100.31 109.464 99.55C109.464 98.6967 109.591 98.0433 109.844 97.59C110.098 97.13 110.611 96.7133 111.384 96.34C111.531 96.2667 111.724 96.18 111.964 96.08C112.211 95.98 112.394 95.9 112.514 95.84C112.641 95.78 112.778 95.7033 112.924 95.61C113.071 95.51 113.181 95.4 113.254 95.28C113.328 95.16 113.374 95.0167 113.394 94.85L113.914 95.15C113.888 95.31 113.834 95.46 113.754 95.6C113.674 95.74 113.591 95.8533 113.504 95.94C113.424 96.0267 113.294 96.1233 113.114 96.23C112.941 96.33 112.804 96.4033 112.704 96.45C112.611 96.49 112.444 96.56 112.204 96.66C111.971 96.76 111.814 96.8267 111.734 96.86C111.268 97.06 110.924 97.27 110.704 97.49C110.484 97.7033 110.328 97.9833 110.234 98.33C110.461 98.03 110.748 97.81 111.094 97.67C111.448 97.5233 111.791 97.45 112.124 97.45C112.791 97.45 113.341 97.67 113.774 98.11C114.214 98.5433 114.434 99.1 114.434 99.78C114.434 100.453 114.201 101.013 113.734 101.46C113.274 101.9 112.691 102.12 111.984 102.12ZM111.984 101.46C112.504 101.46 112.931 101.303 113.264 100.99C113.604 100.67 113.774 100.267 113.774 99.78C113.774 99.2867 113.614 98.8833 113.294 98.57C112.981 98.25 112.561 98.09 112.034 98.09C111.561 98.09 111.131 98.24 110.744 98.54C110.358 98.8333 110.164 99.2267 110.164 99.72C110.164 100.227 110.338 100.643 110.684 100.97C111.038 101.297 111.471 101.46 111.984 101.46ZM119.628 101.37C119.122 101.87 118.502 102.12 117.768 102.12C117.035 102.12 116.412 101.87 115.898 101.37C115.392 100.863 115.138 100.24 115.138 99.5C115.138 98.76 115.392 98.14 115.898 97.64C116.412 97.1333 117.035 96.88 117.768 96.88C118.502 96.88 119.122 97.1333 119.628 97.64C120.142 98.14 120.398 98.76 120.398 99.5C120.398 100.24 120.142 100.863 119.628 101.37ZM116.368 100.91C116.748 101.29 117.215 101.48 117.768 101.48C118.322 101.48 118.788 101.29 119.168 100.91C119.548 100.523 119.738 100.053 119.738 99.5C119.738 98.9467 119.548 98.48 119.168 98.1C118.788 97.7133 118.322 97.52 117.768 97.52C117.215 97.52 116.748 97.7133 116.368 98.1C115.988 98.48 115.798 98.9467 115.798 99.5C115.798 100.053 115.988 100.523 116.368 100.91ZM124.907 97V97.64H123.137V102H122.477V97.64H120.707V97H124.907ZM127.826 96.88C128.566 96.88 129.163 97.1433 129.616 97.67C130.076 98.19 130.306 98.8067 130.306 99.52C130.306 99.5933 130.3 99.6967 130.286 99.83H125.896C125.963 100.337 126.176 100.74 126.536 101.04C126.903 101.333 127.353 101.48 127.886 101.48C128.266 101.48 128.593 101.403 128.866 101.25C129.146 101.09 129.356 100.883 129.496 100.63L130.076 100.97C129.856 101.323 129.556 101.603 129.176 101.81C128.796 102.017 128.363 102.12 127.876 102.12C127.09 102.12 126.45 101.873 125.956 101.38C125.463 100.887 125.216 100.26 125.216 99.5C125.216 98.7533 125.46 98.13 125.946 97.63C126.433 97.13 127.06 96.88 127.826 96.88ZM127.826 97.52C127.306 97.52 126.87 97.6767 126.516 97.99C126.17 98.2967 125.963 98.6967 125.896 99.19H129.626C129.56 98.6633 129.356 98.2533 129.016 97.96C128.676 97.6667 128.28 97.52 127.826 97.52Z" fill="#051C2C"/>
</svg>
