<svg width="580" height="192" viewBox="0 0 580 192" fill="none" xmlns="http://www.w3.org/2000/svg">
<g clip-path="url(#clip0)">
<path opacity="0.1" d="M122.933 100.003C52.3023 100.003 11.5482 121.798 0 132.695V199H615V34.9824L581.137 29C454.851 29 404.561 46.8785 324.095 83.657C243.63 120.436 211.221 100.003 122.933 100.003Z" fill="#FF9F19"/>
<path d="M0 133C11.5853 122.071 52.47 100.212 123.327 100.212C211.898 100.212 244.412 120.704 325.135 83.8177C405.858 46.931 456.31 29 583 29" stroke="#31B984" stroke-width="2"/>
<path d="M30.324 172V170.764L33.192 167.812C33.832 167.14 34.152 166.58 34.152 166.132C34.152 165.804 34.048 165.54 33.84 165.34C33.64 165.14 33.38 165.04 33.06 165.04C32.428 165.04 31.96 165.368 31.656 166.024L30.264 165.208C30.528 164.632 30.908 164.192 31.404 163.888C31.9 163.584 32.444 163.432 33.036 163.432C33.796 163.432 34.448 163.672 34.992 164.152C35.536 164.624 35.808 165.264 35.808 166.072C35.808 166.944 35.348 167.84 34.428 168.76L32.784 170.404H35.94V172H30.324ZM40.0378 172.168C38.9898 172.168 38.1658 171.772 37.5658 170.98C36.9738 170.18 36.6778 169.12 36.6778 167.8C36.6778 166.48 36.9738 165.424 37.5658 164.632C38.1658 163.832 38.9898 163.432 40.0378 163.432C41.0938 163.432 41.9178 163.832 42.5098 164.632C43.1018 165.424 43.3978 166.48 43.3978 167.8C43.3978 169.12 43.1018 170.18 42.5098 170.98C41.9178 171.772 41.0938 172.168 40.0378 172.168ZM38.7658 169.852C39.0538 170.316 39.4778 170.548 40.0378 170.548C40.5978 170.548 41.0218 170.312 41.3098 169.84C41.6058 169.368 41.7538 168.688 41.7538 167.8C41.7538 166.904 41.6058 166.22 41.3098 165.748C41.0218 165.276 40.5978 165.04 40.0378 165.04C39.4778 165.04 39.0538 165.276 38.7658 165.748C38.4778 166.22 38.3338 166.904 38.3338 167.8C38.3338 168.696 38.4778 169.38 38.7658 169.852ZM45.922 163.6H47.362V172H45.706V165.352L44.122 165.796L43.714 164.38L45.922 163.6ZM48.3787 163.6H53.8027V165.004L50.9587 172H49.2067L51.9667 165.184H48.3787V163.6Z" fill="#051C2C"/>
<path d="M190.324 172V170.764L193.192 167.812C193.832 167.14 194.152 166.58 194.152 166.132C194.152 165.804 194.048 165.54 193.84 165.34C193.64 165.14 193.38 165.04 193.06 165.04C192.428 165.04 191.96 165.368 191.656 166.024L190.264 165.208C190.528 164.632 190.908 164.192 191.404 163.888C191.9 163.584 192.444 163.432 193.036 163.432C193.796 163.432 194.448 163.672 194.992 164.152C195.536 164.624 195.808 165.264 195.808 166.072C195.808 166.944 195.348 167.84 194.428 168.76L192.784 170.404H195.94V172H190.324ZM200.038 172.168C198.99 172.168 198.166 171.772 197.566 170.98C196.974 170.18 196.678 169.12 196.678 167.8C196.678 166.48 196.974 165.424 197.566 164.632C198.166 163.832 198.99 163.432 200.038 163.432C201.094 163.432 201.918 163.832 202.51 164.632C203.102 165.424 203.398 166.48 203.398 167.8C203.398 169.12 203.102 170.18 202.51 170.98C201.918 171.772 201.094 172.168 200.038 172.168ZM198.766 169.852C199.054 170.316 199.478 170.548 200.038 170.548C200.598 170.548 201.022 170.312 201.31 169.84C201.606 169.368 201.754 168.688 201.754 167.8C201.754 166.904 201.606 166.22 201.31 165.748C201.022 165.276 200.598 165.04 200.038 165.04C199.478 165.04 199.054 165.276 198.766 165.748C198.478 166.22 198.334 166.904 198.334 167.8C198.334 168.696 198.478 169.38 198.766 169.852ZM205.922 163.6H207.362V172H205.706V165.352L204.122 165.796L203.714 164.38L205.922 163.6ZM213.479 167.632C214.255 168.096 214.643 168.772 214.643 169.66C214.643 170.436 214.371 171.048 213.827 171.496C213.291 171.944 212.559 172.168 211.631 172.168C210.695 172.168 209.959 171.944 209.423 171.496C208.887 171.048 208.619 170.436 208.619 169.66C208.619 168.772 209.003 168.096 209.771 167.632C209.187 167.208 208.895 166.628 208.895 165.892C208.895 165.116 209.155 164.512 209.675 164.08C210.203 163.648 210.855 163.432 211.631 163.432C212.407 163.432 213.055 163.648 213.575 164.08C214.095 164.512 214.355 165.116 214.355 165.892C214.355 166.636 214.063 167.216 213.479 167.632ZM212.411 165.256C212.211 165.08 211.951 164.992 211.631 164.992C211.311 164.992 211.051 165.08 210.851 165.256C210.651 165.432 210.551 165.672 210.551 165.976C210.551 166.28 210.651 166.524 210.851 166.708C211.051 166.884 211.311 166.972 211.631 166.972C211.951 166.972 212.211 166.884 212.411 166.708C212.611 166.524 212.711 166.28 212.711 165.976C212.711 165.672 212.611 165.432 212.411 165.256ZM210.635 170.308C210.891 170.508 211.223 170.608 211.631 170.608C212.039 170.608 212.367 170.508 212.615 170.308C212.871 170.1 212.999 169.812 212.999 169.444C212.999 169.084 212.871 168.804 212.615 168.604C212.367 168.396 212.039 168.292 211.631 168.292C211.223 168.292 210.891 168.396 210.635 168.604C210.387 168.804 210.263 169.084 210.263 169.444C210.263 169.812 210.387 170.1 210.635 170.308Z" fill="#051C2C"/>
<path d="M351.324 172V170.764L354.192 167.812C354.832 167.14 355.152 166.58 355.152 166.132C355.152 165.804 355.048 165.54 354.84 165.34C354.64 165.14 354.38 165.04 354.06 165.04C353.428 165.04 352.96 165.368 352.656 166.024L351.264 165.208C351.528 164.632 351.908 164.192 352.404 163.888C352.9 163.584 353.444 163.432 354.036 163.432C354.796 163.432 355.448 163.672 355.992 164.152C356.536 164.624 356.808 165.264 356.808 166.072C356.808 166.944 356.348 167.84 355.428 168.76L353.784 170.404H356.94V172H351.324ZM361.038 172.168C359.99 172.168 359.166 171.772 358.566 170.98C357.974 170.18 357.678 169.12 357.678 167.8C357.678 166.48 357.974 165.424 358.566 164.632C359.166 163.832 359.99 163.432 361.038 163.432C362.094 163.432 362.918 163.832 363.51 164.632C364.102 165.424 364.398 166.48 364.398 167.8C364.398 169.12 364.102 170.18 363.51 170.98C362.918 171.772 362.094 172.168 361.038 172.168ZM359.766 169.852C360.054 170.316 360.478 170.548 361.038 170.548C361.598 170.548 362.022 170.312 362.31 169.84C362.606 169.368 362.754 168.688 362.754 167.8C362.754 166.904 362.606 166.22 362.31 165.748C362.022 165.276 361.598 165.04 361.038 165.04C360.478 165.04 360.054 165.276 359.766 165.748C359.478 166.22 359.334 166.904 359.334 167.8C359.334 168.696 359.478 169.38 359.766 169.852ZM366.922 163.6H368.362V172H366.706V165.352L365.122 165.796L364.714 164.38L366.922 163.6ZM375.583 166.348C375.583 166.996 375.415 167.564 375.079 168.052H375.091L372.475 172H370.579L372.451 169.264C371.579 169.248 370.867 168.972 370.315 168.436C369.771 167.892 369.499 167.196 369.499 166.348C369.499 165.492 369.779 164.792 370.339 164.248C370.907 163.704 371.639 163.432 372.535 163.432C373.439 163.432 374.171 163.704 374.731 164.248C375.299 164.784 375.583 165.484 375.583 166.348ZM371.143 166.348C371.143 166.764 371.275 167.096 371.539 167.344C371.811 167.592 372.143 167.716 372.535 167.716C372.943 167.716 373.279 167.592 373.543 167.344C373.807 167.096 373.939 166.764 373.939 166.348C373.939 165.932 373.807 165.604 373.543 165.364C373.279 165.116 372.943 164.992 372.535 164.992C372.143 164.992 371.811 165.116 371.539 165.364C371.275 165.612 371.143 165.94 371.143 166.348Z" fill="#051C2C"/>
<path d="M511.324 172V170.764L514.192 167.812C514.832 167.14 515.152 166.58 515.152 166.132C515.152 165.804 515.048 165.54 514.84 165.34C514.64 165.14 514.38 165.04 514.06 165.04C513.428 165.04 512.96 165.368 512.656 166.024L511.264 165.208C511.528 164.632 511.908 164.192 512.404 163.888C512.9 163.584 513.444 163.432 514.036 163.432C514.796 163.432 515.448 163.672 515.992 164.152C516.536 164.624 516.808 165.264 516.808 166.072C516.808 166.944 516.348 167.84 515.428 168.76L513.784 170.404H516.94V172H511.324ZM521.038 172.168C519.99 172.168 519.166 171.772 518.566 170.98C517.974 170.18 517.678 169.12 517.678 167.8C517.678 166.48 517.974 165.424 518.566 164.632C519.166 163.832 519.99 163.432 521.038 163.432C522.094 163.432 522.918 163.832 523.51 164.632C524.102 165.424 524.398 166.48 524.398 167.8C524.398 169.12 524.102 170.18 523.51 170.98C522.918 171.772 522.094 172.168 521.038 172.168ZM519.766 169.852C520.054 170.316 520.478 170.548 521.038 170.548C521.598 170.548 522.022 170.312 522.31 169.84C522.606 169.368 522.754 168.688 522.754 167.8C522.754 166.904 522.606 166.22 522.31 165.748C522.022 165.276 521.598 165.04 521.038 165.04C520.478 165.04 520.054 165.276 519.766 165.748C519.478 166.22 519.334 166.904 519.334 167.8C519.334 168.696 519.478 169.38 519.766 169.852ZM524.929 172V170.764L527.797 167.812C528.437 167.14 528.757 166.58 528.757 166.132C528.757 165.804 528.653 165.54 528.445 165.34C528.245 165.14 527.985 165.04 527.665 165.04C527.033 165.04 526.565 165.368 526.261 166.024L524.869 165.208C525.133 164.632 525.513 164.192 526.009 163.888C526.505 163.584 527.049 163.432 527.641 163.432C528.401 163.432 529.053 163.672 529.597 164.152C530.141 164.624 530.413 165.264 530.413 166.072C530.413 166.944 529.953 167.84 529.033 168.76L527.389 170.404H530.545V172H524.929ZM534.643 172.168C533.595 172.168 532.771 171.772 532.171 170.98C531.579 170.18 531.283 169.12 531.283 167.8C531.283 166.48 531.579 165.424 532.171 164.632C532.771 163.832 533.595 163.432 534.643 163.432C535.699 163.432 536.523 163.832 537.115 164.632C537.707 165.424 538.003 166.48 538.003 167.8C538.003 169.12 537.707 170.18 537.115 170.98C536.523 171.772 535.699 172.168 534.643 172.168ZM533.371 169.852C533.659 170.316 534.083 170.548 534.643 170.548C535.203 170.548 535.627 170.312 535.915 169.84C536.211 169.368 536.359 168.688 536.359 167.8C536.359 166.904 536.211 166.22 535.915 165.748C535.627 165.276 535.203 165.04 534.643 165.04C534.083 165.04 533.659 165.276 533.371 165.748C533.083 166.22 532.939 166.904 532.939 167.8C532.939 168.696 533.083 169.38 533.371 169.852Z" fill="#051C2C"/>
<circle cx="42.5" cy="111.5" r="5.5" fill="#31B984"/>
<circle opacity="0.3" cx="42.5" cy="115.5" r="1.5" fill="#31B984"/>
<circle opacity="0.3" cx="42.5" cy="128.5" r="1.5" fill="#31B984"/>
<circle opacity="0.3" cx="42.5" cy="141.5" r="1.5" fill="#31B984"/>
<circle opacity="0.3" cx="42.5" cy="154.5" r="1.5" fill="#31B984"/>
<circle opacity="0.3" cx="202.5" cy="128.5" r="1.5" fill="#31B984"/>
<circle opacity="0.3" cx="202.5" cy="118.5" r="1.5" fill="#31B984"/>
<circle opacity="0.3" cx="363.5" cy="128.5" r="1.5" fill="#31B984"/>
<circle opacity="0.3" cx="525.5" cy="128.5" r="1.5" fill="#31B984"/>
<circle opacity="0.3" cx="525.5" cy="89.5" r="1.5" fill="#31B984"/>
<circle opacity="0.3" cx="363.5" cy="89.5" r="1.5" fill="#31B984"/>
<circle opacity="0.3" cx="525.5" cy="50.5" r="1.5" fill="#31B984"/>
<circle opacity="0.3" cx="202.5" cy="141.5" r="1.5" fill="#31B984"/>
<circle opacity="0.3" cx="363.5" cy="141.5" r="1.5" fill="#31B984"/>
<circle opacity="0.3" cx="525.5" cy="141.5" r="1.5" fill="#31B984"/>
<circle opacity="0.3" cx="363.5" cy="102.5" r="1.5" fill="#31B984"/>
<circle opacity="0.3" cx="525.5" cy="102.5" r="1.5" fill="#31B984"/>
<circle opacity="0.3" cx="525.5" cy="63.5" r="1.5" fill="#31B984"/>
<circle opacity="0.3" cx="202.5" cy="154.5" r="1.5" fill="#31B984"/>
<circle opacity="0.3" cx="363.5" cy="154.5" r="1.5" fill="#31B984"/>
<circle opacity="0.3" cx="525.5" cy="154.5" r="1.5" fill="#31B984"/>
<circle opacity="0.3" cx="363.5" cy="115.5" r="1.5" fill="#31B984"/>
<circle opacity="0.3" cx="525.5" cy="115.5" r="1.5" fill="#31B984"/>
<circle opacity="0.3" cx="525.5" cy="76.5" r="1.5" fill="#31B984"/>
<circle cx="203.5" cy="105.5" r="5.5" fill="#31B984"/>
<circle cx="363.5" cy="67.5" r="5.5" fill="#31B984"/>
<circle cx="525.5" cy="30.5" r="5.5" fill="#31B984"/>
</g>
<defs>
<clipPath id="clip0">
<rect width="580" height="192" fill="white"/>
</clipPath>
</defs>
</svg>
