<svg width="290" height="167" viewBox="0 0 290 167" fill="none" xmlns="http://www.w3.org/2000/svg">
<g clip-path="url(#clip0)">
<path opacity="0.1" d="M61.5663 75.003C26.1937 75.003 5.7835 96.7977 0 107.695V174H308V9.9824L291.041 4C227.795 4 202.609 21.8785 162.311 58.657C122.013 95.4355 105.782 75.003 61.5663 75.003Z" fill="#FF9F19"/>
<path d="M0 108C5.82244 97.0706 26.37 75.2118 61.9808 75.2118C106.494 75.2118 122.835 95.7044 163.404 58.8177C203.973 21.931 229.329 4 293 4" stroke="#31B984" stroke-width="2"/>
<path d="M30.324 147V145.764L33.192 142.812C33.832 142.14 34.152 141.58 34.152 141.132C34.152 140.804 34.048 140.54 33.84 140.34C33.64 140.14 33.38 140.04 33.06 140.04C32.428 140.04 31.96 140.368 31.656 141.024L30.264 140.208C30.528 139.632 30.908 139.192 31.404 138.888C31.9 138.584 32.444 138.432 33.036 138.432C33.796 138.432 34.448 138.672 34.992 139.152C35.536 139.624 35.808 140.264 35.808 141.072C35.808 141.944 35.348 142.84 34.428 143.76L32.784 145.404H35.94V147H30.324ZM40.0378 147.168C38.9898 147.168 38.1658 146.772 37.5658 145.98C36.9738 145.18 36.6778 144.12 36.6778 142.8C36.6778 141.48 36.9738 140.424 37.5658 139.632C38.1658 138.832 38.9898 138.432 40.0378 138.432C41.0938 138.432 41.9178 138.832 42.5098 139.632C43.1018 140.424 43.3978 141.48 43.3978 142.8C43.3978 144.12 43.1018 145.18 42.5098 145.98C41.9178 146.772 41.0938 147.168 40.0378 147.168ZM38.7658 144.852C39.0538 145.316 39.4778 145.548 40.0378 145.548C40.5978 145.548 41.0218 145.312 41.3098 144.84C41.6058 144.368 41.7538 143.688 41.7538 142.8C41.7538 141.904 41.6058 141.22 41.3098 140.748C41.0218 140.276 40.5978 140.04 40.0378 140.04C39.4778 140.04 39.0538 140.276 38.7658 140.748C38.4778 141.22 38.3338 141.904 38.3338 142.8C38.3338 143.696 38.4778 144.38 38.7658 144.852ZM45.922 138.6H47.362V147H45.706V140.352L44.122 140.796L43.714 139.38L45.922 138.6ZM48.3787 138.6H53.8027V140.004L50.9587 147H49.2067L51.9667 140.184H48.3787V138.6Z" fill="#051C2C"/>
<path d="M97.324 147V145.764L100.192 142.812C100.832 142.14 101.152 141.58 101.152 141.132C101.152 140.804 101.048 140.54 100.84 140.34C100.64 140.14 100.38 140.04 100.06 140.04C99.428 140.04 98.96 140.368 98.656 141.024L97.264 140.208C97.528 139.632 97.908 139.192 98.404 138.888C98.9 138.584 99.444 138.432 100.036 138.432C100.796 138.432 101.448 138.672 101.992 139.152C102.536 139.624 102.808 140.264 102.808 141.072C102.808 141.944 102.348 142.84 101.428 143.76L99.784 145.404H102.94V147H97.324ZM107.038 147.168C105.99 147.168 105.166 146.772 104.566 145.98C103.974 145.18 103.678 144.12 103.678 142.8C103.678 141.48 103.974 140.424 104.566 139.632C105.166 138.832 105.99 138.432 107.038 138.432C108.094 138.432 108.918 138.832 109.51 139.632C110.102 140.424 110.398 141.48 110.398 142.8C110.398 144.12 110.102 145.18 109.51 145.98C108.918 146.772 108.094 147.168 107.038 147.168ZM105.766 144.852C106.054 145.316 106.478 145.548 107.038 145.548C107.598 145.548 108.022 145.312 108.31 144.84C108.606 144.368 108.754 143.688 108.754 142.8C108.754 141.904 108.606 141.22 108.31 140.748C108.022 140.276 107.598 140.04 107.038 140.04C106.478 140.04 106.054 140.276 105.766 140.748C105.478 141.22 105.334 141.904 105.334 142.8C105.334 143.696 105.478 144.38 105.766 144.852ZM112.922 138.6H114.362V147H112.706V140.352L111.122 140.796L110.714 139.38L112.922 138.6ZM120.479 142.632C121.255 143.096 121.643 143.772 121.643 144.66C121.643 145.436 121.371 146.048 120.827 146.496C120.291 146.944 119.559 147.168 118.631 147.168C117.695 147.168 116.959 146.944 116.423 146.496C115.887 146.048 115.619 145.436 115.619 144.66C115.619 143.772 116.003 143.096 116.771 142.632C116.187 142.208 115.895 141.628 115.895 140.892C115.895 140.116 116.155 139.512 116.675 139.08C117.203 138.648 117.855 138.432 118.631 138.432C119.407 138.432 120.055 138.648 120.575 139.08C121.095 139.512 121.355 140.116 121.355 140.892C121.355 141.636 121.063 142.216 120.479 142.632ZM119.411 140.256C119.211 140.08 118.951 139.992 118.631 139.992C118.311 139.992 118.051 140.08 117.851 140.256C117.651 140.432 117.551 140.672 117.551 140.976C117.551 141.28 117.651 141.524 117.851 141.708C118.051 141.884 118.311 141.972 118.631 141.972C118.951 141.972 119.211 141.884 119.411 141.708C119.611 141.524 119.711 141.28 119.711 140.976C119.711 140.672 119.611 140.432 119.411 140.256ZM117.635 145.308C117.891 145.508 118.223 145.608 118.631 145.608C119.039 145.608 119.367 145.508 119.615 145.308C119.871 145.1 119.999 144.812 119.999 144.444C119.999 144.084 119.871 143.804 119.615 143.604C119.367 143.396 119.039 143.292 118.631 143.292C118.223 143.292 117.891 143.396 117.635 143.604C117.387 143.804 117.263 144.084 117.263 144.444C117.263 144.812 117.387 145.1 117.635 145.308Z" fill="#051C2C"/>
<path d="M165.324 147V145.764L168.192 142.812C168.832 142.14 169.152 141.58 169.152 141.132C169.152 140.804 169.048 140.54 168.84 140.34C168.64 140.14 168.38 140.04 168.06 140.04C167.428 140.04 166.96 140.368 166.656 141.024L165.264 140.208C165.528 139.632 165.908 139.192 166.404 138.888C166.9 138.584 167.444 138.432 168.036 138.432C168.796 138.432 169.448 138.672 169.992 139.152C170.536 139.624 170.808 140.264 170.808 141.072C170.808 141.944 170.348 142.84 169.428 143.76L167.784 145.404H170.94V147H165.324ZM175.038 147.168C173.99 147.168 173.166 146.772 172.566 145.98C171.974 145.18 171.678 144.12 171.678 142.8C171.678 141.48 171.974 140.424 172.566 139.632C173.166 138.832 173.99 138.432 175.038 138.432C176.094 138.432 176.918 138.832 177.51 139.632C178.102 140.424 178.398 141.48 178.398 142.8C178.398 144.12 178.102 145.18 177.51 145.98C176.918 146.772 176.094 147.168 175.038 147.168ZM173.766 144.852C174.054 145.316 174.478 145.548 175.038 145.548C175.598 145.548 176.022 145.312 176.31 144.84C176.606 144.368 176.754 143.688 176.754 142.8C176.754 141.904 176.606 141.22 176.31 140.748C176.022 140.276 175.598 140.04 175.038 140.04C174.478 140.04 174.054 140.276 173.766 140.748C173.478 141.22 173.334 141.904 173.334 142.8C173.334 143.696 173.478 144.38 173.766 144.852ZM180.922 138.6H182.362V147H180.706V140.352L179.122 140.796L178.714 139.38L180.922 138.6ZM189.583 141.348C189.583 141.996 189.415 142.564 189.079 143.052H189.091L186.475 147H184.579L186.451 144.264C185.579 144.248 184.867 143.972 184.315 143.436C183.771 142.892 183.499 142.196 183.499 141.348C183.499 140.492 183.779 139.792 184.339 139.248C184.907 138.704 185.639 138.432 186.535 138.432C187.439 138.432 188.171 138.704 188.731 139.248C189.299 139.784 189.583 140.484 189.583 141.348ZM185.143 141.348C185.143 141.764 185.275 142.096 185.539 142.344C185.811 142.592 186.143 142.716 186.535 142.716C186.943 142.716 187.279 142.592 187.543 142.344C187.807 142.096 187.939 141.764 187.939 141.348C187.939 140.932 187.807 140.604 187.543 140.364C187.279 140.116 186.943 139.992 186.535 139.992C186.143 139.992 185.811 140.116 185.539 140.364C185.275 140.612 185.143 140.94 185.143 141.348Z" fill="#051C2C"/>
<path d="M232.324 147V145.764L235.192 142.812C235.832 142.14 236.152 141.58 236.152 141.132C236.152 140.804 236.048 140.54 235.84 140.34C235.64 140.14 235.38 140.04 235.06 140.04C234.428 140.04 233.96 140.368 233.656 141.024L232.264 140.208C232.528 139.632 232.908 139.192 233.404 138.888C233.9 138.584 234.444 138.432 235.036 138.432C235.796 138.432 236.448 138.672 236.992 139.152C237.536 139.624 237.808 140.264 237.808 141.072C237.808 141.944 237.348 142.84 236.428 143.76L234.784 145.404H237.94V147H232.324ZM242.038 147.168C240.99 147.168 240.166 146.772 239.566 145.98C238.974 145.18 238.678 144.12 238.678 142.8C238.678 141.48 238.974 140.424 239.566 139.632C240.166 138.832 240.99 138.432 242.038 138.432C243.094 138.432 243.918 138.832 244.51 139.632C245.102 140.424 245.398 141.48 245.398 142.8C245.398 144.12 245.102 145.18 244.51 145.98C243.918 146.772 243.094 147.168 242.038 147.168ZM240.766 144.852C241.054 145.316 241.478 145.548 242.038 145.548C242.598 145.548 243.022 145.312 243.31 144.84C243.606 144.368 243.754 143.688 243.754 142.8C243.754 141.904 243.606 141.22 243.31 140.748C243.022 140.276 242.598 140.04 242.038 140.04C241.478 140.04 241.054 140.276 240.766 140.748C240.478 141.22 240.334 141.904 240.334 142.8C240.334 143.696 240.478 144.38 240.766 144.852ZM245.929 147V145.764L248.797 142.812C249.437 142.14 249.757 141.58 249.757 141.132C249.757 140.804 249.653 140.54 249.445 140.34C249.245 140.14 248.985 140.04 248.665 140.04C248.033 140.04 247.565 140.368 247.261 141.024L245.869 140.208C246.133 139.632 246.513 139.192 247.009 138.888C247.505 138.584 248.049 138.432 248.641 138.432C249.401 138.432 250.053 138.672 250.597 139.152C251.141 139.624 251.413 140.264 251.413 141.072C251.413 141.944 250.953 142.84 250.033 143.76L248.389 145.404H251.545V147H245.929ZM255.643 147.168C254.595 147.168 253.771 146.772 253.171 145.98C252.579 145.18 252.283 144.12 252.283 142.8C252.283 141.48 252.579 140.424 253.171 139.632C253.771 138.832 254.595 138.432 255.643 138.432C256.699 138.432 257.523 138.832 258.115 139.632C258.707 140.424 259.003 141.48 259.003 142.8C259.003 144.12 258.707 145.18 258.115 145.98C257.523 146.772 256.699 147.168 255.643 147.168ZM254.371 144.852C254.659 145.316 255.083 145.548 255.643 145.548C256.203 145.548 256.627 145.312 256.915 144.84C257.211 144.368 257.359 143.688 257.359 142.8C257.359 141.904 257.211 141.22 256.915 140.748C256.627 140.276 256.203 140.04 255.643 140.04C255.083 140.04 254.659 140.276 254.371 140.748C254.083 141.22 253.939 141.904 253.939 142.8C253.939 143.696 254.083 144.38 254.371 144.852Z" fill="#051C2C"/>
<circle cx="42.5" cy="77.5" r="5.5" fill="#31B984"/>
<circle opacity="0.3" cx="42.5" cy="90.5" r="1.5" fill="#31B984"/>
<circle opacity="0.3" cx="42.5" cy="103.5" r="1.5" fill="#31B984"/>
<circle opacity="0.3" cx="42.5" cy="116.5" r="1.5" fill="#31B984"/>
<circle opacity="0.3" cx="42.5" cy="129.5" r="1.5" fill="#31B984"/>
<circle opacity="0.3" cx="110.5" cy="103.5" r="1.5" fill="#31B984"/>
<circle opacity="0.3" cx="177.5" cy="103.5" r="1.5" fill="#31B984"/>
<circle opacity="0.3" cx="246.5" cy="103.5" r="1.5" fill="#31B984"/>
<circle opacity="0.3" cx="246.5" cy="64.5" r="1.5" fill="#31B984"/>
<circle opacity="0.3" cx="177.5" cy="64.5" r="1.5" fill="#31B984"/>
<circle opacity="0.3" cx="246.5" cy="25.5" r="1.5" fill="#31B984"/>
<circle opacity="0.3" cx="110.5" cy="116.5" r="1.5" fill="#31B984"/>
<circle opacity="0.3" cx="177.5" cy="116.5" r="1.5" fill="#31B984"/>
<circle opacity="0.3" cx="246.5" cy="116.5" r="1.5" fill="#31B984"/>
<circle opacity="0.3" cx="177.5" cy="77.5" r="1.5" fill="#31B984"/>
<circle opacity="0.3" cx="246.5" cy="77.5" r="1.5" fill="#31B984"/>
<circle opacity="0.3" cx="246.5" cy="38.5" r="1.5" fill="#31B984"/>
<circle opacity="0.3" cx="110.5" cy="129.5" r="1.5" fill="#31B984"/>
<circle opacity="0.3" cx="177.5" cy="129.5" r="1.5" fill="#31B984"/>
<circle opacity="0.3" cx="246.5" cy="129.5" r="1.5" fill="#31B984"/>
<circle opacity="0.3" cx="177.5" cy="90.5" r="1.5" fill="#31B984"/>
<circle opacity="0.3" cx="246.5" cy="90.5" r="1.5" fill="#31B984"/>
<circle opacity="0.3" cx="246.5" cy="51.5" r="1.5" fill="#31B984"/>
<circle cx="111.5" cy="80.5" r="5.5" fill="#31B984"/>
<circle cx="177.5" cy="46.5" r="5.5" fill="#31B984"/>
<circle cx="246.5" cy="8.5" r="5.5" fill="#31B984"/>
</g>
<defs>
<clipPath id="clip0">
<rect width="290" height="167" fill="white"/>
</clipPath>
</defs>
</svg>
