<svg width="133" height="40" viewBox="0 0 205 59" fill="none" xmlns="http://www.w3.org/2000/svg">
<g filter="url(#filter0_d)">
<path d="M71.5657 13.9568C68.0899 13.9568 65.1495 15.1337 62.7444 17.4797C60.3314 19.8335 59.1328 22.7131 59.1328 26.1183C59.1328 29.5314 60.3394 32.4109 62.7444 34.7569C65.1495 37.1108 68.0979 38.2798 71.5657 38.2798C75.0415 38.2798 77.9819 37.1029 80.3869 34.7569C82.792 32.4031 83.9985 29.5235 83.9985 26.1183C83.9985 22.7052 82.792 19.8257 80.3869 17.4797C77.9819 15.1337 75.0415 13.9568 71.5657 13.9568ZM75.417 30.0414C74.3862 31.0535 73.0998 31.5635 71.5657 31.5635C70.0315 31.5635 68.7531 31.0535 67.7144 30.0414C66.6836 29.0292 66.1643 27.7189 66.1643 26.1262C66.1643 24.5255 66.6836 23.2231 67.7144 22.2109C68.7451 21.1988 70.0315 20.6888 71.5657 20.6888C73.0998 20.6888 74.3783 21.1988 75.417 22.2109C76.4477 23.2231 76.9671 24.5334 76.9671 26.1262C76.9671 27.7189 76.4477 29.0214 75.417 30.0414Z" />
<path d="M87.6661 37.6443H94.7055V4L87.6661 10.8968V37.6443Z" />
<path d="M110.854 13.9568C107.194 13.9568 104.198 15.118 101.865 17.4326C99.5316 19.7551 98.365 22.6503 98.365 26.1183C98.365 29.6177 99.5476 32.5208 101.905 34.8275C104.27 37.1343 107.418 38.2877 111.365 38.2877C115.872 38.2877 119.284 36.7028 121.593 33.5408L115.928 30.3945C114.833 31.5635 113.363 32.1128 111.453 32.1128C108.513 32.1128 106.635 31.0378 105.82 28.888H122.48C122.663 28.0249 122.759 27.1069 122.759 26.1262C122.759 22.6582 121.625 19.7629 119.355 17.4405C117.102 15.118 114.258 13.9568 110.854 13.9568ZM105.692 23.7252C106.379 21.3008 108.089 20.0846 110.806 20.0846C113.435 20.0846 115.089 21.3008 115.784 23.7252H105.692Z" />
<path d="M136.527 32.1128C134.489 32.1128 133.163 31.2105 132.539 29.3902L126.435 32.8032C128.217 36.4595 131.581 38.2877 136.527 38.2877C139.275 38.2877 141.592 37.6522 143.47 36.3732C145.348 35.1022 146.283 33.2191 146.283 30.7318C146.283 29.1312 145.883 27.8052 145.084 26.746C144.285 25.6868 143.326 24.9257 142.2 24.4628C141.073 23.9998 139.946 23.6232 138.82 23.3329C137.693 23.0426 136.734 22.7523 135.935 22.4542C135.136 22.156 134.737 21.7872 134.737 21.3243C134.737 20.4612 135.392 20.0375 136.71 20.0375C138.053 20.0375 139.107 20.7123 139.858 22.0618L145.867 18.8842C144.9 17.2835 143.614 16.0674 142.016 15.22C140.418 14.3726 138.652 13.9568 136.71 13.9568C134.113 13.9568 131.932 14.6158 130.166 15.9418C128.4 17.26 127.514 19.1195 127.514 21.5205C127.514 22.9955 127.913 24.2431 128.712 25.2552C129.511 26.2674 130.47 27.0128 131.597 27.4914C132.723 27.97 133.85 28.3545 134.976 28.6448C136.103 28.9351 137.062 29.2411 137.861 29.5471C138.66 29.8531 139.059 30.2375 139.059 30.7005C139.059 31.6342 138.212 32.1128 136.527 32.1128Z" />
<path d="M198.483 16.4911C196.805 14.8042 194.72 13.9568 192.219 13.9568C189.15 13.9568 186.913 14.8983 185.507 16.7657V14.6002H178.467V37.6443H185.507V25.0591C185.507 23.4898 185.898 22.3129 186.681 21.5126C187.464 20.7123 188.527 20.3122 189.87 20.3122C191.06 20.3122 192.035 20.6731 192.802 21.3949C193.569 22.1168 193.953 23.1525 193.953 24.5098V37.6443H200.992V23.4977C201 20.5162 200.161 18.178 198.483 16.4911Z" />
<path d="M48.4259 37.6443H55.4653V4L31.1749 27.8523L22.5694 19.402L4 37.6443H13.9559L22.5694 29.1783L31.1749 37.6286H31.1829L48.4259 20.6888V37.6443Z" />
<path d="M162.383 13.9175C158.907 13.9175 155.967 15.0945 153.562 17.4405C151.149 19.7943 149.95 22.6738 149.95 26.0791C149.95 29.4922 151.157 32.3717 153.562 34.7177C155.967 37.0715 158.915 38.2406 162.383 38.2406C165.859 38.2406 168.799 37.0637 171.204 34.7177C173.609 32.3638 174.816 29.4843 174.816 26.0791C174.816 22.666 173.609 19.7865 171.204 17.4405C168.799 15.0945 165.859 13.9175 162.383 13.9175ZM166.234 30.0022C165.204 31.0143 163.917 31.5243 162.383 31.5243C160.849 31.5243 159.57 31.0143 158.532 30.0022C157.501 28.99 156.982 27.6797 156.982 26.0869C156.982 24.4863 157.501 23.1838 158.532 22.1717C159.562 21.1595 160.849 20.6495 162.383 20.6495C163.917 20.6495 165.196 21.1595 166.234 22.1717C167.265 23.1838 167.784 24.4942 167.784 26.0869C167.784 27.6797 167.265 28.99 166.234 30.0022Z" />
<path d="M4 46.4634H4.85496V54.8588H4V46.4634Z" />
<path d="M15.9694 46.4634H16.8244V54.8588H16.0893L11.3271 48.0169V54.8509H10.4721V46.4555H11.2072L15.9694 53.2895V46.4634Z" />
<path d="M24.7427 54.8588L21.5946 46.4634H22.5214L25.1822 53.7446L27.843 46.4634H28.7698L25.6217 54.8588H24.7427Z" />
<path d="M34.387 54.0663H38.5419V54.8588H33.532V46.4634H38.478V47.2558H34.387V50.2295H38.1744V51.022H34.387V54.0663Z" />
<path d="M46.3644 55C45.5813 55 44.9102 54.8195 44.3508 54.4586C43.7915 54.0977 43.408 53.5955 43.1843 52.9522L43.9194 52.5363C44.0712 53.0542 44.3588 53.4622 44.7743 53.7525C45.1898 54.0428 45.7252 54.1918 46.3724 54.1918C47.0036 54.1918 47.499 54.0506 47.8586 53.776C48.2101 53.5014 48.3939 53.1326 48.3939 52.6775C48.3939 52.2382 48.2341 51.9086 47.9065 51.6811C47.5789 51.4535 47.0436 51.226 46.2925 50.9828C45.4056 50.6925 44.8223 50.4649 44.5346 50.2845C43.8794 49.9 43.5598 49.3429 43.5598 48.6211C43.5598 47.9071 43.8155 47.35 44.3189 46.9342C44.8223 46.5183 45.4455 46.3143 46.1886 46.3143C46.8518 46.3143 47.4351 46.4869 47.9225 46.8243C48.4099 47.1695 48.7695 47.6011 49.0092 48.1268L48.29 48.5269C47.8985 47.6011 47.1954 47.1382 46.1886 47.1382C45.6612 47.1382 45.2298 47.2637 44.9022 47.5226C44.5746 47.7815 44.4148 48.1346 44.4148 48.5897C44.4148 49.0055 44.5586 49.3194 44.8542 49.5234C45.1499 49.7352 45.6293 49.9471 46.3085 50.1589C46.6201 50.2609 46.8438 50.3394 46.9716 50.3786C47.1075 50.4257 47.2992 50.4963 47.5629 50.5983C47.8186 50.6925 48.0104 50.7866 48.1302 50.8572C48.2501 50.9357 48.4019 51.0377 48.5777 51.1711C48.7535 51.3045 48.8813 51.4378 48.9532 51.5712C49.0331 51.7046 49.0971 51.8615 49.161 52.0498C49.2249 52.2382 49.2489 52.4422 49.2489 52.654C49.2489 53.368 48.9852 53.9329 48.4578 54.3645C47.9305 54.796 47.2273 55 46.3644 55Z" />
<path d="M59.4445 46.4634V47.2558H56.8157V54.8588H55.9607V47.2558H53.3319V46.4634H59.4445Z" />
<path d="M72.141 46.4634V54.8588H71.286V47.7345L68.2897 52.654H68.1698L65.1735 47.7345V54.8588H64.3265V46.4634H65.3892L68.2337 51.1397L71.0783 46.4634H72.141Z" />
<path d="M78.6211 54.0663H82.776V54.8588H77.7661V46.4634H82.7121V47.2558H78.6211V50.2295H82.4085V51.022H78.6211V54.0663Z" />
<path d="M93.3951 46.4634H94.25V54.8588H93.5149L88.7527 48.0248V54.8588H87.8978V46.4634H88.6329L93.3951 53.2974V46.4634Z" />
<path d="M105.245 46.4634V47.2558H102.616V54.8588H101.761V47.2558H99.1321V46.4634H105.245Z" />
<path d="M119.907 46.4634C120.674 46.4634 121.313 46.7145 121.824 47.2166C122.336 47.7188 122.592 48.3465 122.592 49.0997C122.592 49.8529 122.336 50.4806 121.824 50.9828C121.313 51.4849 120.674 51.736 119.907 51.736H117.709V54.8588H116.855V46.4634H119.907ZM119.907 50.9435C120.434 50.9435 120.874 50.7709 121.217 50.4257C121.561 50.0805 121.737 49.6332 121.737 49.0997C121.737 48.5662 121.561 48.1268 121.217 47.7737C120.874 47.4285 120.434 47.2558 119.907 47.2558H117.709V50.9514H119.907V50.9435Z" />
<path d="M128.576 54.0663H132.483V54.8588H127.721V46.4634H128.576V54.0663Z" />
<path d="M143.31 54.8588L142.519 52.7952H138.46L137.669 54.8588H136.766L140.05 46.4634H140.929L144.213 54.8588H143.31ZM138.764 52.0028H142.208L140.482 47.5069L138.764 52.0028Z" />
<path d="M153.738 46.4634V47.2558H151.117V54.8588H150.262V47.2558H147.641V46.4634H153.738Z" />
<path d="M163.446 47.2558H159.475V50.3551H163.262V51.1475H159.475V54.8666H158.62V46.4712H163.446V47.2558Z" />
<path d="M175.647 53.7368C174.792 54.5842 173.745 55 172.507 55C171.268 55 170.222 54.5763 169.367 53.7368C168.512 52.8894 168.08 51.8694 168.08 50.6611C168.08 49.4528 168.512 48.4249 169.367 47.5854C170.222 46.738 171.268 46.3222 172.507 46.3222C173.745 46.3222 174.792 46.7458 175.647 47.5854C176.502 48.4328 176.933 49.4528 176.933 50.6611C176.933 51.8694 176.502 52.8894 175.647 53.7368ZM169.966 53.164C170.653 53.8466 171.5 54.1918 172.507 54.1918C173.513 54.1918 174.36 53.8466 175.048 53.164C175.735 52.4814 176.07 51.6418 176.07 50.6611C176.07 49.6803 175.727 48.8408 175.048 48.1582C174.36 47.4755 173.513 47.1303 172.507 47.1303C171.5 47.1303 170.653 47.4755 169.966 48.1582C169.287 48.8408 168.943 49.6803 168.943 50.6611C168.943 51.6418 169.287 52.4735 169.966 53.164Z" />
<path d="M187.313 54.8588L185.307 51.5006H182.918V54.8588H182.063V46.4634H185.483C186.194 46.4634 186.793 46.7066 187.297 47.2009C187.8 47.6952 188.048 48.2837 188.048 48.982C188.048 49.5548 187.872 50.0569 187.528 50.4963C187.185 50.9435 186.745 51.2417 186.202 51.3908L188.287 54.8588H187.313ZM182.918 47.2558V50.7082H185.483C185.954 50.7082 186.362 50.5355 186.689 50.1982C187.017 49.8608 187.185 49.4528 187.185 48.982C187.185 48.5034 187.017 48.0954 186.689 47.758C186.354 47.4206 185.954 47.2558 185.483 47.2558H182.918Z" />
<path d="M201 46.4634V54.8588H200.145V47.7345L197.157 52.654H197.029L194.04 47.7345V54.8588H193.186V46.4634H194.248L197.093 51.1397L199.937 46.4634H201Z" />
</g>
<defs>
<filter id="filter0_d" x="0" y="0" width="205" height="59" filterUnits="userSpaceOnUse" color-interpolation-filters="sRGB">
<feFlood flood-opacity="0" result="BackgroundImageFix"/>
<feColorMatrix in="SourceAlpha" type="matrix" values="0 0 0 0 0 0 0 0 0 0 0 0 0 0 0 0 0 0 127 0"/>
<feOffset/>
<feGaussianBlur stdDeviation="2"/>
<feColorMatrix type="matrix" values="0 0 0 0 0 0 0 0 0 0 0 0 0 0 0 0 0 0 0.25 0"/>
<feBlend mode="normal" in2="BackgroundImageFix" result="effect1_dropShadow"/>
<feBlend mode="normal" in="SourceGraphic" in2="effect1_dropShadow" result="shape"/>
</filter>
</defs>
</svg>
