<svg width="18" height="13" viewBox="0 0 18 13" fill="none" xmlns="http://www.w3.org/2000/svg">
<path opacity="0.7" d="M2.91105 0.163183C3.14027 -0.0543944 3.51191 -0.0543944 3.74113 0.163183L15.8716 11.6775C16.1008 11.895 16.1008 12.2478 15.8716 12.4654C15.6423 12.683 15.2707 12.683 15.0415 12.4654L14.0575 11.5316C12.5335 12.4698 10.8202 13 9 13C6.55208 13 4.30289 12.0405 2.48925 10.4625C1.03477 9.19694 0 7.60852 0 6.68571C0 5.44175 1.70691 3.24795 3.88644 1.87677L2.91105 0.951103C2.68183 0.733525 2.68183 0.380761 2.91105 0.163183ZM4.7356 2.68307C2.75981 3.85786 1.17391 5.84346 1.17391 6.68571C1.17391 7.22578 2.04711 8.56618 3.28249 9.64109C4.89308 11.0425 6.86985 11.8857 9 11.8857C10.4977 11.8857 11.9192 11.4703 13.2065 10.7236L11.4669 9.07233C10.8177 9.67715 9.93945 10.0286 9.00074 10.0286C7.05574 10.0286 5.47901 8.53192 5.47901 6.68571C5.47901 5.79452 5.84939 4.9609 6.48634 4.34492L4.7356 2.68307ZM9 0.371429C11.4479 0.371429 13.6971 1.33088 15.5108 2.90894C16.9652 4.17449 18 5.76291 18 6.68571C18 7.42477 17.3291 8.60643 16.3053 9.69781C16.0897 9.9276 15.7187 9.948 15.4766 9.74337C15.2345 9.53874 15.213 9.18656 15.4286 8.95677C16.2784 8.05095 16.8261 7.08619 16.8261 6.68571C16.8261 6.14565 15.9529 4.80525 14.7175 3.73034C13.1069 2.32896 11.1301 1.48571 9 1.48571C8.43546 1.48571 7.88095 1.54477 7.3379 1.65955C7.02148 1.72643 6.70786 1.53718 6.6374 1.23683C6.56694 0.936485 6.76632 0.63879 7.08274 0.571908C7.70874 0.43959 8.34877 0.371429 9 0.371429ZM7.31667 5.1327C6.89639 5.54282 6.65292 6.09473 6.65292 6.68571C6.65292 7.91652 7.70408 8.91429 9.00074 8.91429C9.62312 8.91429 10.2044 8.68339 10.6366 8.28445L7.31667 5.1327ZM9.63682 3.90874C9.76661 3.62677 10.1126 3.49807 10.4097 3.62127C11.2224 3.95833 11.8745 4.57745 12.2295 5.34896C12.3592 5.63095 12.2235 5.95937 11.9265 6.08251C11.6294 6.20565 11.2834 6.07688 11.1537 5.79489C10.9171 5.2807 10.4813 4.86699 9.93967 4.64234C9.64262 4.51915 9.50703 4.1907 9.63682 3.90874Z" fill="#051C2C"/>
</svg>
