<svg width="100%" height="100%" viewBox="0 0 211 36" xmlns="http://www.w3.org/2000/svg">
<path d="M72.3681 10.4517C68.6491 10.4517 65.4947 11.6877 62.9189 14.1529C60.3361 16.6181 59.0447 19.6401 59.0447 23.2259C59.0447 26.8048 60.3361 29.8269 62.9189 32.2988C65.5018 34.764 68.6491 36 72.3681 36C76.087 36 79.2344 34.764 81.8172 32.2988C84.4 29.8336 85.6914 26.8116 85.6914 23.2259C85.6914 19.6469 84.4 16.6249 81.8172 14.1529C79.2344 11.6809 76.087 10.4517 72.3681 10.4517ZM76.4893 27.3345C75.3813 28.4007 74.0053 28.9304 72.3681 28.9304C70.7238 28.9304 69.3548 28.4007 68.2469 27.3345C67.1389 26.2683 66.5885 24.9033 66.5885 23.2259C66.5885 21.5485 67.1389 20.1766 68.2469 19.1172C69.3548 18.051 70.7238 17.5213 72.3681 17.5213C74.0123 17.5213 75.3813 18.051 76.4893 19.1172C77.5972 20.1834 78.1476 21.5552 78.1476 23.2259C78.1476 24.8965 77.5972 26.2683 76.4893 27.3345Z"/>
<path d="M89.608 35.3139H97.1517V0L89.608 7.24615V35.3139Z"/>
<path d="M114.441 10.4517C110.517 10.4517 107.314 11.6673 104.815 14.1054C102.317 16.5434 101.068 19.579 101.068 23.2259C101.068 26.8999 102.331 29.9491 104.865 32.3667C107.391 34.7844 110.771 35.9932 114.991 35.9932C119.818 35.9932 123.467 34.3294 125.951 31.0085L119.882 27.708C118.71 28.9372 117.137 29.5145 115.09 29.5145C111.943 29.5145 109.932 28.3871 109.057 26.1257H126.903C127.101 25.2225 127.207 24.2581 127.207 23.2259C127.207 19.579 125.993 16.5434 123.566 14.1054C121.138 11.6673 118.096 10.4517 114.441 10.4517ZM108.916 20.7064C109.649 18.1597 111.477 16.8829 114.392 16.8829C117.207 16.8829 118.986 18.1597 119.72 20.7064H108.916Z"/>
<path d="M141.942 29.5077C139.761 29.5077 138.336 28.5569 137.672 26.6554L131.138 30.2343C133.05 34.0713 136.649 35.9932 141.942 35.9932C144.891 35.9932 147.368 35.3209 149.38 33.983C151.391 32.6452 152.393 30.669 152.393 28.0544C152.393 26.377 151.962 24.9848 151.108 23.871C150.255 22.7573 149.224 21.9627 148.018 21.4737C146.811 20.9916 145.604 20.5977 144.397 20.2921C143.191 19.9865 142.16 19.6809 141.306 19.3753C140.453 19.0697 140.022 18.6758 140.022 18.1868C140.022 17.2836 140.728 16.8354 142.132 16.8354C143.572 16.8354 144.694 17.5417 145.498 18.961L151.934 15.6266C150.897 13.9492 149.521 12.6656 147.813 11.7828C146.105 10.8931 144.207 10.4517 142.132 10.4517C139.352 10.4517 137.016 11.1444 135.118 12.5298C133.226 13.9152 132.281 15.8643 132.281 18.3838C132.281 19.9322 132.711 21.2361 133.565 22.3023C134.419 23.3685 135.449 24.1495 136.656 24.6452C137.863 25.1478 139.069 25.5484 140.276 25.854C141.483 26.1596 142.513 26.4788 143.367 26.798C144.221 27.1172 144.651 27.5247 144.651 28.0068C144.658 29.0119 143.748 29.5077 141.942 29.5077Z"/>
<path d="M169.64 10.4105C165.921 10.4105 162.766 11.6465 160.191 14.1117C157.608 16.5769 156.316 19.599 156.316 23.1847C156.316 26.7636 157.608 29.7857 160.191 32.2576C162.773 34.7228 165.921 35.9588 169.64 35.9588C173.359 35.9588 176.506 34.7228 179.089 32.2576C181.672 29.7925 182.963 26.7704 182.963 23.1847C182.963 19.6057 181.672 16.5837 179.089 14.1117C176.506 11.6465 173.359 10.4105 169.64 10.4105ZM173.761 27.2933C172.653 28.3595 171.277 28.8892 169.64 28.8892C167.995 28.8892 166.626 28.3595 165.519 27.2933C164.411 26.2271 163.86 24.8621 163.86 23.1847C163.86 21.5073 164.411 20.1355 165.519 19.076C166.626 18.0098 167.995 17.4801 169.64 17.4801C171.284 17.4801 172.653 18.0098 173.761 19.076C174.869 20.1422 175.419 21.5141 175.419 23.1847C175.419 24.8621 174.869 26.2271 173.761 27.2933Z"/>
<path d="M208.311 13.1067C206.519 11.3342 204.282 10.4446 201.6 10.4446C198.319 10.4446 195.919 11.4293 194.409 13.3988V11.1237H186.866V35.3138H194.402V22.105C194.402 20.4615 194.819 19.2188 195.658 18.3767C196.498 17.5413 197.634 17.1203 199.074 17.1203C200.344 17.1203 201.396 17.5006 202.214 18.2544C203.033 19.015 203.449 20.1016 203.449 21.521V35.3138H211V20.4615C211 17.3308 210.097 14.886 208.311 13.1067Z"/>
<path d="M47.5844 35.3139H55.1282V0L29.1095 25.0389L19.8933 16.1697L0 35.3139H10.6629L19.8933 26.4311L29.1095 35.3004V35.2936L47.5844 17.5211V35.3139Z"/>
</svg>
