<svg width="222" height="218" viewBox="0 0 222 218" fill="none" xmlns="http://www.w3.org/2000/svg">
<path d="M127.402 170.538H93.2876C93.2496 170.538 93.2191 170.507 93.2191 170.469C93.2191 170.432 93.2496 170.401 93.2876 170.401H127.334V157.351C127.334 155.004 128.267 152.924 130.106 151.17C131.928 149.428 134.302 147.73 137.162 146.121C140.011 144.524 143.159 142.902 146.52 141.301C149.87 139.707 153.199 137.793 156.416 135.612C162.977 131.259 167.596 126.147 170.147 120.418C172.699 114.682 173.993 108.243 173.993 101.281C173.993 93.153 172.551 86.1628 169.709 80.5048C166.866 74.846 163.096 70.2119 158.504 66.73C153.914 63.2505 148.701 60.675 143.01 59.0758C139.388 58.0601 135.74 57.3574 132.168 56.9876C130.343 57.7601 128.084 58.1842 125.452 58.2483L121.087 59.0709V82.3111C121.087 82.3489 121.056 82.3793 121.018 82.3793H111.749C111.714 82.3793 111.683 82.3522 111.681 82.316L110.095 61.256L109.46 82.3127C109.459 82.3497 109.429 82.3785 109.392 82.3785H99.1054C99.0872 82.3785 99.069 82.3711 99.0558 82.3579C99.0426 82.3448 99.036 82.3267 99.0368 82.3086L99.605 63.1478C99.0277 63.4666 98.4695 63.7888 97.9451 64.106C89.2841 69.3391 83.7636 77.9614 79.922 84.8882C76.1167 91.7493 74.3132 97.2956 74.1282 97.8791L101.099 114.328C101.641 113.344 108.275 101.285 109.187 99.8226C110.138 98.2916 111.326 96.7779 112.717 95.3217C114.111 93.863 115.783 92.6057 117.687 91.585C119.598 90.5619 121.904 90.0433 124.542 90.0433C128.063 90.0433 131.186 91.0426 133.828 93.0141C136.474 94.9897 137.817 97.6975 137.817 101.063C137.817 104.134 136.701 106.986 134.499 109.539C132.308 112.085 129.675 114.409 126.673 116.451C123.677 118.488 120.638 120.259 117.64 121.713C114.587 123.195 112.32 124.341 110.71 125.216C106.766 127.253 103.588 129.534 101.263 131.992C100.233 133.082 99.3027 134.21 98.4992 135.343C98.4769 135.373 98.4348 135.381 98.4034 135.359C98.3721 135.337 98.3654 135.295 98.3869 135.264C99.1946 134.125 100.129 132.993 101.163 131.899C103.499 129.428 106.689 127.139 110.646 125.095C112.256 124.22 114.525 123.074 117.58 121.59C120.572 120.139 123.605 118.372 126.595 116.338C129.587 114.304 132.212 111.987 134.395 109.451C136.575 106.922 137.68 104.1 137.68 101.063C137.68 97.7427 136.356 95.071 133.746 93.1226C131.129 91.1692 128.033 90.1789 124.543 90.1789C121.928 90.1789 119.643 90.6917 117.753 91.7042C115.863 92.7174 114.202 93.9657 112.818 95.4145C111.433 96.8634 110.251 98.3705 109.305 99.8933C108.361 101.407 101.257 114.325 101.186 114.455C101.176 114.471 101.162 114.483 101.143 114.487C101.125 114.492 101.106 114.49 101.09 114.48L74.0126 97.9662C73.9862 97.9498 73.9738 97.9177 73.9829 97.8881C74.0002 97.8306 75.7922 92.0542 79.8039 84.8208C82.4308 80.0849 84.8455 76.4213 87.403 73.2928C90.6401 69.3334 94.0655 66.2895 97.8757 63.9876C98.434 63.6507 99.0294 63.308 99.6454 62.9686C99.6669 62.9571 99.6933 62.9571 99.714 62.9703C99.7346 62.9826 99.7478 63.0056 99.747 63.0303L99.178 82.2404H109.327L109.965 61.0777C109.966 61.0456 109.989 61.0185 110.022 61.0128L110.139 60.9906C110.158 60.9873 110.178 60.9914 110.193 61.0037C110.209 61.0152 110.218 61.0333 110.22 61.053L111.815 82.2412H120.952V59.0125C120.952 58.9797 120.975 58.9517 121.008 58.9451L125.44 58.111C128.074 58.0461 130.322 57.6229 132.133 56.8529C132.144 56.8479 132.156 56.8471 132.167 56.8479C135.753 57.2186 139.414 57.9228 143.049 58.9427C148.757 60.5468 153.986 63.1297 158.589 66.6198C163.198 70.1141 166.981 74.7646 169.834 80.4423C172.687 86.1201 174.133 93.1308 174.133 101.28C174.133 108.262 172.835 114.719 170.276 120.473C167.714 126.226 163.078 131.357 156.496 135.724C153.274 137.909 149.938 139.827 146.583 141.423C143.225 143.023 140.079 144.643 137.233 146.24C134.383 147.842 132.018 149.534 130.204 151.267C128.392 152.996 127.474 155.043 127.474 157.351V170.469C127.471 170.507 127.44 170.538 127.402 170.538Z" fill="#051C2C"/>
<path d="M169.771 80.4731C166.91 74.7797 163.167 70.1802 158.546 66.6752C153.924 63.1703 148.752 60.6186 143.029 59.0096C142.743 58.929 142.457 58.8518 142.172 58.7754C141.929 58.7104 141.685 58.6463 141.442 58.5855C141.434 58.5814 141.428 58.5814 141.422 58.5798C141.164 58.5149 140.907 58.4508 140.651 58.3883C140.123 58.2609 139.595 58.1401 139.068 58.0251C138.607 57.924 138.148 57.8295 137.687 57.7407C137.669 57.7366 137.65 57.7325 137.632 57.7309C137.474 57.6988 137.316 57.6684 137.157 57.6397C136.961 57.6035 136.763 57.5673 136.565 57.5328C136.351 57.4942 136.135 57.458 135.918 57.4219C135.656 57.3775 135.394 57.3372 135.133 57.297C134.921 57.2666 134.711 57.2345 134.499 57.2041C134.357 57.1836 134.213 57.1638 134.071 57.1458C133.686 57.0932 133.3 57.0447 132.913 57.0003C132.824 56.988 132.732 56.9781 132.643 56.9699C132.48 56.951 132.319 56.9346 132.157 56.9189C129.745 57.9445 126.375 58.4508 121.698 58.0555C121.47 58.1081 121.244 58.1615 121.018 58.2165V82.3114H111.749L110.233 62.1718C110.154 62.2121 110.075 62.254 109.995 62.2943L109.392 82.3114H99.1053L99.4728 69.8983C95.1085 74.2973 91.7202 79.5683 88.7878 84.8557C84.7339 92.1663 82.9733 97.9106 82.9733 97.9106L103.369 110.349C105.558 106.388 108.64 100.828 109.245 99.8591C110.196 98.3265 111.368 96.8308 112.767 95.3688C114.158 93.911 115.81 92.6693 117.717 91.6461C119.624 90.6263 121.901 90.1135 124.54 90.1135C126.111 90.1135 127.593 90.3091 128.987 90.7011C130.34 90.3091 131.833 90.1135 133.467 90.1135C136.989 90.1135 140.071 91.0988 142.713 93.0695C145.354 95.0418 146.675 97.7068 146.675 101.065C146.675 104.132 145.573 106.944 143.372 109.498C141.17 112.054 138.565 114.354 135.559 116.397C132.55 118.442 129.541 120.194 126.534 121.652C123.526 123.114 121.214 124.281 119.602 125.157C115.64 127.204 112.482 129.466 110.137 131.947C107.789 134.432 106.029 137.022 104.856 139.722C103.679 142.425 102.947 145.274 102.655 148.264C102.358 151.258 102.214 154.289 102.214 157.353V170.472H127.402V157.353C127.402 155.019 128.317 152.974 130.153 151.222C131.985 149.47 134.334 147.792 137.195 146.184C140.058 144.579 143.173 142.974 146.55 141.365C149.924 139.76 153.225 137.86 156.455 135.669C163.056 131.29 167.642 126.219 170.21 120.448C172.774 114.682 174.061 108.292 174.061 101.282C174.062 93.1056 172.631 86.1681 169.771 80.4731Z" fill="#FF9F00"/>
<path d="M119.285 21.7133L121.096 25.4007C121.096 25.4007 119.607 36.9197 122.064 43.5482H137.378L137.735 36.6485L136.225 27.9071L143.985 26.4345C143.985 26.4345 143.316 13.3483 132.375 12.9473C132.375 12.9473 131.674 15.3148 129.524 15.2647C127.623 15.2203 127.545 13.5159 127.545 13.5159C127.545 13.5159 121.537 15.5926 119.285 21.7133Z" fill="#051C2C"/>
<path d="M138.946 206.761C139.392 210.923 142.921 214.08 147.127 214.08L204.643 214.08L204.566 209.283L149.958 203.178" fill="#FF9F00"/>
<path d="M198.111 205.969L179.575 187.311C177.644 185.365 174.519 185.264 172.464 187.082L159.781 198.301C159.781 198.301 162.46 199.397 162.6 200.827L171.212 201.841L175.992 198.301L183.397 204.186L198.111 205.969Z" fill="#FF9F00"/>
<path d="M136.989 178.158H128.062V214.079H136.989V178.158Z" fill="#051C2C"/>
<path d="M128.062 178.158H102.874V214.079H128.062V178.158Z" fill="#FF9F00"/>
<path d="M128.987 90.6979C128.153 90.9404 127.372 91.2551 126.643 91.643C124.736 92.6669 123.085 93.9087 121.693 95.3657C120.295 96.8277 119.122 98.3233 118.171 99.856C117.215 101.39 107.765 118.514 107.765 118.514L101.123 114.421C103.312 110.46 108.639 100.826 109.244 99.856C110.195 98.3233 111.368 96.8277 112.766 95.3657C114.157 93.9078 115.809 92.6661 117.716 91.643C119.623 90.6232 121.9 90.1104 124.539 90.1104C126.111 90.1112 127.594 90.3068 128.987 90.6979Z" fill="#051C2C"/>
<path d="M204.567 210.572L208.73 203.92L209.054 214.312L204.677 214.124L204.567 210.572Z" fill="#051C2C"/>
<path d="M147.015 168.852C146.958 169.02 146.997 169.183 147.101 169.218C147.205 169.252 147.334 169.145 147.391 168.978C147.448 168.81 147.41 168.646 147.306 168.612C147.202 168.577 147.071 168.684 147.015 168.852Z" fill="#051C2C"/>
<path d="M143.52 169.864C143.518 169.864 143.515 169.864 143.513 169.864C143.471 169.86 142.501 169.747 142.11 169.103C141.906 168.767 141.899 168.352 142.09 167.869C142.288 167.367 142.58 167.061 142.96 166.958C143.642 166.772 144.348 167.31 144.377 167.333C144.407 167.356 144.413 167.399 144.39 167.428C144.367 167.458 144.323 167.464 144.294 167.441C144.287 167.436 143.613 166.921 142.997 167.09C142.661 167.182 142.399 167.46 142.218 167.919C142.044 168.36 142.047 168.735 142.227 169.032C142.583 169.618 143.518 169.727 143.528 169.728C143.566 169.732 143.593 169.765 143.589 169.803C143.584 169.838 143.554 169.864 143.52 169.864Z" fill="#051C2C"/>
<path d="M147.861 168.363C147.837 168.363 147.812 168.349 147.8 168.325C147.79 168.304 147.534 167.817 146.903 168.004C146.867 168.015 146.829 167.994 146.818 167.958C146.808 167.922 146.828 167.884 146.865 167.873C147.608 167.654 147.921 168.258 147.923 168.264C147.94 168.297 147.927 168.338 147.893 168.355C147.882 168.361 147.871 168.363 147.861 168.363Z" fill="#051C2C"/>
<path d="M142.457 168.266C142.447 168.266 142.437 168.263 142.428 168.259C142.394 168.243 142.38 168.201 142.396 168.168C142.584 167.783 142.83 167.548 143.124 167.469C143.519 167.363 143.852 167.583 143.866 167.592C143.898 167.613 143.906 167.655 143.885 167.686C143.864 167.717 143.822 167.726 143.79 167.705C143.787 167.703 143.493 167.51 143.158 167.602C142.905 167.67 142.69 167.88 142.52 168.228C142.507 168.252 142.482 168.266 142.457 168.266Z" fill="#051C2C"/>
<path d="M143.344 168.967C143.343 168.967 143.34 168.967 143.338 168.967C143.3 168.964 143.272 168.931 143.276 168.893C143.335 168.185 142.831 167.721 142.826 167.716C142.798 167.691 142.795 167.648 142.821 167.62C142.846 167.592 142.889 167.59 142.917 167.615C142.94 167.636 143.478 168.128 143.413 168.906C143.41 168.941 143.38 168.967 143.344 168.967Z" fill="#051C2C"/>
<path d="M146.382 172.618C146.366 172.618 146.349 172.612 146.337 172.601C146.103 172.393 145.904 172.146 145.746 171.869C145.727 171.836 145.74 171.794 145.772 171.776C145.805 171.757 145.846 171.768 145.865 171.801C146.016 172.066 146.205 172.301 146.428 172.499C146.456 172.524 146.458 172.567 146.434 172.595C146.42 172.611 146.401 172.618 146.382 172.618Z" fill="#051C2C"/>
<path d="M151.51 165.244C151.73 164.377 151.338 163.478 150.487 163.193C150.304 163.132 150.118 163.106 149.936 163.11C149.595 162.452 148.973 161.829 147.933 161.391C146.657 160.852 145.564 160.919 144.746 161.063C143.527 161.278 142.542 162.178 142.165 163.351L140.944 168.799L142.044 168.192C142.044 168.192 142.158 167.348 142.845 167.07C143.735 166.71 144.336 167.384 144.336 167.384L145.208 165.553C145.206 165.555 150.482 169.28 151.51 165.244Z" fill="#051C2C"/>
<path d="M144.796 173.726C144.471 173.726 144.141 173.672 143.817 173.564L143.165 173.345C143.13 173.333 143.11 173.294 143.122 173.259C143.135 173.223 143.173 173.204 143.209 173.216L143.86 173.435C144.614 173.687 145.401 173.63 146.075 173.273C146.785 172.899 147.29 172.24 147.533 171.369C147.54 171.343 147.562 171.323 147.591 171.32L148.611 171.192L147.989 170.117C147.979 170.098 147.977 170.076 147.986 170.056L149.457 166.683C149.472 166.649 149.512 166.633 149.547 166.648C149.582 166.663 149.597 166.703 149.582 166.738L148.126 170.078L148.781 171.212C148.793 171.232 148.794 171.256 148.783 171.276C148.773 171.297 148.753 171.311 148.73 171.313L147.652 171.449C147.397 172.323 146.861 173.013 146.14 173.393C145.722 173.615 145.263 173.726 144.796 173.726Z" fill="#051C2C"/>
<path d="M173.923 202.16L182.501 187.503L183.326 187.981L174.437 203.17L174.436 203.178L156.887 201.112L157 200.168L173.923 202.16Z" fill="#051C2C"/>
<path d="M127.926 178.296V213.943H94.0853V178.296H127.926ZM128.063 178.159H93.9482V214.08H128.063V178.159Z" fill="#051C2C"/>
<path d="M154.672 194.112C154.641 194.112 154.613 194.092 154.606 194.061C150.89 179.615 144.363 174.845 144.297 174.799C144.276 174.783 144.265 174.757 144.269 174.731L144.464 173.633C144.471 173.596 144.507 173.57 144.543 173.577C144.58 173.584 144.605 173.619 144.599 173.656L144.411 174.714C144.936 175.113 151.15 180.084 154.738 194.028C154.747 194.064 154.725 194.102 154.688 194.111C154.682 194.111 154.677 194.112 154.672 194.112Z" fill="#051C2C"/>
<path d="M138.946 206.829C138.934 206.829 138.92 206.826 138.91 206.818C138.892 206.808 138.881 206.79 138.878 206.77C138.857 206.617 136.718 191.368 136.718 183.499C136.718 180.173 137.55 177.991 138.247 176.746C138.944 175.503 139.632 174.933 139.765 174.829L140.876 168.788C140.883 168.751 140.919 168.728 140.956 168.733C140.993 168.74 141.018 168.776 141.011 168.813L139.896 174.88C139.892 174.898 139.882 174.912 139.868 174.923C139.861 174.929 139.107 175.49 138.362 176.821C137.674 178.052 136.855 180.208 136.855 183.5C136.855 191.062 138.834 205.457 139.002 206.671L156.753 200.896C156.788 200.884 156.827 200.904 156.839 200.939C156.852 200.975 156.831 201.013 156.796 201.026L138.967 206.827C138.961 206.827 138.953 206.829 138.946 206.829Z" fill="#051C2C"/>
<path d="M147.127 214.147C142.875 214.147 139.329 210.975 138.878 206.767C138.874 206.729 138.901 206.696 138.939 206.692C138.974 206.689 139.01 206.715 139.015 206.753C139.458 210.891 142.946 214.011 147.127 214.011L204.574 214.01V206.82L156.766 201.026C156.728 201.021 156.702 200.987 156.707 200.95C156.711 200.913 156.746 200.886 156.783 200.891L204.651 206.692C204.686 206.696 204.711 206.725 204.711 206.76V214.078C204.711 214.116 204.681 214.147 204.643 214.147L147.127 214.147Z" fill="#051C2C"/>
<path d="M198.111 206.038C198.093 206.038 198.075 206.031 198.062 206.017L179.527 187.36C177.62 185.44 174.538 185.34 172.51 187.133L159.826 198.352C159.798 198.377 159.754 198.375 159.729 198.347C159.704 198.319 159.707 198.275 159.735 198.251L172.419 187.032C174.501 185.19 177.666 185.292 179.624 187.264L198.159 205.921C198.186 205.948 198.186 205.991 198.158 206.017C198.145 206.031 198.128 206.038 198.111 206.038Z" fill="#051C2C"/>
<path d="M183.397 204.254C183.382 204.254 183.368 204.249 183.354 204.239L175.991 198.386L170.36 202.557C170.329 202.579 170.286 202.573 170.264 202.543C170.241 202.512 170.247 202.47 170.278 202.448L175.952 198.246C175.977 198.228 176.011 198.228 176.035 198.247L183.44 204.133C183.47 204.157 183.475 204.2 183.451 204.229C183.438 204.245 183.418 204.254 183.397 204.254Z" fill="#051C2C"/>
<path d="M175.992 198.369C175.954 198.369 175.924 198.338 175.924 198.301V196.3C175.924 196.262 175.954 196.231 175.992 196.231C176.03 196.231 176.061 196.262 176.061 196.3V198.301C176.061 198.338 176.03 198.369 175.992 198.369Z" fill="#051C2C"/>
<path d="M157 200.236C156.997 200.236 156.995 200.236 156.993 200.236C152.733 199.808 149.191 198.381 146.465 195.993C144.284 194.082 142.619 191.557 141.517 188.487C139.641 183.264 140.05 178.203 140.054 178.153C140.058 178.116 140.092 178.089 140.129 178.091C140.167 178.094 140.194 178.127 140.191 178.165C140.187 178.215 139.78 183.249 141.647 188.445C142.742 191.492 144.395 193.997 146.557 195.892C149.25 198.251 152.749 199.664 156.958 200.095L158.763 196.162C154.35 194.804 151.762 191.68 150.368 189.292C148.849 186.692 148.377 184.377 148.372 184.354C148.364 184.317 148.388 184.281 148.425 184.274C148.462 184.267 148.499 184.29 148.505 184.327C148.51 184.35 148.979 186.647 150.487 189.228C151.878 191.607 154.462 194.722 158.877 196.054C158.896 196.06 158.911 196.073 158.92 196.091C158.928 196.109 158.928 196.13 158.92 196.148L157.062 200.196C157.051 200.22 157.026 200.236 157 200.236Z" fill="#051C2C"/>
<path d="M162.6 200.896C162.575 200.896 162.551 200.882 162.539 200.858L162.28 200.334C161.897 199.563 161.243 198.971 160.436 198.665L158.101 197.779C158.066 197.766 158.048 197.727 158.062 197.691C158.075 197.656 158.115 197.639 158.15 197.652L160.485 198.538C161.324 198.856 162.005 199.473 162.403 200.274L162.662 200.798C162.679 200.831 162.665 200.872 162.631 200.889C162.621 200.893 162.611 200.896 162.6 200.896Z" fill="#051C2C"/>
<path d="M139.829 174.935C139.792 174.935 139.761 174.906 139.76 174.869C139.759 174.831 139.789 174.8 139.827 174.799L144.335 174.675C144.37 174.675 144.405 174.704 144.405 174.741C144.406 174.779 144.376 174.81 144.338 174.811L139.83 174.935C139.83 174.935 139.829 174.935 139.829 174.935Z" fill="#051C2C"/>
<path d="M102.802 82.1514L97.5718 88.0116L107.678 85.3736L106.621 82.31L102.802 82.1514Z" fill="#051C2C"/>
<path d="M115.287 82.4385L110.057 88.2987L120.163 85.6615L119.052 82.4385H115.287Z" fill="#051C2C"/>
<path d="M129.227 11.6746H128.539C126.905 11.6746 125.576 10.3515 125.576 8.72517V3.67856C125.576 3.64076 125.606 3.61035 125.644 3.61035C125.682 3.61035 125.713 3.64076 125.713 3.67856V8.72517C125.713 10.2759 126.98 11.5382 128.539 11.5382H129.227C129.265 11.5382 129.296 11.5686 129.296 11.6064C129.296 11.6442 129.265 11.6746 129.227 11.6746Z" fill="#051C2C"/>
<path d="M129.615 15.3328C129.335 15.3328 129.053 15.2777 128.784 15.1668C128.088 14.88 127.599 14.2669 127.477 13.5265L127.476 11.4309C127.476 11.3931 127.506 11.3627 127.544 11.3627C127.582 11.3627 127.613 11.3931 127.613 11.4309V13.5158C127.727 14.1979 128.184 14.7723 128.837 15.041C129.489 15.3098 130.221 15.2259 130.795 14.8167C130.799 14.8134 130.804 14.8109 130.809 14.8093C131.487 14.5291 132.203 13.0786 132.279 12.9233L132.307 7.77231C132.307 7.73451 132.339 7.70575 132.376 7.7041C132.414 7.7041 132.445 7.73533 132.445 7.77231L132.416 12.9381C132.416 12.9479 132.413 12.9578 132.409 12.9668C132.378 13.0342 131.629 14.6096 130.869 14.9317C130.494 15.1964 130.057 15.3328 129.615 15.3328Z" fill="#051C2C"/>
<path d="M132.871 8.44088C132.591 8.44088 132.379 8.39568 132.36 8.39157C132.323 8.38336 132.3 8.3472 132.308 8.31022C132.317 8.27324 132.353 8.25023 132.39 8.25844C132.399 8.26091 133.321 8.45485 133.846 8.01109C134.112 7.78674 134.235 7.43255 134.212 6.95919C134.187 6.47187 134.035 6.14151 133.761 5.97633C133.247 5.66816 132.462 6.02482 132.454 6.02811C132.421 6.04372 132.379 6.02893 132.364 5.99523C132.348 5.96072 132.363 5.92045 132.397 5.90484C132.431 5.8884 133.257 5.51449 133.832 5.85964C134.148 6.04947 134.322 6.41763 134.349 6.95262C134.375 7.47117 134.236 7.86234 133.935 8.11627C133.622 8.37925 133.199 8.44088 132.871 8.44088Z" fill="#051C2C"/>
<path d="M127.827 8.60071C127.813 8.60071 127.799 8.59661 127.786 8.58674L127.258 8.19146C127.144 8.10682 127.071 7.97698 127.057 7.83645C127.043 7.69592 127.09 7.55458 127.185 7.44939L127.592 6.99987L127.54 5.8773C127.538 5.8395 127.567 5.80745 127.605 5.80581C127.643 5.80334 127.676 5.83293 127.677 5.87073L127.73 7.02123C127.731 7.03931 127.725 7.05657 127.713 7.06972L127.287 7.54061C127.216 7.61868 127.183 7.71893 127.193 7.8233C127.203 7.92767 127.255 8.01971 127.339 8.08217L127.868 8.47745C127.898 8.50046 127.904 8.54319 127.881 8.57277C127.869 8.59085 127.848 8.60071 127.827 8.60071Z" fill="#051C2C"/>
<path d="M129.012 5.31091C128.998 5.31091 128.984 5.3068 128.972 5.29776C128.941 5.27557 128.934 5.23284 128.956 5.20244C128.96 5.19668 129.368 4.65101 130.065 4.98959C130.099 5.00603 130.113 5.04712 130.097 5.08081C130.08 5.1145 130.039 5.12847 130.005 5.11204C129.41 4.82277 129.081 5.26325 129.067 5.28215C129.055 5.30187 129.033 5.31091 129.012 5.31091Z" fill="#051C2C"/>
<path d="M126.395 5.31175C126.377 5.31175 126.359 5.30517 126.346 5.29203C126.32 5.26573 126.32 5.22217 126.346 5.19588C126.351 5.19095 126.841 4.71759 127.475 5.16136C127.505 5.18273 127.513 5.22546 127.491 5.25669C127.47 5.28792 127.427 5.29449 127.396 5.27312C126.857 4.89592 126.459 5.27641 126.443 5.29285C126.429 5.30517 126.412 5.31175 126.395 5.31175Z" fill="#051C2C"/>
<path d="M133.894 7.21696C133.86 7.21696 133.83 7.1923 133.826 7.15779C133.777 6.77484 133.64 6.50693 133.422 6.36148C133.134 6.17 132.794 6.25793 132.791 6.25957C132.754 6.26943 132.716 6.24807 132.706 6.21191C132.696 6.17575 132.718 6.13795 132.754 6.12809C132.771 6.12398 133.156 6.02208 133.497 6.24725C133.751 6.41489 133.908 6.71567 133.963 7.13971C133.968 7.17669 133.942 7.21121 133.904 7.21614C133.9 7.21696 133.897 7.21696 133.894 7.21696Z" fill="#051C2C"/>
<path d="M132.828 7.60073C132.824 7.60073 132.818 7.5999 132.812 7.59908C132.775 7.59004 132.753 7.55306 132.762 7.5169C132.949 6.75921 133.616 6.46419 133.644 6.45186C133.679 6.43707 133.72 6.45269 133.734 6.4872C133.749 6.52172 133.734 6.56198 133.699 6.57678C133.692 6.57924 133.066 6.85947 132.895 7.54978C132.887 7.58018 132.859 7.60073 132.828 7.60073Z" fill="#051C2C"/>
<path d="M132.269 4.78133L132.359 6.05839C132.359 6.05839 132.795 5.75104 133.301 5.72557C133.301 5.72557 133.517 3.68671 133.487 2.90436C133.441 1.65606 133.25 0.369962 129.226 0.0848007C125.983 -0.1453 126.477 3.44839 127.185 3.93324C127.622 4.2332 128.126 4.1995 129.142 3.92667C129.605 3.80258 130.023 3.57659 130.459 3.46564C131.334 3.24294 132.195 3.88558 132.269 4.78133Z" fill="#051C2C"/>
<path d="M132.359 6.12706C132.349 6.12706 132.339 6.12459 132.329 6.12048C132.307 6.1098 132.292 6.08843 132.29 6.06378L132.2 4.78672C132.165 4.36925 131.949 3.98958 131.605 3.74633C131.275 3.51212 130.863 3.43405 130.477 3.53349C130.261 3.58855 130.052 3.67155 129.831 3.75866C129.616 3.84412 129.394 3.93206 129.16 3.99451C128.221 4.2468 126.225 4.37253 125.595 3.72579C125.292 3.41433 124.962 2.39942 125.385 1.48477C125.732 0.731184 126.683 -0.135804 129.232 0.0178704C133.459 0.271803 133.514 1.73048 133.557 2.90235C133.586 3.67977 133.378 5.6496 133.369 5.73342C133.366 5.76711 133.339 5.79259 133.305 5.79423C132.826 5.81806 132.403 6.11144 132.398 6.11473C132.386 6.12295 132.373 6.12706 132.359 6.12706ZM130.81 3.35434C131.119 3.35434 131.425 3.45049 131.685 3.63457C132.061 3.90165 132.299 4.31747 132.337 4.77521V4.77603L132.419 5.93969C132.572 5.85011 132.883 5.69397 133.239 5.66192C133.274 5.32663 133.445 3.60252 133.42 2.90728C133.367 1.48641 133.024 0.381923 129.224 0.153466C126.751 0.00472176 125.84 0.826512 125.509 1.54147C125.119 2.38791 125.422 3.35187 125.694 3.63046C126.238 4.18845 128.09 4.13997 129.126 3.8622C129.351 3.80139 129.57 3.7151 129.781 3.63128C129.997 3.54581 130.22 3.45788 130.444 3.40036C130.563 3.36995 130.687 3.35434 130.81 3.35434Z" fill="#051C2C"/>
<path d="M109.392 82.3783H99.1061C99.0879 82.3783 99.0697 82.3709 99.0565 82.3578C99.0433 82.3446 99.0367 82.3265 99.0375 82.3084L99.9889 50.2028C100.043 48.3554 101.541 46.9082 103.399 46.9082H112.34C112.378 46.9082 112.409 46.9386 112.409 46.9764C112.409 47.0142 112.378 47.0446 112.34 47.0446H103.399C101.616 47.0446 100.178 48.4334 100.126 50.2069L99.1763 82.2427H109.325L109.998 59.9525C109.998 59.9147 110.029 59.8859 110.068 59.8867C110.106 59.8876 110.136 59.9196 110.135 59.9566L109.46 82.3126C109.459 82.3487 109.429 82.3783 109.392 82.3783Z" fill="#051C2C"/>
<path d="M121.018 82.3773H111.749C111.714 82.3773 111.683 82.3502 111.681 82.3141L109.293 50.6094C109.221 49.643 109.545 48.7185 110.208 48.0085C110.871 47.2976 111.772 46.9064 112.747 46.9064H123.639C123.677 46.9064 123.708 46.9368 123.708 46.9746C123.708 47.0125 123.677 47.0429 123.639 47.0429H112.747C111.811 47.0429 110.946 47.4184 110.309 48.1013C109.672 48.7834 109.361 49.6709 109.43 50.5996L111.813 82.2409H120.949V57.9907C120.949 57.9718 120.958 57.9529 120.972 57.9398C120.986 57.9266 121.006 57.9209 121.025 57.9225C128.227 58.6465 133.208 57.3801 135.829 54.1587C139.134 50.0974 137.502 44.2044 137.327 43.6152H118.948C118.929 43.6152 118.911 43.607 118.898 43.593C118.885 43.579 118.878 43.5601 118.88 43.5412C119.982 28.5238 121.592 22.8288 121.608 22.7729C121.619 22.7368 121.656 22.7162 121.693 22.7261C121.73 22.7368 121.75 22.7746 121.74 22.8107C121.725 22.8666 120.124 28.5337 119.023 43.4779H137.378C137.408 43.4779 137.434 43.4968 137.443 43.5256C137.464 43.5889 139.447 49.9298 135.936 54.2442C133.765 56.9117 130.005 58.2554 124.736 58.2554C123.591 58.2554 122.375 58.1921 121.086 58.0647V82.3083C121.086 82.3469 121.056 82.3773 121.018 82.3773Z" fill="#051C2C"/>
<path d="M178.698 80.4728C175.837 74.7794 172.094 70.1798 167.472 66.6749C162.85 63.17 157.679 60.6183 151.956 59.0093C146.234 57.4043 140.584 56.6006 135.009 56.6006C134.255 56.6006 133.506 56.6137 132.764 56.6392C132.57 56.7354 132.368 56.8274 132.16 56.9162C135.754 57.2868 139.376 57.9845 143.029 59.0101C148.752 60.6191 153.924 63.1708 158.546 66.6757C163.168 70.1807 166.91 74.7802 169.771 80.4736C172.631 86.1694 174.061 93.1061 174.061 101.281C174.061 108.291 172.775 114.681 170.211 120.447C167.643 126.218 163.057 131.289 156.455 135.668C153.226 137.859 149.925 139.758 146.551 141.364C143.172 142.973 140.058 144.578 137.196 146.183C134.336 147.791 131.986 149.468 130.154 151.221C128.318 152.973 127.403 155.018 127.403 157.352V170.471H136.33V157.352C136.33 155.018 137.245 152.973 139.081 151.221C140.912 149.469 143.262 147.791 146.123 146.183C148.986 144.578 152.1 142.973 155.478 141.364C158.852 139.759 162.153 137.859 165.382 135.668C171.984 131.289 176.569 126.218 179.138 120.447C181.702 114.681 182.988 108.291 182.988 101.281C182.988 93.1053 181.558 86.1678 178.698 80.4728Z" fill="#051C2C"/>
<path d="M149.33 58.6775C149.299 58.6775 149.271 58.6569 149.264 58.6265L149.097 57.997C148.847 57.0544 148.264 56.2343 147.454 55.687L146.412 54.9827C146.397 54.9729 146.386 54.9572 146.383 54.9392C145.342 49.5474 145.084 43.8606 144.836 38.3612C144.236 25.1254 143.717 13.6943 132.37 13.0164C132.332 13.0139 132.303 12.9819 132.306 12.9441C132.308 12.9062 132.338 12.8783 132.378 12.88C143.849 13.5653 144.37 25.0531 144.973 38.3546C145.221 43.8401 145.478 49.5112 146.513 54.8857L147.532 55.5744C148.369 56.1406 148.972 56.9887 149.23 57.9625L149.396 58.592C149.406 58.6282 149.384 58.666 149.348 58.675C149.342 58.6767 149.335 58.6775 149.33 58.6775Z" fill="#051C2C"/>
<path d="M129.567 6.32766C129.235 6.32766 128.971 6.02525 128.96 6.0121C128.936 5.98333 128.939 5.9406 128.968 5.91595C128.997 5.89129 129.04 5.89458 129.065 5.92334C129.067 5.92581 129.312 6.20604 129.588 6.19125C129.732 6.18385 129.864 6.09592 129.98 5.9291C130.002 5.89787 130.045 5.89047 130.076 5.91184C130.108 5.93321 130.115 5.97594 130.093 6.00634C129.951 6.20933 129.784 6.31698 129.596 6.32684C129.585 6.32766 129.576 6.32766 129.567 6.32766Z" fill="#051C2C"/>
<path d="M126.716 6.32766C126.385 6.32766 126.12 6.02525 126.11 6.0121C126.085 5.98333 126.088 5.9406 126.117 5.91595C126.146 5.89129 126.189 5.89458 126.214 5.92334C126.216 5.92581 126.464 6.20604 126.737 6.19125C126.881 6.18385 127.013 6.09592 127.13 5.9291C127.151 5.89787 127.194 5.89047 127.225 5.91184C127.257 5.93321 127.264 5.97594 127.243 6.00634C127.101 6.20933 126.933 6.31698 126.745 6.32684C126.734 6.32766 126.725 6.32766 126.716 6.32766Z" fill="#051C2C"/>
<path d="M128.254 10.1158C127.891 10.1158 127.605 10.0164 127.599 10.0139C127.563 10.0008 127.545 9.96216 127.557 9.92682C127.571 9.89149 127.61 9.87341 127.645 9.88574C127.699 9.90546 128.979 10.3484 129.46 9.19625C129.475 9.16174 129.515 9.1453 129.55 9.15927C129.585 9.17406 129.601 9.21351 129.587 9.24885C129.291 9.95805 128.712 10.1158 128.254 10.1158Z" fill="#051C2C"/>
<path d="M121.059 9.87155H102.023V5.4043H121.059C121.614 5.4043 122.064 5.85217 122.064 6.40442V8.87143C122.063 9.42367 121.614 9.87155 121.059 9.87155Z" fill="#FF9F00"/>
<path d="M120.396 9.94001H102.023C101.985 9.94001 101.954 9.9096 101.954 9.8718V4.29184C101.954 4.25404 101.985 4.22363 102.023 4.22363H120.396C121.353 4.22363 122.133 4.99858 122.133 5.95186V8.2126C122.133 9.16424 121.353 9.94001 120.396 9.94001ZM102.091 9.80359H120.396C121.278 9.80359 121.996 9.08945 121.996 8.21178V5.95186C121.996 5.07419 121.278 4.36005 120.396 4.36005H102.091V9.80359Z" fill="#051C2C"/>
<path d="M123.618 4.74316H121.537C121.86 5.04558 122.063 5.47456 122.063 5.9512V8.21112C122.063 8.62119 121.913 8.99675 121.665 9.28602H123.618C124.573 9.28602 125.348 8.51518 125.348 7.56355V6.46564C125.348 5.514 124.573 4.74316 123.618 4.74316Z" fill="#051C2C"/>
<path d="M109.98 9.93005C111.561 9.93005 112.842 8.65481 112.842 7.08172C112.842 5.50864 111.561 4.2334 109.98 4.2334C108.4 4.2334 107.118 5.50864 107.118 7.08172C107.118 8.65481 108.4 9.93005 109.98 9.93005Z" fill="#051C2C"/>
<path d="M102.023 9.93102C103.604 9.93102 104.885 8.65579 104.885 7.0827C104.885 5.50961 103.604 4.23438 102.023 4.23438C100.442 4.23438 99.1606 5.50961 99.1606 7.0827C99.1606 8.65579 100.442 9.93102 102.023 9.93102Z" fill="#051C2C"/>
<path d="M114.743 28.4298C113.231 28.4298 111.898 28.0395 110.748 27.2588C107.647 25.1501 106.476 20.53 106.041 17.025C105.57 13.2358 105.833 9.8993 105.836 9.86643C105.839 9.82863 105.873 9.80069 105.909 9.80397C105.947 9.80726 105.975 9.84013 105.972 9.87711C105.961 10.0094 104.963 23.1605 110.826 27.1462C113.301 28.8292 116.667 28.6599 120.83 26.6433C120.863 26.6268 120.905 26.6408 120.921 26.6745C120.938 26.7082 120.924 26.7493 120.89 26.7657C118.599 27.8751 116.545 28.4298 114.743 28.4298Z" fill="#051C2C"/>
<path d="M115.969 20.3763C115.678 20.3763 115.378 20.336 115.076 20.253C113.692 19.8742 112.603 18.704 112.366 17.3423L110.96 9.88451C110.953 9.84753 110.977 9.8122 111.014 9.8048C111.05 9.79823 111.087 9.82206 111.094 9.85904L112.501 17.3176C112.729 18.6292 113.779 19.7559 115.113 20.1215C116.263 20.4371 117.339 20.1331 118.065 19.2899C120.826 16.0866 123.252 14.669 124.802 14.0444C126.488 13.364 127.507 13.4437 127.55 13.4478C127.588 13.4511 127.615 13.484 127.612 13.5218C127.609 13.5596 127.575 13.5883 127.538 13.5834C127.497 13.5793 123.405 13.3023 118.168 19.3786C117.609 20.0295 116.824 20.3763 115.969 20.3763Z" fill="#051C2C"/>
<path d="M121.096 25.469C121.07 25.469 121.046 25.455 121.034 25.4304L118.055 19.3647C118.038 19.331 118.052 19.2899 118.086 19.2735C118.12 19.2571 118.161 19.271 118.178 19.3047L121.157 25.3704C121.173 25.4041 121.159 25.4451 121.125 25.4616C121.116 25.4665 121.106 25.469 121.096 25.469Z" fill="#051C2C"/>
<path d="M105.827 4.36059C105.814 4.36059 105.802 4.3573 105.789 4.34908C105.758 4.32854 105.749 4.2858 105.769 4.25458C105.814 4.18637 106.881 2.59292 108.419 2.54772C109.351 2.52224 110.246 3.07366 111.081 4.19212C111.103 4.22253 111.097 4.26526 111.067 4.28745C111.036 4.30964 110.993 4.30388 110.971 4.27348C110.165 3.19282 109.304 2.6562 108.423 2.68414C106.955 2.72687 105.895 4.31374 105.884 4.32936C105.871 4.3499 105.85 4.36059 105.827 4.36059Z" fill="#051C2C"/>
<path d="M118.948 46.941C118.91 46.941 118.88 46.9106 118.88 46.8728V43.5487C118.88 43.5109 118.91 43.4805 118.948 43.4805C118.986 43.4805 119.017 43.5109 119.017 43.5487V46.8728C119.017 46.9098 118.986 46.941 118.948 46.941Z" fill="#051C2C"/>
<path d="M146.2 58.0868C146.185 58.0868 146.169 58.0819 146.157 58.0712L145.094 57.2116C144.44 56.6824 143.511 56.6117 142.783 57.0341L141.763 57.6266C141.457 57.8041 141.078 57.7811 140.797 57.5691C140.566 57.3957 140.437 57.1204 140.452 56.8336C140.467 56.5468 140.623 56.2855 140.869 56.1359L142.344 55.2418C142.529 54.6575 142.754 54.1636 142.812 54.0403C138.195 44.3136 135.919 26.1973 135.896 26.0148C135.891 25.977 135.919 25.9433 135.956 25.9392C135.993 25.9335 136.028 25.9614 136.032 25.9984C136.054 26.1808 138.332 44.312 142.949 54.0116C142.958 54.0305 142.958 54.0518 142.949 54.0699C142.946 54.0757 142.678 54.6328 142.467 55.3075C142.462 55.3231 142.452 55.3371 142.437 55.3453L140.94 56.2526C140.73 56.3808 140.601 56.5944 140.589 56.8402C140.576 57.0859 140.682 57.3119 140.878 57.4606C141.116 57.6398 141.436 57.6587 141.693 57.5091L142.713 56.9166C143.49 56.4663 144.481 56.5419 145.18 57.1064L146.243 57.966C146.272 57.9898 146.277 58.0326 146.253 58.0622C146.239 58.0786 146.22 58.0868 146.2 58.0868Z" fill="#051C2C"/>
<path d="M136.225 27.9767C136.193 27.9767 136.164 27.9537 136.158 27.9216C136.151 27.8846 136.175 27.8485 136.213 27.8419L143.972 26.3693C144.008 26.3627 144.045 26.3865 144.052 26.4235C144.059 26.4605 144.035 26.4966 143.997 26.5032L136.238 27.9759C136.234 27.9759 136.229 27.9767 136.225 27.9767Z" fill="#051C2C"/>
<path d="M137.378 43.6163C137.377 43.6163 137.375 43.6163 137.375 43.6163C137.337 43.6147 137.308 43.5826 137.309 43.5448L137.666 36.6451C137.668 36.6073 137.694 36.5785 137.738 36.5801C137.776 36.5818 137.805 36.6138 137.803 36.6516L137.446 43.5514C137.445 43.5875 137.414 43.6163 137.378 43.6163Z" fill="#051C2C"/>
<path d="M26.9196 204.329C26.9105 204.329 26.9006 204.328 26.8923 204.323C26.8577 204.309 26.842 204.268 26.8577 204.234L45.2045 162.83C45.2193 162.795 45.2606 162.78 45.2945 162.795C45.3292 162.81 45.3449 162.851 45.3292 162.885L26.9832 204.289C26.9716 204.314 26.946 204.329 26.9196 204.329Z" fill="#051C2C"/>
<path d="M55.5947 139.618C55.5856 139.618 55.5757 139.617 55.5675 139.613C55.5328 139.598 55.5171 139.557 55.5328 139.523L65.231 117.636C65.2466 117.602 65.2871 117.586 65.321 117.602C65.3557 117.617 65.3713 117.658 65.3557 117.691L55.6575 139.578C55.6459 139.603 55.6211 139.618 55.5947 139.618Z" fill="#051C2C"/>
<path d="M66.8124 113.716C66.8017 113.716 66.7909 113.713 66.781 113.708C66.7471 113.691 66.7339 113.65 66.7513 113.616L74.66 98.2881C74.6773 98.2545 74.7186 98.2413 74.7525 98.2586C74.7863 98.2758 74.7995 98.3169 74.7822 98.3506L66.8735 113.679C66.8611 113.702 66.8372 113.716 66.8124 113.716Z" fill="#051C2C"/>
<path d="M42.5809 211.485C42.5718 211.485 42.5619 211.484 42.5537 211.48C42.519 211.465 42.5033 211.425 42.519 211.39L88.81 106.922C88.8249 106.888 88.8662 106.872 88.9 106.888C88.9347 106.903 88.9504 106.944 88.9347 106.977L42.6437 211.445C42.6321 211.471 42.6073 211.485 42.5809 211.485Z" fill="#051C2C"/>
<path d="M86.5531 112.25C86.5415 112.25 86.53 112.248 86.5192 112.241L71.6829 103.895C71.6499 103.876 71.6383 103.835 71.6573 103.802C71.6763 103.769 71.7176 103.758 71.7507 103.777L86.587 112.123C86.62 112.142 86.6316 112.183 86.6126 112.216C86.6002 112.238 86.5771 112.25 86.5531 112.25Z" fill="#051C2C"/>
<path d="M81.6222 122.845C81.6099 122.845 81.5975 122.842 81.5867 122.836L72.9117 117.545C72.8795 117.525 72.8696 117.483 72.8894 117.451C72.9092 117.419 72.9513 117.409 72.9836 117.429L81.6586 122.72C81.6908 122.739 81.7007 122.781 81.6809 122.813C81.6685 122.833 81.6454 122.845 81.6222 122.845Z" fill="#051C2C"/>
<path d="M77.0334 133.734C77.021 133.734 77.0086 133.73 76.9979 133.724L62.1723 124.682C62.1401 124.662 62.1302 124.62 62.15 124.588C62.1698 124.556 62.2119 124.546 62.2441 124.566L77.0697 133.607C77.1019 133.627 77.1118 133.669 77.092 133.701C77.0796 133.722 77.0565 133.734 77.0334 133.734Z" fill="#051C2C"/>
<path d="M72.152 144.751C72.1396 144.751 72.1273 144.748 72.1165 144.742L57.2909 135.7C57.2587 135.681 57.2488 135.639 57.2686 135.607C57.2884 135.575 57.3306 135.565 57.3628 135.584L72.1884 144.626C72.2206 144.645 72.2305 144.687 72.2107 144.719C72.1974 144.74 72.1751 144.751 72.152 144.751Z" fill="#051C2C"/>
<path d="M67.3946 155.247C67.3822 155.247 67.3698 155.244 67.359 155.237L58.8558 150.052C58.8236 150.032 58.8137 149.99 58.8335 149.958C58.8533 149.926 58.8954 149.916 58.9276 149.936L67.4309 155.121C67.4631 155.141 67.473 155.183 67.4532 155.215C67.44 155.236 67.4177 155.247 67.3946 155.247Z" fill="#051C2C"/>
<path d="M62.6223 165.743C62.6099 165.743 62.5975 165.739 62.586 165.733L58.4363 163.163C58.4041 163.143 58.3942 163.101 58.414 163.069C58.4338 163.037 58.4768 163.028 58.5082 163.047L62.6578 165.617C62.69 165.637 62.6999 165.679 62.6801 165.711C62.6677 165.731 62.6454 165.743 62.6223 165.743Z" fill="#051C2C"/>
<path d="M58.4561 175.679C58.4437 175.679 58.4313 175.676 58.4206 175.669L54.982 173.572C54.9498 173.553 54.9398 173.511 54.9597 173.479C54.9795 173.447 55.0216 173.437 55.0538 173.456L58.4933 175.554C58.5255 175.573 58.5354 175.615 58.5156 175.647C58.5015 175.668 58.4792 175.679 58.4561 175.679Z" fill="#051C2C"/>
<path d="M45.5274 167.793C45.515 167.793 45.5026 167.79 45.4919 167.783L43.5884 166.622C43.5562 166.602 43.5463 166.56 43.5661 166.528C43.5859 166.496 43.628 166.487 43.6603 166.506L45.5637 167.667C45.5959 167.687 45.6058 167.729 45.586 167.761C45.5728 167.782 45.5505 167.793 45.5274 167.793Z" fill="#051C2C"/>
<path d="M54.2528 185.427C54.2404 185.427 54.2288 185.424 54.2173 185.418L39.3851 176.559C39.3529 176.54 39.3421 176.498 39.362 176.466C39.381 176.434 39.4231 176.423 39.4561 176.442L54.2883 185.3C54.3205 185.32 54.3312 185.362 54.3114 185.394C54.299 185.415 54.2759 185.427 54.2528 185.427Z" fill="#051C2C"/>
<path d="M50.1593 194.382C50.1469 194.382 50.1353 194.378 50.1238 194.372L35.1297 185.417C35.0975 185.397 35.0868 185.355 35.1066 185.323C35.1264 185.291 35.1677 185.28 35.2007 185.299L50.1956 194.254C50.2278 194.274 50.2386 194.316 50.2187 194.348C50.2055 194.37 50.1832 194.382 50.1593 194.382Z" fill="#051C2C"/>
<path d="M45.6538 204.552C45.6414 204.552 45.6298 204.549 45.6183 204.542L30.7274 195.649C30.6952 195.629 30.6845 195.587 30.7043 195.555C30.7241 195.523 30.7654 195.511 30.7985 195.531L45.6893 204.425C45.7215 204.444 45.7322 204.486 45.7124 204.518C45.6992 204.54 45.6769 204.552 45.6538 204.552Z" fill="#051C2C"/>
<path d="M60.4893 137.07C60.4893 137.07 62.7519 137.622 64.1682 135.575L78.1143 106.94L76.4718 106.081L60.4893 137.07Z" fill="#F5F5F5"/>
<path d="M77.0705 106.377L78.5437 103.369C83.8966 104.749 89.6615 102.242 92.1785 97.1045C95.0515 91.2402 92.603 84.1688 86.7101 81.3106C80.8171 78.4516 73.7111 80.8882 70.839 86.7525C68.3228 91.8895 69.8902 97.9534 74.2793 101.3L72.8061 104.308L77.0705 106.377ZM73.0513 87.8257C75.328 83.1777 80.9608 81.2465 85.6316 83.5121C90.3023 85.7778 92.2437 91.3832 89.9662 96.0313C87.6895 100.679 82.0567 102.611 77.3859 100.345C72.7152 98.0784 70.7746 92.4746 73.0513 87.8257Z" fill="#051C2C"/>
<path d="M94.9995 152.492C104.794 160.983 98.6966 206.65 98.6966 206.65H92.1496L91.0381 164.179L85.0122 206.65L79.9468 206.529C79.7023 175.948 87.8868 152.492 87.8868 152.492H94.9995Z" fill="#FF9F00"/>
<path d="M95.9598 135.193C95.9334 135.193 95.9078 135.177 95.8971 135.151C95.8822 135.117 95.8979 135.077 95.9326 135.062C96.0044 135.031 97.6767 134.28 96.9871 131.99C96.2951 129.694 93.9168 129.957 93.8928 129.96C93.8549 129.965 93.821 129.938 93.8169 129.901C93.8119 129.864 93.8392 129.83 93.8763 129.825C93.9011 129.821 96.3934 129.545 97.1184 131.951C97.8443 134.359 96.0061 135.179 95.9871 135.187C95.978 135.191 95.9681 135.193 95.9598 135.193Z" fill="#051C2C"/>
<path d="M90.3353 135.938C89.3336 135.938 88.5194 135.127 88.5194 134.131V132.175C88.5194 132.137 88.55 132.106 88.5879 132.106C88.6259 132.106 88.6565 132.137 88.6565 132.175V134.131C88.6565 135.052 89.4096 135.801 90.3353 135.801C91.2611 135.801 92.0142 135.052 92.0142 134.131V132.175C92.0142 132.137 92.0447 132.106 92.0827 132.106C92.1207 132.106 92.1513 132.137 92.1513 132.175V134.131C92.1513 135.127 91.337 135.938 90.3353 135.938Z" fill="#051C2C"/>
<path d="M93.5369 129.341C93.5369 129.341 97.4784 130.282 96.4016 134.6C96.4016 134.6 92.7012 133.946 92.0835 134.131V132.175C92.0835 132.175 92.745 132.048 93.2578 130.978C93.475 130.523 93.5369 129.341 93.5369 129.341Z" fill="#051C2C"/>
<path d="M87.1932 129.341C87.1932 129.341 83.3416 130.806 84.4185 135.125C84.4185 135.125 88.0297 133.946 88.6474 134.131V132.175C88.6474 132.175 87.9859 132.048 87.4731 130.978C87.2551 130.523 87.1932 129.341 87.1932 129.341Z" fill="#051C2C"/>
<path d="M94.7013 128.506C94.6674 128.506 94.6377 128.482 94.6336 128.447C94.5964 128.159 94.494 127.957 94.3313 127.848C94.1166 127.705 93.8623 127.771 93.859 127.772C93.8226 127.782 93.7847 127.76 93.7748 127.724C93.7648 127.688 93.7863 127.65 93.8226 127.64C93.835 127.636 94.1381 127.557 94.4057 127.734C94.6038 127.865 94.7269 128.1 94.7698 128.43C94.7748 128.467 94.7484 128.501 94.7104 128.506C94.7071 128.506 94.7046 128.506 94.7013 128.506Z" fill="#051C2C"/>
<path d="M93.8846 128.801C93.8788 128.801 93.8739 128.8 93.8681 128.799C93.8318 128.79 93.8086 128.753 93.8177 128.717C93.9631 128.129 94.4817 127.899 94.504 127.889C94.5386 127.875 94.5791 127.89 94.594 127.925C94.6088 127.959 94.5931 127.999 94.5585 128.014C94.5535 128.017 94.0795 128.228 93.9507 128.749C93.9432 128.78 93.9152 128.801 93.8846 128.801Z" fill="#051C2C"/>
<path d="M93.916 129.446C93.6997 129.446 93.5362 129.411 93.5213 129.408C93.4841 129.4 93.461 129.364 93.4693 129.327C93.4775 129.29 93.5139 129.267 93.551 129.275C93.5576 129.276 94.2571 129.424 94.6535 129.089C94.8533 128.921 94.9458 128.654 94.9276 128.295C94.9086 127.915 94.7881 127.648 94.5701 127.501C94.1852 127.244 93.6154 127.439 93.6097 127.441C93.5741 127.453 93.5345 127.435 93.5221 127.399C93.5097 127.363 93.5287 127.324 93.5642 127.312C93.5907 127.303 94.2051 127.092 94.6469 127.387C94.9029 127.558 95.0441 127.861 95.0655 128.287C95.0853 128.69 94.9772 128.995 94.7426 129.192C94.499 129.398 94.1712 129.446 93.916 129.446Z" fill="#051C2C"/>
<path d="M85.9643 128.506C85.961 128.506 85.9585 128.506 85.9552 128.505C85.918 128.5 85.8916 128.466 85.8957 128.429C85.9387 128.098 86.0609 127.864 86.2599 127.733C86.5275 127.556 86.8297 127.636 86.8429 127.639C86.8793 127.649 86.9008 127.687 86.8908 127.723C86.8809 127.759 86.8438 127.78 86.8066 127.77C86.8041 127.77 86.549 127.704 86.3342 127.847C86.1707 127.955 86.0692 128.157 86.032 128.446C86.0279 128.481 85.999 128.506 85.9643 128.506Z" fill="#051C2C"/>
<path d="M86.7819 128.801C86.7513 128.801 86.7232 128.78 86.7158 128.749C86.587 128.228 86.113 128.016 86.108 128.014C86.0733 127.999 86.0576 127.959 86.0725 127.925C86.0874 127.89 86.1278 127.875 86.1625 127.889C86.1848 127.899 86.7026 128.129 86.8487 128.717C86.8578 128.753 86.8355 128.79 86.7984 128.799C86.7926 128.8 86.7868 128.801 86.7819 128.801Z" fill="#051C2C"/>
<path d="M86.7497 129.445C86.4945 129.445 86.1666 129.397 85.9239 129.193C85.6893 128.996 85.5803 128.691 85.601 128.288C85.6224 127.862 85.7628 127.559 86.0197 127.388C86.4615 127.093 87.0758 127.304 87.1023 127.313C87.1378 127.325 87.1568 127.364 87.1444 127.4C87.132 127.435 87.0932 127.454 87.0569 127.442C87.0511 127.44 86.4796 127.245 86.0956 127.502C85.8776 127.649 85.7571 127.915 85.7381 128.295C85.7199 128.654 85.8124 128.921 86.013 129.089C86.4103 129.424 87.1081 129.277 87.1155 129.275C87.1518 129.267 87.189 129.29 87.1972 129.327C87.2055 129.364 87.1824 129.4 87.1452 129.408C87.1295 129.411 86.966 129.445 86.7497 129.445Z" fill="#051C2C"/>
<path d="M91.1892 126.634C91.171 126.634 91.1529 126.626 91.1396 126.612C91.1132 126.585 91.114 126.542 91.1421 126.516C91.6772 126.007 92.2082 126.385 92.2132 126.389C92.2437 126.411 92.2503 126.454 92.228 126.484C92.2057 126.515 92.1628 126.521 92.1323 126.499C92.1141 126.486 91.6871 126.186 91.2371 126.615C91.2239 126.627 91.2065 126.634 91.1892 126.634Z" fill="#051C2C"/>
<path d="M89.2865 126.587C89.2683 126.587 89.251 126.581 89.2378 126.567C89.2221 126.551 88.8505 126.185 88.3352 126.535C88.3038 126.557 88.2617 126.549 88.2402 126.517C88.2188 126.486 88.227 126.444 88.2584 126.423C88.8703 126.007 89.3319 126.467 89.3361 126.472C89.3625 126.499 89.3617 126.542 89.3344 126.568C89.3212 126.581 89.3039 126.587 89.2865 126.587Z" fill="#051C2C"/>
<path d="M90.2742 132.853C89.9744 132.853 89.6747 132.785 89.3964 132.648L88.4351 132.176C87.7043 131.817 87.2212 131.092 87.1741 130.282L86.9958 126.926C86.947 126.005 87.2716 125.13 87.9091 124.46C88.5466 123.791 89.4087 123.422 90.3353 123.422C91.2618 123.422 92.124 123.79 92.7615 124.46C93.399 125.129 93.7236 126.005 93.6748 126.926L93.4981 130.25C93.4502 131.08 92.9498 131.815 92.1925 132.166L92.1636 132.104L92.1925 132.166L91.1124 132.667C90.8456 132.79 90.5599 132.853 90.2742 132.853ZM90.3353 123.557C89.4467 123.557 88.6201 123.911 88.0082 124.553C87.3963 125.194 87.0858 126.034 87.132 126.918L87.3104 130.274C87.355 131.034 87.8083 131.716 88.4954 132.053L89.4566 132.525C89.962 132.773 90.5442 132.78 91.0546 132.542L92.1347 132.041C92.8466 131.71 93.3164 131.021 93.3619 130.241L93.5386 126.917C93.5856 126.034 93.2743 125.194 92.6624 124.552C92.0505 123.911 91.2239 123.557 90.3353 123.557Z" fill="#051C2C"/>
<path d="M92.0513 121.603C91.3097 121.379 89.7266 121.32 88.8414 121.537L88.7167 121.572C88.7167 121.572 85.6662 122.048 86.3945 127.3L86.9082 127.333C86.9082 127.333 89.227 126.202 91.0818 124.368C91.5426 125.039 92.4171 126.732 93.5873 127.377L94.1752 127.297C94.1752 127.296 95.1852 122.547 92.0513 121.603Z" fill="#051C2C"/>
<path d="M93.5873 127.445C93.5815 127.445 93.5758 127.444 93.57 127.443C91.4601 126.893 91.0306 123.834 91.0306 123.805C91.0306 123.767 91.0612 123.736 91.0992 123.736C91.1363 123.736 91.1669 123.766 91.1677 123.803C91.1719 123.848 91.5823 126.784 93.6047 127.31C93.641 127.32 93.6633 127.357 93.6534 127.393C93.6459 127.425 93.6179 127.445 93.5873 127.445ZM91.1677 123.805H91.1694H91.1677Z" fill="#051C2C"/>
<path d="M90.4765 137.022C90.4765 137.175 90.3989 137.3 90.3039 137.3C90.2082 137.3 90.1313 137.175 90.1313 137.022C90.1313 136.868 90.209 136.743 90.3039 136.743C90.3997 136.743 90.4765 136.867 90.4765 137.022Z" fill="#051C2C"/>
<path d="M90.4765 139.068C90.4765 139.221 90.3989 139.346 90.3039 139.346C90.2082 139.346 90.1313 139.221 90.1313 139.068C90.1313 138.914 90.209 138.789 90.3039 138.789C90.3997 138.789 90.4765 138.913 90.4765 139.068Z" fill="#051C2C"/>
<path d="M94.0547 211.74L92.7953 214.095H98.1019L96.1985 211.74C96.1985 211.74 96.1993 212.874 95.2397 212.918C94.1389 212.968 94.0547 211.74 94.0547 211.74Z" fill="#051C2C"/>
<path d="M96.1993 211.809C96.1952 211.809 96.1902 211.808 96.1853 211.807C96.1481 211.8 96.1242 211.763 96.1316 211.726C96.1357 211.707 96.5362 209.726 97.0697 206.639C97.0763 206.602 97.1118 206.577 97.149 206.583C97.1862 206.589 97.2118 206.625 97.2052 206.662C96.6717 209.752 96.2703 211.734 96.267 211.754C96.2596 211.786 96.2315 211.809 96.1993 211.809Z" fill="#051C2C"/>
<path d="M94.0547 211.808C94.0167 211.808 93.9862 211.777 93.9862 211.74C93.9862 211.72 93.9853 209.77 93.9284 206.652C93.9275 206.614 93.9581 206.583 93.9952 206.583C93.9961 206.583 93.9961 206.583 93.9969 206.583C94.0341 206.583 94.0646 206.613 94.0654 206.65C94.1232 209.769 94.1232 211.721 94.1232 211.741C94.1232 211.778 94.0927 211.808 94.0547 211.808Z" fill="#051C2C"/>
<path d="M101.054 150.677C100.436 150.677 100.01 150.618 99.9988 150.616C99.9625 150.611 99.9369 150.578 99.9402 150.543C99.9435 150.507 100.252 146.88 99.3398 145.958C99.3208 145.939 99.3151 145.911 99.3241 145.887C99.3332 145.862 99.3563 145.845 99.3828 145.842L102.689 145.572C102.727 145.57 102.76 145.597 102.763 145.634C102.766 145.672 102.738 145.705 102.7 145.708L99.5281 145.968C100.319 146.994 100.121 149.992 100.081 150.49C100.546 150.544 103.417 150.808 104.921 149.302C105.723 148.498 106.012 147.318 105.779 145.796C104.785 139.298 101.119 136.492 98.2176 135.282C95.0696 133.969 92.1174 134.197 92.0876 134.199C92.0513 134.203 92.0166 134.175 92.0133 134.137C92.01 134.099 92.0381 134.066 92.0761 134.063C92.1058 134.06 95.087 133.829 98.2655 135.154C101.2 136.377 104.911 139.213 105.915 145.775C106.155 147.343 105.853 148.562 105.017 149.398C103.935 150.482 102.176 150.677 101.054 150.677Z" fill="#051C2C"/>
<path d="M85.0122 206.718C85.0114 206.718 85.0114 206.718 85.0105 206.718L78.1869 206.555C78.1498 206.554 78.12 206.524 78.12 206.488C77.9937 190.685 80.0285 176.84 81.7569 168.009C83.6306 158.439 85.5589 152.531 85.5787 152.472C85.5878 152.444 85.6142 152.425 85.6439 152.425H94.9986C95.0151 152.425 95.0308 152.431 95.044 152.441C97.291 154.389 98.8832 158.455 99.7767 164.526C100.49 169.374 100.764 175.508 100.589 182.756C100.293 195.095 98.7799 206.544 98.7643 206.658C98.7593 206.692 98.7304 206.717 98.6965 206.717H92.1496C92.1124 206.717 92.0819 206.688 92.081 206.651L90.991 164.997L85.0799 206.658C85.0758 206.693 85.0469 206.718 85.0122 206.718ZM92.2165 206.582H98.6363C98.7544 205.675 100.166 194.625 100.452 182.752C100.626 175.511 100.353 169.386 99.6413 164.545C98.7552 158.524 97.1845 154.492 94.9738 152.56H85.6943C85.5085 153.136 83.6752 158.926 81.8915 168.037C80.1664 176.849 78.1366 190.657 78.2571 206.42L84.9536 206.58L90.9712 164.169C90.9761 164.134 91.0092 164.109 91.043 164.111C91.0785 164.112 91.1066 164.142 91.1074 164.177L92.2165 206.582Z" fill="#051C2C"/>
<path d="M91.038 164.247C91.0182 164.247 90.9984 164.238 90.9852 164.221L88.7877 161.538C88.7638 161.509 88.7679 161.466 88.7976 161.442C88.8274 161.418 88.8703 161.423 88.8943 161.452L91.0917 164.135C91.1157 164.164 91.1115 164.207 91.0818 164.231C91.0686 164.242 91.0537 164.247 91.038 164.247Z" fill="#051C2C"/>
<path d="M79.5512 212.366C81.05 213.175 83.406 211.284 83.406 211.284L84.2524 213.953L76.8285 214.095L79.5512 212.366Z" fill="#051C2C"/>
<path d="M83.4068 211.353C83.4052 211.353 83.4027 211.353 83.401 211.353C83.3631 211.35 83.335 211.317 83.3383 211.279L83.7404 206.616C83.7438 206.579 83.776 206.551 83.8148 206.554C83.8528 206.557 83.8808 206.59 83.8775 206.628L83.4754 211.291C83.4712 211.326 83.4415 211.353 83.4068 211.353Z" fill="#051C2C"/>
<path d="M79.5512 212.435C79.5289 212.435 79.5074 212.424 79.4942 212.404C79.4727 212.373 79.4818 212.33 79.5132 212.31L81.42 211.034L79.8823 206.552C79.8699 206.516 79.8889 206.478 79.9253 206.465C79.9608 206.454 80.0004 206.472 80.012 206.508L81.567 211.039C81.5769 211.068 81.5661 211.101 81.5405 211.118L79.59 212.424C79.5776 212.431 79.5644 212.435 79.5512 212.435Z" fill="#051C2C"/>
<path d="M97.8435 147.983H96.5016C96.1647 147.983 95.8905 147.71 95.8905 147.375C95.8905 147.039 96.1647 146.767 96.5016 146.767H98.443C98.481 146.767 98.5116 146.797 98.5116 146.835C98.5116 146.873 98.481 146.903 98.443 146.903H96.5016C96.2398 146.903 96.0276 147.115 96.0276 147.375C96.0276 147.635 96.2398 147.846 96.5016 147.846H97.8435C97.8815 147.846 97.9121 147.877 97.9121 147.915C97.9121 147.952 97.8815 147.983 97.8435 147.983Z" fill="#051C2C"/>
<path d="M97.8436 149.063H96.1375C95.8005 149.063 95.5264 148.79 95.5264 148.455C95.5264 148.12 95.8005 147.847 96.1375 147.847H97.8436C97.8815 147.847 97.9121 147.877 97.9121 147.915C97.9121 147.953 97.8815 147.983 97.8436 147.983H96.1375C95.8757 147.983 95.6635 148.195 95.6635 148.455C95.6635 148.715 95.8765 148.926 96.1375 148.926H97.8436C97.8815 148.926 97.9121 148.957 97.9121 148.995C97.9121 149.033 97.8815 149.063 97.8436 149.063Z" fill="#051C2C"/>
<path d="M98.24 150.143H96.737C96.4001 150.143 96.1259 149.87 96.1259 149.534C96.1259 149.199 96.4001 148.926 96.737 148.926H97.8436C97.8816 148.926 97.9121 148.957 97.9121 148.995C97.9121 149.032 97.8816 149.063 97.8436 149.063H96.737C96.4752 149.063 96.263 149.275 96.263 149.534C96.263 149.795 96.4761 150.006 96.737 150.006H98.24C98.5587 150.006 98.8098 149.873 98.9873 149.611C99.4126 148.982 99.3391 147.681 99.0038 146.86C98.9898 146.826 99.0063 146.786 99.0418 146.772C99.0773 146.758 99.117 146.774 99.131 146.809C99.4778 147.659 99.5654 149.001 99.1013 149.688C98.8973 149.99 98.6074 150.143 98.24 150.143Z" fill="#051C2C"/>
<path d="M84.7595 146.206C84.7265 146.206 84.6984 146.183 84.6918 146.15C84.686 146.118 84.1237 142.905 84.4556 140.4C84.4606 140.363 84.4944 140.336 84.5324 140.342C84.5696 140.347 84.596 140.381 84.591 140.418C84.2616 142.902 84.8206 146.095 84.8264 146.127C84.833 146.164 84.8082 146.199 84.7711 146.206C84.7669 146.205 84.7636 146.206 84.7595 146.206Z" fill="#051C2C"/>
<path d="M100.237 145.909C100.209 145.909 100.182 145.892 100.172 145.864C99.0483 142.739 95.3207 141.033 95.2835 141.016C95.2488 141 95.234 140.96 95.2488 140.926C95.2645 140.891 95.305 140.876 95.3397 140.892C95.3777 140.909 99.1582 142.637 100.301 145.818C100.313 145.853 100.295 145.893 100.26 145.905C100.252 145.908 100.244 145.909 100.237 145.909Z" fill="#051C2C"/>
<path d="M96.7195 146.207C96.7154 146.207 96.7121 146.207 96.7079 146.206C96.6708 146.199 96.6452 146.164 96.6518 146.127L97.3174 142.222C97.324 142.185 97.3587 142.16 97.3967 142.166C97.4338 142.172 97.4594 142.208 97.4528 142.245L96.7872 146.15C96.7815 146.183 96.7525 146.207 96.7195 146.207Z" fill="#051C2C"/>
<path d="M81.2193 149.817C80.9675 149.817 80.7131 149.792 80.4571 149.739C75.518 148.739 71.3469 138.285 71.3056 138.18C71.2949 138.152 71.3031 138.12 71.3271 138.102L74.1373 135.896C74.1513 135.885 74.1703 135.88 74.1885 135.882C74.2066 135.885 74.2231 135.895 74.2347 135.909L80.3894 144.025C81.1467 140.558 82.6529 136.158 85.5523 134.539C87.2551 133.589 88.6144 134.046 88.6714 134.066C88.7069 134.078 88.7259 134.118 88.7135 134.153C88.7011 134.189 88.6623 134.207 88.6259 134.195C88.6127 134.19 87.2634 133.738 85.6151 134.661C82.7223 136.28 81.2325 140.741 80.4918 144.199C80.486 144.225 80.4654 144.246 80.4398 144.251C80.4134 144.257 80.3861 144.247 80.3704 144.226L74.1678 136.047L71.4526 138.178C71.7623 138.942 75.7872 148.655 80.4852 149.606C81.8453 149.881 83.1525 149.394 84.3706 148.157C84.397 148.13 84.4408 148.13 84.4672 148.157C84.4945 148.183 84.4945 148.226 84.468 148.253C83.4424 149.293 82.3532 149.817 81.2193 149.817Z" fill="#051C2C"/>
<path d="M72.0967 137.652C72.0736 137.652 72.0505 137.64 72.0381 137.619L71.005 135.91C70.4352 134.903 70.2246 133.743 70.4104 132.64C70.4922 132.157 70.7011 131.806 70.9076 131.806C70.9678 131.806 71.0232 131.83 71.0702 131.88C71.365 132.182 71.3328 133.457 71.3279 133.602C71.3271 133.64 71.2949 133.67 71.2569 133.668C71.2189 133.667 71.1892 133.635 71.1908 133.597C71.2032 133.221 71.1867 132.195 70.9711 131.974C70.9431 131.945 70.9208 131.942 70.9067 131.942C70.8085 131.942 70.6226 132.198 70.5442 132.663C70.3633 133.735 70.569 134.864 71.1223 135.841L72.1537 137.549C72.1735 137.581 72.1628 137.623 72.1306 137.643C72.1215 137.649 72.1091 137.652 72.0967 137.652Z" fill="#051C2C"/>
<path d="M73.5584 136.47C73.5352 136.47 73.5129 136.458 73.4997 136.438L73.1166 135.823C73.1042 135.803 73.1025 135.78 73.1124 135.758C73.1223 135.738 73.1422 135.723 73.1645 135.72C73.5856 135.66 73.8829 135.503 74.0456 135.254C74.2653 134.921 74.2091 134.485 74.1232 134.179C74.105 134.115 74.0563 134.066 73.9911 134.05C73.925 134.032 73.8573 134.05 73.8094 134.099C73.7516 134.156 73.7153 134.218 73.7021 134.281C73.6104 134.726 73.4345 134.94 73.1727 134.921C72.8696 134.897 72.7317 134.765 72.6706 134.659C72.5823 134.507 72.5847 134.302 72.6764 134.11C72.9968 133.547 73.3321 133.643 73.5774 133.714C73.669 133.74 73.7475 133.763 73.8045 133.746C73.859 133.729 73.9044 133.684 73.9325 133.619C73.9729 133.524 73.968 133.402 73.9201 133.309C73.8334 133.141 73.4717 133.004 73.1901 133.034C72.2825 133.13 72.1074 133.857 72.1058 133.865C72.0975 133.9 72.0637 133.924 72.0281 133.917C71.9926 133.912 71.967 133.879 71.9712 133.843C72.0612 132.981 72.1206 131.616 71.915 131.39C71.8977 131.371 71.8853 131.371 71.8803 131.371C71.6689 131.371 71.3997 132.04 71.2758 132.515C71.2659 132.552 71.2288 132.574 71.1924 132.564C71.1561 132.555 71.1338 132.517 71.1437 132.481C71.1982 132.273 71.4881 131.233 71.8812 131.233C71.9167 131.233 71.9687 131.245 72.0174 131.297C72.2594 131.565 72.1941 132.824 72.1421 133.479C72.3064 133.24 72.6153 132.957 73.176 132.898C73.4849 132.865 73.9168 133 74.0431 133.246C74.1092 133.376 74.1158 133.539 74.0596 133.671C74.0159 133.774 73.9399 133.846 73.8457 133.875C73.7508 133.903 73.6484 133.875 73.5402 133.843C73.3057 133.776 73.0629 133.706 72.7986 134.171C72.7449 134.284 72.7127 134.456 72.7904 134.589C72.8564 134.702 72.9894 134.768 73.1851 134.784C73.3643 134.798 73.494 134.619 73.5691 134.253C73.5873 134.164 73.636 134.079 73.7136 134.002C73.7962 133.919 73.9135 133.888 74.0274 133.917C74.1397 133.947 74.2256 134.031 74.2562 134.142C74.3495 134.475 74.4081 134.953 74.1612 135.329C73.9894 135.591 73.6954 135.761 73.2867 135.838L73.6153 136.366C73.6352 136.398 73.6253 136.44 73.593 136.46C73.5831 136.467 73.5708 136.47 73.5584 136.47Z" fill="#051C2C"/>
<path d="M72.4493 135.684C72.4245 135.684 72.4006 135.671 72.3882 135.647C72.0224 134.943 71.5029 134.93 71.4807 134.93C71.4427 134.93 71.4121 134.899 71.4121 134.862C71.4121 134.824 71.4427 134.794 71.4807 134.794C71.5063 134.794 72.1033 134.803 72.5096 135.584C72.5269 135.618 72.5137 135.659 72.4799 135.676C72.4708 135.681 72.4601 135.684 72.4493 135.684Z" fill="#051C2C"/>
<path d="M72.3081 135.454C72.3015 135.454 72.2941 135.453 72.2874 135.45C72.2511 135.439 72.2313 135.4 72.2429 135.365C72.4526 134.71 73.1793 134.782 73.1868 134.783C73.2247 134.787 73.2512 134.821 73.247 134.858C73.2429 134.895 73.2091 134.923 73.1719 134.919C73.1463 134.915 72.5492 134.859 72.3733 135.406C72.3643 135.435 72.337 135.454 72.3081 135.454Z" fill="#051C2C"/>
<path d="M96.7378 150.075C96.438 150.075 96.1952 149.833 96.1952 149.535C96.1952 149.236 96.438 148.995 96.7378 148.995H96.1382C95.8385 148.995 95.5957 148.753 95.5957 148.455C95.5957 148.156 95.8385 147.915 96.1382 147.915H96.5024C96.2026 147.915 95.9599 147.673 95.9599 147.375C95.9599 147.077 96.2026 146.835 96.5024 146.835H97.6395V143.864H84.4374V152.493H97.6395V150.075H96.7378Z" fill="#F2817F"/>
<path d="M91.6252 127.278C91.6252 127.446 91.7094 127.582 91.8143 127.582C91.9183 127.582 92.0034 127.445 92.0034 127.278C92.0034 127.11 91.9192 126.974 91.8143 126.974C91.7094 126.973 91.6252 127.109 91.6252 127.278Z" fill="#051C2C"/>
<path d="M88.7935 127.582C88.898 127.582 88.9827 127.446 88.9827 127.278C88.9827 127.11 88.898 126.974 88.7935 126.974C88.6891 126.974 88.6044 127.11 88.6044 127.278C88.6044 127.446 88.6891 127.582 88.7935 127.582Z" fill="#051C2C"/>
<path d="M90.3254 129.361C90.1396 129.361 89.9761 129.289 89.9653 129.284C89.9306 129.268 89.9158 129.228 89.9315 129.193C89.9472 129.159 89.9876 129.144 90.0223 129.16C90.0256 129.161 90.3444 129.302 90.5442 129.165C90.5756 129.144 90.6185 129.152 90.6392 129.183C90.6606 129.215 90.6524 129.257 90.621 129.278C90.5302 129.34 90.4245 129.361 90.3254 129.361Z" fill="#051C2C"/>
<path d="M89.2056 130.435C89.6862 130.623 90.5508 130.847 91.3692 130.476C91.5162 130.409 91.6706 130.564 91.6037 130.711C91.4328 131.086 91.062 131.56 90.2849 131.56C89.55 131.56 89.1652 131.059 88.9794 130.68C88.9083 130.533 89.0545 130.375 89.2056 130.435Z" fill="#051C2C"/>
<path d="M90.3221 130.994C90.4484 130.988 90.5781 130.984 90.6978 131.025C90.7837 131.054 90.8712 131.125 90.8597 131.215C90.8506 131.287 90.7804 131.336 90.7135 131.366C90.4509 131.485 90.142 131.477 89.8695 131.385C89.7357 131.34 89.488 131.18 89.706 131.075C89.8803 130.992 90.1338 131.002 90.3221 130.994Z" fill="#051C2C"/>
<path d="M86.5812 148.033C86.5812 148.291 86.3715 148.499 86.1122 148.499C85.8537 148.499 85.6439 148.291 85.6439 148.033C85.6439 147.776 85.8537 147.567 86.1122 147.567C86.3715 147.567 86.5812 147.776 86.5812 148.033Z" fill="white"/>
<path d="M50.4871 181.122C49.0263 181.996 46.5877 180.212 46.5877 180.212L45.8618 182.916L53.2841 182.728L50.4871 181.122Z" fill="#051C2C"/>
<path d="M54.1677 172.448L45.8263 172.394C45.79 172.394 45.7611 172.366 45.7586 172.33L44.2655 149.372L34.9076 136.684C33.2023 134.371 32.8101 131.309 33.8844 128.691C35.1735 125.551 37.3173 122.688 37.3387 122.659C37.361 122.629 37.404 122.623 37.4345 122.645C37.4651 122.667 37.4709 122.71 37.4486 122.741C37.4271 122.769 35.2941 125.619 34.0116 128.742C32.9546 131.317 33.341 134.329 35.0182 136.603L44.3886 149.308C44.396 149.319 44.401 149.331 44.4018 149.344L45.8915 172.258L54.095 172.312L52.4294 147.267L45.9064 130.048C45.9015 130.034 45.9006 130.018 45.9048 130.004L46.586 127.754C46.5968 127.717 46.6348 127.697 46.6711 127.707C46.7074 127.718 46.7281 127.757 46.7173 127.792L46.0427 130.021L52.5615 147.227C52.564 147.234 52.5657 147.241 52.5657 147.247L54.2371 172.376C54.2387 172.395 54.2313 172.414 54.2189 172.427C54.2049 172.441 54.1867 172.448 54.1677 172.448Z" fill="#051C2C"/>
<path d="M46.5869 180.28C46.5506 180.28 46.52 180.251 46.5183 180.214L46.2434 172.331C46.2417 172.294 46.2714 172.262 46.3094 172.261C46.3474 172.261 46.3788 172.289 46.3804 172.326L46.6554 180.209C46.6571 180.247 46.6273 180.278 46.5894 180.28C46.5885 180.28 46.5877 180.28 46.5869 180.28Z" fill="#051C2C"/>
<path d="M50.4862 181.19C50.4747 181.19 50.4631 181.187 50.4524 181.181L48.8 180.257C48.7735 180.242 48.7595 180.211 48.7669 180.181L50.6778 172.313C50.6869 172.276 50.7241 172.254 50.7604 172.262C50.7967 172.272 50.8199 172.309 50.8108 172.345L48.9123 180.163L50.5201 181.061C50.5531 181.08 50.5647 181.121 50.5465 181.154C50.5341 181.177 50.5102 181.19 50.4862 181.19Z" fill="#051C2C"/>
<path d="M55.6988 171.93C55.6864 171.93 55.6732 171.926 55.6616 171.919L54.0678 170.898C54.0389 170.879 54.0282 170.842 54.043 170.812L57.2207 163.893C57.2364 163.859 57.2769 163.844 57.3116 163.86C57.3463 163.875 57.3611 163.916 57.3454 163.95L54.1925 170.815L55.7359 171.805C55.7673 171.825 55.7772 171.867 55.7566 171.899C55.7434 171.918 55.7211 171.93 55.6988 171.93Z" fill="#051C2C"/>
<path d="M54.6442 108.79L49.6811 113.108L51.8067 115.286C51.8067 115.286 51.1626 116.518 48.4689 116.876L45.2598 124.097L38.6575 122.814C38.6575 122.814 42.0144 99.2807 48.0865 100.908C52.1305 101.993 54.6442 108.79 54.6442 108.79Z" fill="#FF9F00"/>
<path d="M45.259 124.166C45.2549 124.166 45.2508 124.166 45.2466 124.165L37.4255 122.705C37.3908 122.698 37.366 122.666 37.3701 122.631C37.3759 122.575 37.9499 116.976 39.4536 111.514C40.3372 108.303 41.3645 105.766 42.5074 103.973C43.9452 101.715 45.5737 100.635 47.3466 100.756C47.3846 100.759 47.4127 100.792 47.4102 100.829C47.4078 100.867 47.3747 100.894 47.3367 100.893C43.4282 100.622 40.9649 106.539 39.5866 111.55C38.172 116.691 37.5807 121.954 37.5138 122.583L45.2194 124.022L48.4061 116.851C48.4161 116.829 48.4375 116.813 48.4615 116.811C48.4854 116.808 50.8769 116.543 51.7498 115.25C51.7713 115.219 51.8134 115.211 51.8448 115.231C51.8762 115.253 51.8844 115.295 51.8638 115.326C51.0074 116.594 48.8471 116.901 48.516 116.941L45.3234 124.126C45.311 124.15 45.2863 124.166 45.259 124.166Z" fill="#051C2C"/>
<path d="M69.6358 116.224C67.8975 116.956 66.2839 117.458 64.79 117.778L57.8393 131.967C56.9672 133.747 57.7104 135.894 59.4991 136.762L59.6965 136.857C60.5157 137.255 61.5041 136.915 61.9038 136.1L71.3246 116.867L69.6358 116.224Z" fill="#FF9F00"/>
<path d="M71.6755 103.721L69.1081 108.962L66.8132 113.647C67.8017 113.703 68.7547 113.724 69.6218 113.692L71.3031 112.082C71.5434 111.852 71.9216 111.843 72.1727 112.062C72.4303 112.286 72.4667 112.672 72.2552 112.94L71.171 114.313L72.4708 114.528L74.3759 110.639L76.5957 106.107L71.6755 103.721Z" fill="#FF9F00"/>
<path d="M49.8389 93.9002C49.8389 93.9002 52.7812 94.0457 54.7268 92.1342C54.7268 92.1342 54.7945 89.6138 51.6812 89.1314C51.5706 89.1281 49.3434 89.0837 48.3904 91.3371C47.4127 93.6488 46.7983 95.9687 46.7983 95.9687C46.7983 95.9687 45.4754 95.2784 45.2284 96.9277L44.6215 97.203C44.6215 97.231 44.6207 97.2581 44.6215 97.2877C44.6215 97.2877 43.1763 98.628 44.9815 100.22C46.7867 101.812 48.7695 100.06 49.2773 99.0808C49.7852 98.1012 49.6572 96.3369 49.4119 95.8191C49.4119 95.8191 47.9552 95.815 48.2492 94.45C48.5432 93.085 49.8389 93.9002 49.8389 93.9002Z" fill="#F5F5F5"/>
<path d="M52.5929 94.8472C52.5524 95.0099 52.6012 95.1627 52.7027 95.1882C52.8043 95.2129 52.9191 95.1011 52.9596 94.9384C53 94.7757 52.9513 94.6228 52.8497 94.5974C52.7482 94.5719 52.6334 94.6837 52.5929 94.8472Z" fill="#051C2C"/>
<path d="M53.5335 94.2978C53.512 94.2978 53.4914 94.2879 53.4782 94.2698C53.465 94.2518 53.1503 93.8368 52.5896 94.1088C52.5558 94.1252 52.5145 94.1112 52.498 94.0776C52.4814 94.0439 52.4955 94.0028 52.5293 93.9864C53.1949 93.6634 53.5847 94.1844 53.5888 94.1901C53.6111 94.2205 53.6037 94.2633 53.574 94.2854C53.5616 94.2937 53.5475 94.2978 53.5335 94.2978Z" fill="#051C2C"/>
<path d="M48.5011 94.7317C48.4928 94.7317 48.4846 94.73 48.4763 94.7268C48.4408 94.7128 48.4234 94.6733 48.4375 94.638C48.5597 94.3282 48.7348 94.1301 48.9594 94.0504C49.2616 93.9428 49.5358 94.0932 49.5474 94.0997C49.5804 94.1178 49.592 94.1597 49.5738 94.1926C49.5556 94.2255 49.5135 94.237 49.4805 94.2189C49.478 94.2173 49.2468 94.0923 49.004 94.1795C48.819 94.246 48.6712 94.4169 48.5655 94.6881C48.5539 94.7153 48.5283 94.7317 48.5011 94.7317Z" fill="#051C2C"/>
<path d="M49.2229 95.2129C49.2221 95.2129 49.2221 95.2129 49.2229 95.2129C49.1849 95.2129 49.1543 95.1824 49.1543 95.1446C49.1552 94.608 48.7472 94.2883 48.7431 94.2859C48.7134 94.2628 48.7076 94.2201 48.7307 94.1905C48.7538 94.1609 48.7968 94.1552 48.8265 94.1782C48.8455 94.193 49.2931 94.5398 49.2914 95.1463C49.2906 95.1825 49.26 95.2129 49.2229 95.2129Z" fill="#051C2C"/>
<path d="M49.4128 95.8861C49.4119 95.8861 49.4111 95.8861 49.4111 95.8861C49.3789 95.8852 48.6233 95.8589 48.2789 95.3848C48.0989 95.1366 48.0675 94.8153 48.1848 94.429C48.3087 94.0206 48.5184 93.7601 48.8091 93.6557C49.3095 93.4757 49.8554 93.8267 49.8777 93.8414C49.9091 93.862 49.9181 93.9047 49.8975 93.9359C49.8769 93.9672 49.8339 93.9762 49.8025 93.9557C49.7976 93.9524 49.2905 93.6269 48.8553 93.7839C48.6084 93.8735 48.4268 94.1036 48.3161 94.4677C48.2121 94.8103 48.2368 95.0922 48.3904 95.3034C48.6943 95.7233 49.4086 95.748 49.4152 95.7488C49.4532 95.7496 49.483 95.7817 49.4821 95.8187C49.4796 95.8573 49.4491 95.8861 49.4128 95.8861Z" fill="#051C2C"/>
<path d="M50.7093 102.48C50.7035 102.48 50.6986 102.479 50.6928 102.478C50.6565 102.469 50.6333 102.432 50.6424 102.396L51.3072 99.7123C51.3163 99.6761 51.3534 99.6531 51.3898 99.6621C51.4261 99.6712 51.4492 99.7081 51.4401 99.7443L50.7754 102.428C50.7679 102.459 50.7407 102.48 50.7093 102.48Z" fill="#051C2C"/>
<path d="M50.8546 99.8467C50.6259 99.8467 50.3963 99.8188 50.1684 99.7629L49.5333 99.606C49.4962 99.5969 49.4739 99.5599 49.483 99.523C49.492 99.486 49.5292 99.4646 49.5664 99.4728L50.2014 99.6298C50.8976 99.8024 51.6201 99.6939 52.2345 99.3257C52.8489 98.9576 53.2833 98.3733 53.4559 97.6797L53.5624 97.254C53.5665 97.2384 53.5765 97.2244 53.5897 97.2145L54.0017 96.9277C54.1273 96.8398 54.1958 96.6968 54.1851 96.5448C54.1743 96.3928 54.086 96.2604 53.9489 96.1914L53.8903 96.1618C53.8605 96.147 53.8465 96.1133 53.8548 96.0821L54.1727 94.9686C54.1859 94.9365 55.1793 92.5591 54.3255 90.8588C53.934 90.0798 53.2131 89.5555 52.1825 89.3007C49.6671 88.6786 48.0106 89.7913 47.2583 92.6068C47.245 92.6553 47.2343 92.6963 47.2252 92.7292C47.1212 93.0924 46.7975 94.3966 46.5439 95.4263C46.5398 95.4444 46.5282 95.46 46.5117 95.4691C46.4952 95.4781 46.4762 95.4806 46.4589 95.4756C45.9576 95.3343 45.5546 95.3803 45.2615 95.612C44.6405 96.1035 44.6908 97.2704 44.6917 97.2819C44.6933 97.3197 44.6644 97.3518 44.6264 97.3534C44.5876 97.3551 44.5562 97.3263 44.5546 97.2885C44.5521 97.2375 44.5009 96.0394 45.1764 95.5052C45.4927 95.2554 45.9138 95.1946 46.4283 95.3252C46.6794 94.3054 46.9915 93.0481 47.0939 92.6906C47.103 92.6585 47.1137 92.6174 47.127 92.5706C47.25 92.1096 47.539 91.0289 48.2889 90.171C49.2319 89.0936 50.5532 88.755 52.2164 89.1668C53.2883 89.4322 54.0397 89.9803 54.4493 90.7964C54.911 91.7168 54.8465 92.8147 54.7103 93.574C54.5641 94.3933 54.3048 95.0056 54.3023 95.0121L54.0034 96.064L54.0108 96.0681C54.1917 96.1585 54.3081 96.3328 54.3222 96.5333C54.337 96.7338 54.2462 96.9228 54.081 97.0379L53.6896 97.3099L53.5897 97.7109C53.408 98.439 52.9522 99.0537 52.3056 99.4408C51.8604 99.7095 51.3608 99.8467 50.8546 99.8467Z" fill="#051C2C"/>
<path d="M52.46 98.5437C52.4493 98.5437 52.4377 98.5413 52.4278 98.5355C52.1 98.3613 51.8151 98.109 51.6037 97.8057C51.5822 97.7745 51.5896 97.7326 51.621 97.7104C51.6524 97.689 51.6945 97.6964 51.7168 97.7277C51.9158 98.0137 52.1842 98.2512 52.493 98.4147C52.5261 98.4328 52.5393 98.4739 52.5211 98.5067C52.5087 98.5306 52.4848 98.5437 52.46 98.5437Z" fill="#051C2C"/>
<path d="M50.9256 94.0236C50.2864 94.0236 49.8372 93.9678 49.8306 93.9669C49.7943 93.962 49.7678 93.93 49.7712 93.893C49.7745 93.856 49.8083 93.8297 49.843 93.8313C49.8736 93.833 52.8183 93.9743 54.6789 92.0859C54.7053 92.0588 54.7482 92.0588 54.7755 92.0851C54.8027 92.1113 54.8027 92.1549 54.7763 92.1812C53.6673 93.307 52.1841 93.7278 51.1329 93.8831C52.2353 93.8601 53.7837 93.6571 54.683 92.7918C54.7103 92.7655 54.754 92.7663 54.7796 92.7934C54.806 92.8205 54.8052 92.8641 54.778 92.8896C53.967 93.6694 52.6631 93.9209 51.7118 93.9941C51.4327 94.0154 51.1659 94.0236 50.9256 94.0236Z" fill="#051C2C"/>
<path d="M46.5877 100.888C45.856 100.888 45.1706 100.578 44.6487 99.9875C44.0335 99.2906 43.8303 98.3776 44.1557 97.7687C44.7973 96.5664 46.1071 96.8647 46.1203 96.868C46.1574 96.877 46.1797 96.914 46.1707 96.9502C46.1616 96.9871 46.1244 97.0093 46.0881 97.0003C46.0385 96.988 44.8684 96.7242 44.2771 97.8319C43.9782 98.3924 44.173 99.2413 44.7519 99.8971C45.4646 100.704 46.501 100.958 47.5266 100.576C50.4103 99.5002 49.3574 95.8736 49.3467 95.8375C49.336 95.8013 49.3566 95.7635 49.3929 95.7528C49.4293 95.7421 49.4673 95.7627 49.478 95.7988C49.4896 95.8366 50.5763 99.5848 47.5745 100.704C47.2434 100.827 46.9114 100.888 46.5877 100.888Z" fill="#051C2C"/>
<path d="M58.4454 164.063C58.4437 164.063 58.4421 164.063 58.4412 164.063L53.5847 163.752C53.5467 163.749 53.5186 163.717 53.5211 163.68C53.5236 163.642 53.555 163.613 53.5938 163.616L58.3793 163.922L58.992 144.702L45.2028 124.135C45.1822 124.104 45.1904 124.061 45.2218 124.041C45.2532 124.02 45.2961 124.028 45.3168 124.059L59.1184 144.644C59.1266 144.656 59.1299 144.67 59.1299 144.685L58.5147 163.997C58.5139 164.016 58.5065 164.033 58.4924 164.045C58.4792 164.057 58.4627 164.063 58.4454 164.063Z" fill="#051C2C"/>
<path d="M55.7351 171.86C55.2627 172.106 54.7111 172.086 54.1752 171.943L54.2041 172.381L51.3476 172.362L51.009 173.372L58.4297 173.632L55.7351 171.86Z" fill="#051C2C"/>
<path d="M60.661 118.29C58.5734 118.29 56.4279 117.913 54.3634 116.944C51.1494 115.436 49.6382 113.168 49.6233 113.146C49.6043 113.117 49.6101 113.079 49.6357 113.057L54.5707 108.764C54.5228 108.662 54.4774 108.559 54.4336 108.454C53.4947 106.189 51.9026 103.176 49.6514 101.692C48.3103 100.808 47.3573 100.891 47.3483 100.892C47.3111 100.895 47.2772 100.868 47.2731 100.831C47.269 100.793 47.2962 100.76 47.3342 100.756C47.3747 100.752 48.3343 100.666 49.7134 101.569C52 103.069 53.6111 106.113 54.56 108.402C55.5369 110.758 57.7137 112.461 60.2423 112.848C62.9328 113.259 66.7348 113.726 69.592 113.626L71.2544 112.034C71.5227 111.777 71.9365 111.767 72.2164 112.011C72.5021 112.259 72.5418 112.686 72.3073 112.983L71.294 114.265L74.2619 114.757C74.2834 114.76 74.3016 114.774 74.3115 114.793C74.3214 114.812 74.3214 114.835 74.3123 114.854L73.0092 117.516C72.9935 117.548 72.9563 117.562 72.9233 117.55L69.6366 116.297C67.1691 117.333 63.989 118.29 60.661 118.29ZM49.772 113.121C50.0098 113.457 51.5086 115.456 54.4295 116.825C57.366 118.202 62.3836 119.203 69.6094 116.161C69.6259 116.155 69.644 116.154 69.6606 116.16L72.9142 117.401L74.1504 114.878L71.1594 114.382C71.1354 114.378 71.1156 114.361 71.1065 114.339C71.0975 114.317 71.1016 114.292 71.1164 114.273L72.2007 112.9C72.3898 112.66 72.3576 112.315 72.1272 112.115C71.901 111.917 71.5665 111.926 71.3502 112.133L69.6688 113.743C69.6564 113.754 69.6407 113.761 69.6234 113.762C66.7529 113.867 62.9262 113.395 60.2217 112.983C57.8054 112.614 55.7037 111.064 54.6318 108.892L49.772 113.121Z" fill="#051C2C"/>
<path d="M78.2051 106.87L71.716 103.723C71.6904 103.711 71.6598 103.721 71.6474 103.747L66.7975 113.648C66.8347 113.65 66.871 113.651 66.9081 113.653L71.7168 103.837L78.1134 106.94L74.2512 114.824L71.986 119.449L64.3019 135.135C63.4423 136.89 61.3076 137.622 59.5445 136.766C57.7806 135.911 57.0456 133.786 57.9053 132.032L64.8998 117.752C64.8577 117.762 64.8139 117.772 64.7718 117.781L57.8128 131.988C56.9284 133.793 57.6848 135.978 59.4991 136.858C61.3134 137.738 63.5092 136.986 64.3936 135.18L74.3346 114.885V114.884L78.2266 106.939C78.2406 106.913 78.2307 106.883 78.2051 106.87Z" fill="#051C2C"/>
<path d="M49.6803 113.177C49.6622 113.177 49.6448 113.17 49.6308 113.156C49.6027 113.127 46.7958 110.235 45.9609 108.829C45.9419 108.797 45.9527 108.755 45.9849 108.735C46.0179 108.716 46.0592 108.727 46.079 108.759C46.9048 110.151 49.701 113.031 49.7291 113.061C49.7555 113.088 49.7546 113.131 49.7274 113.157C49.715 113.17 49.6977 113.177 49.6803 113.177Z" fill="#051C2C"/>
<path d="M63.4547 120.539C63.4538 120.539 63.453 120.539 63.4522 120.539C59.6543 120.404 54.4452 119.551 51.1981 116.244C51.1296 116.175 51.0635 116.107 51.0355 116.087C51.0165 116.085 50.9983 116.076 50.9859 116.06C50.9636 116.029 50.9694 115.986 50.9999 115.964C51.066 115.915 51.1147 115.964 51.2964 116.149C54.5121 119.423 59.6841 120.27 63.4571 120.403C63.4951 120.404 63.5249 120.436 63.5232 120.473C63.5224 120.51 63.4918 120.539 63.4547 120.539Z" fill="#051C2C"/>
<path d="M12.9578 165.351C11.3029 163.74 9.36228 162.282 7.08967 161.837C4.81707 161.393 2.17038 162.211 1.06298 164.235C-0.188103 166.522 0.853231 169.355 2.11753 171.634C5.29934 177.368 9.80573 182.264 14.54 186.817C15.4864 187.726 16.479 188.647 17.7128 189.103C23.7279 191.323 21.5445 181.88 20.8351 179.093C19.518 173.92 16.7961 169.089 12.9578 165.351Z" fill="#00E29D"/>
<path d="M20.2959 190.227C19.7789 190.227 19.1926 190.107 18.5369 189.865C17.2437 189.388 16.2181 188.464 15.1057 187.395C6.94103 179.545 3.68159 174.549 1.75335 171.074C-0.115436 167.705 -0.48622 165.086 0.621178 163.063C1.88383 160.756 4.86992 160.004 7.1673 160.454C9.25244 160.862 11.2657 162.066 13.5037 164.246C17.6029 168.238 20.5345 173.352 21.9813 179.035C22.9797 182.957 23.7741 187.984 21.8921 189.666C21.4726 190.04 20.9392 190.227 20.2959 190.227ZM5.8551 160.466C3.88144 160.466 1.74757 161.291 0.741745 163.129C-0.34088 165.107 0.029079 167.685 1.87392 171.009C5.53552 177.608 10.9197 183.181 15.2015 187.297C16.3023 188.355 17.3164 189.269 18.5848 189.738C20.0035 190.262 21.0853 190.204 21.7997 189.565C23.2283 188.288 23.2448 184.561 21.8475 179.069C20.4074 173.41 17.4881 168.318 13.407 164.344C11.1889 162.184 9.19794 160.991 7.14005 160.588C6.72962 160.507 6.29608 160.466 5.8551 160.466Z" fill="#051C2C"/>
<path d="M22.1514 205.748L22.0144 205.74C22.9731 190.653 17.0571 175.34 6.18872 164.778L6.28451 164.681C17.181 175.269 23.1127 190.622 22.1514 205.748Z" fill="#051C2C"/>
<path d="M21.376 207.072C26.8211 207.072 31.2352 206.383 31.2352 205.534C31.2352 204.684 26.8211 203.995 21.376 203.995C15.9309 203.995 11.5168 204.684 11.5168 205.534C11.5168 206.383 15.9309 207.072 21.376 207.072Z" fill="#051C2C"/>
<path d="M21.376 218.001C16.3114 218.001 13.881 214.606 12.734 211.758C11.4953 208.682 11.4491 205.565 11.4482 205.534C11.4482 205.496 11.478 205.466 11.516 205.465H11.5168C11.5539 205.465 11.5853 205.496 11.5853 205.532C11.5853 205.564 11.6324 208.658 12.862 211.711C13.9934 214.518 16.389 217.863 21.376 217.863C24.244 217.863 26.5389 216.967 28.1955 215.199C31.5524 211.616 31.1708 205.598 31.1667 205.538C31.1642 205.5 31.1923 205.468 31.2303 205.465C31.2683 205.462 31.3005 205.491 31.3038 205.528C31.3079 205.589 31.6936 211.666 28.2962 215.292C26.6116 217.089 24.2837 218.001 21.376 218.001Z" fill="#051C2C"/>
<path d="M21.656 210.662C18.8169 210.662 15.493 210.224 11.909 208.914C11.8735 208.901 11.8554 208.861 11.8686 208.826C11.8818 208.79 11.9214 208.772 11.9569 208.786C22.6023 212.679 30.9363 208.827 31.0197 208.788C31.0536 208.772 31.0948 208.786 31.1114 208.82C31.1279 208.854 31.113 208.895 31.0792 208.911C31.0222 208.938 27.2945 210.662 21.656 210.662Z" fill="#051C2C"/>
<path d="M23.7188 194.176C23.0788 194.176 22.6436 193.986 22.4256 193.608C21.8542 192.621 22.8955 190.59 23.8691 189.061C25.2763 186.85 27.2334 185.087 29.5292 183.96C30.786 183.343 31.8125 183.11 32.7589 183.226C33.8068 183.354 34.9811 184.095 35.1974 185.262C35.3866 186.284 34.8613 187.353 33.5913 188.53C31.1139 190.825 28.0526 192.444 25.6619 193.599C25.0385 193.899 24.4728 194.15 23.8518 194.174C23.8064 194.175 23.7618 194.176 23.7188 194.176Z" fill="#00E29D"/>
<path d="M23.7188 194.176C23.0788 194.176 22.6436 193.986 22.4256 193.608C21.8542 192.621 22.8955 190.59 23.8691 189.061C25.2763 186.85 27.2334 185.087 29.5292 183.96C30.786 183.343 31.8125 183.11 32.7589 183.226C33.8068 183.354 34.9811 184.095 35.1974 185.262C35.3866 186.284 34.8613 187.353 33.5913 188.53C31.1139 190.825 28.0526 192.444 25.6619 193.599C25.0385 193.899 24.4728 194.15 23.8518 194.174C23.8064 194.175 23.7618 194.176 23.7188 194.176ZM32.284 183.333C31.4896 183.333 30.62 183.576 29.5894 184.081C27.316 185.197 25.3779 186.944 23.9847 189.133C22.637 191.251 22.125 192.815 22.5445 193.54C22.7502 193.896 23.1903 194.064 23.846 194.037C24.4406 194.014 24.993 193.769 25.6016 193.475C27.9833 192.326 31.0338 190.712 33.4971 188.43C34.73 187.287 35.242 186.259 35.0612 185.287C34.8572 184.184 33.7391 183.483 32.7407 183.361C32.5912 183.342 32.4393 183.333 32.284 183.333Z" fill="#051C2C"/>
<path d="M221.907 214.176H32.218C32.168 214.176 32.1254 214.281 32.1254 214.415C32.1254 214.544 32.1662 214.654 32.218 214.654H221.907C221.957 214.654 222 214.549 222 214.415C222 214.281 221.959 214.176 221.907 214.176Z" fill="#051C2C"/>
<path d="M21.6361 194.781L21.528 194.697C26.4712 188.395 32.336 186.304 32.3947 186.283L32.4401 186.412C32.3814 186.432 26.5529 188.513 21.6361 194.781Z" fill="#051C2C"/>
</svg>
