<svg width="170" height="133" viewBox="0 0 170 133" fill="none" xmlns="http://www.w3.org/2000/svg">
<path d="M163.675 4.91797H6.32522C3.55434 4.91797 1.30811 7.15093 1.30811 9.90534V96.3751C1.30811 99.1296 3.55434 101.363 6.32522 101.363H163.675C166.446 101.363 168.692 99.1296 168.692 96.3751V9.90534C168.692 7.15093 166.446 4.91797 163.675 4.91797Z" fill="#051C2C"/>
<path d="M161.457 11.3447H8.54341C7.74401 11.3447 7.09595 11.9889 7.09595 12.7837V93.4964C7.09595 94.2911 7.74401 94.9353 8.54341 94.9353H161.457C162.256 94.9353 162.904 94.2911 162.904 93.4964V12.7837C162.904 11.9889 162.256 11.3447 161.457 11.3447Z" fill="white"/>
<path d="M102 97.0107H68V132.011H102V97.0107Z" fill="#051C2C"/>
<path d="M115.646 132.011H54.3542C53.054 132.011 52 130.891 52 129.511C52 128.13 53.054 127.011 54.3542 127.011H115.646C116.946 127.011 118 128.13 118 129.511C118 130.891 116.946 132.011 115.646 132.011Z" fill="#051C2C"/>
<path d="M41.5725 120.04H120.905V8.34534L129.211 0.103027H51.1695C45.8692 0.103027 41.5725 4.37427 41.5725 9.643V120.04Z" fill="white"/>
<path d="M120.905 120.144H41.5724C41.515 120.144 41.4685 120.098 41.4685 120.041V9.64314C41.4685 4.32597 45.8203 0 51.1694 0H129.211C129.253 0 129.291 0.0251474 129.307 0.0637312C129.323 0.102393 129.314 0.146843 129.284 0.176273L121.009 8.3883V120.041C121.009 120.098 120.962 120.144 120.905 120.144ZM41.6762 119.937H120.801V8.34548C120.801 8.31802 120.812 8.29175 120.832 8.27245L128.96 0.206497H51.1694C45.9348 0.206497 41.6762 4.43977 41.6762 9.64314V119.937Z" fill="#051C2C"/>
<path d="M66.0231 33.0757H48.8558C48.7984 33.0757 48.752 33.0295 48.752 32.9724C48.752 32.9154 48.7984 32.8691 48.8558 32.8691H66.0231C66.0806 32.8691 66.127 32.9154 66.127 32.9724C66.127 33.0295 66.0806 33.0757 66.0231 33.0757Z" fill="#051C2C"/>
<path d="M113.831 33.0757H101.347C101.29 33.0757 101.243 33.0295 101.243 32.9724C101.243 32.9154 101.29 32.8691 101.347 32.8691H113.831C113.888 32.8691 113.935 32.9154 113.935 32.9724C113.935 33.0295 113.888 33.0757 113.831 33.0757Z" fill="#051C2C"/>
<path d="M98.4081 39.6445H53.6745C53.617 39.6445 53.5706 39.5984 53.5706 39.5413C53.5706 39.4842 53.617 39.438 53.6745 39.438H98.4081C98.4655 39.438 98.512 39.4842 98.512 39.5413C98.512 39.5984 98.4655 39.6445 98.4081 39.6445Z" fill="#051C2C"/>
<path d="M108.233 39.6445H103.15C103.092 39.6445 103.046 39.5984 103.046 39.5413C103.046 39.4842 103.092 39.438 103.15 39.438H108.233C108.29 39.438 108.337 39.4842 108.337 39.5413C108.337 39.5984 108.29 39.6445 108.233 39.6445Z" fill="#051C2C"/>
<path d="M73.4924 46.3925H51.9789C51.9216 46.3925 51.875 46.3463 51.875 46.2893C51.875 46.2322 51.9216 46.186 51.9789 46.186H73.4924C73.5498 46.186 73.5962 46.2322 73.5962 46.2893C73.5962 46.3463 73.5498 46.3925 73.4924 46.3925Z" fill="#051C2C"/>
<path d="M109.928 46.3925H82.7643C82.7069 46.3925 82.6604 46.3463 82.6604 46.2893C82.6604 46.2322 82.7069 46.186 82.7643 46.186H109.928C109.985 46.186 110.032 46.2322 110.032 46.2893C110.032 46.3463 109.985 46.3925 109.928 46.3925Z" fill="#051C2C"/>
<path d="M77.7364 53.1406H51.9789C51.9216 53.1406 51.875 53.0944 51.875 53.0373C51.875 52.9803 51.9216 52.9341 51.9789 52.9341H77.7364C77.7938 52.9341 77.8403 52.9803 77.8403 53.0373C77.8403 53.0944 77.7938 53.1406 77.7364 53.1406Z" fill="#051C2C"/>
<path d="M109.928 53.1406H85.4443C85.3868 53.1406 85.3403 53.0944 85.3403 53.0373C85.3403 52.9803 85.3868 52.9341 85.4443 52.9341H109.928C109.985 52.9341 110.032 52.9803 110.032 53.0373C110.032 53.0944 109.985 53.1406 109.928 53.1406Z" fill="#051C2C"/>
<path d="M77.7364 80.1323H51.9789C51.9216 80.1323 51.875 80.0861 51.875 80.029C51.875 79.972 51.9216 79.9258 51.9789 79.9258H77.7364C77.7938 79.9258 77.8403 79.972 77.8403 80.029C77.8403 80.0861 77.7938 80.1323 77.7364 80.1323Z" fill="#051C2C"/>
<path d="M109.928 80.1323H85.4443C85.3868 80.1323 85.3403 80.0861 85.3403 80.029C85.3403 79.972 85.3868 79.9258 85.4443 79.9258H109.928C109.985 79.9258 110.032 79.972 110.032 80.029C110.032 80.0861 109.985 80.1323 109.928 80.1323Z" fill="#051C2C"/>
<path d="M66.7558 59.8886H51.9789C51.9216 59.8886 51.875 59.8423 51.875 59.7853C51.875 59.7283 51.9216 59.6821 51.9789 59.6821H66.7558C66.8132 59.6821 66.8597 59.7283 66.8597 59.7853C66.8597 59.8423 66.8132 59.8886 66.7558 59.8886Z" fill="#051C2C"/>
<path d="M97.6761 59.8886H74.3617C74.3044 59.8886 74.2578 59.8423 74.2578 59.7853C74.2578 59.7283 74.3044 59.6821 74.3617 59.6821H97.6761C97.7335 59.6821 97.78 59.7283 97.78 59.7853C97.78 59.8423 97.7335 59.8886 97.6761 59.8886Z" fill="#051C2C"/>
<path d="M109.928 59.8886H104.008C103.951 59.8886 103.905 59.8423 103.905 59.7853C103.905 59.7283 103.951 59.6821 104.008 59.6821H109.928C109.985 59.6821 110.032 59.7283 110.032 59.7853C110.032 59.8423 109.985 59.8886 109.928 59.8886Z" fill="#051C2C"/>
<path d="M82.7641 66.6367H51.9789C51.9216 66.6367 51.875 66.5905 51.875 66.5334C51.875 66.4765 51.9216 66.4302 51.9789 66.4302H82.7641C82.8215 66.4302 82.868 66.4765 82.868 66.5334C82.868 66.5905 82.8215 66.6367 82.7641 66.6367Z" fill="#051C2C"/>
<path d="M109.928 66.6367H90.2787C90.2213 66.6367 90.1748 66.5905 90.1748 66.5334C90.1748 66.4765 90.2213 66.4302 90.2787 66.4302H109.928C109.985 66.4302 110.032 66.4765 110.032 66.5334C110.032 66.5905 109.985 66.6367 109.928 66.6367Z" fill="#051C2C"/>
<path d="M62.993 73.3847H52.2363C52.1788 73.3847 52.1323 73.3385 52.1323 73.2815C52.1323 73.2244 52.1788 73.1782 52.2363 73.1782H62.993C63.0504 73.1782 63.0969 73.2244 63.0969 73.2815C63.0969 73.3385 63.0504 73.3847 62.993 73.3847Z" fill="#051C2C"/>
<path d="M96.6031 73.3847H70.4899C70.4325 73.3847 70.386 73.3385 70.386 73.2815C70.386 73.2244 70.4325 73.1782 70.4899 73.1782H96.6031C96.6605 73.1782 96.7069 73.2244 96.7069 73.2815C96.7069 73.3385 96.6605 73.3847 96.6031 73.3847Z" fill="#051C2C"/>
<path d="M109.671 73.3847H103.303C103.246 73.3847 103.199 73.3385 103.199 73.2815C103.199 73.2244 103.246 73.1782 103.303 73.1782H109.671C109.729 73.1782 109.775 73.2244 109.775 73.2815C109.775 73.3385 109.729 73.3847 109.671 73.3847Z" fill="#051C2C"/>
<path d="M154.507 92.4007L129.242 85.384L130.827 79.7456L156.092 86.7622C157.658 87.1971 158.572 88.8132 158.135 90.3697C157.916 91.1471 157.4 91.7642 156.744 92.1326C156.088 92.4991 155.289 92.6179 154.507 92.4007Z" fill="#FF9F00"/>
<path d="M155.304 92.599C155.03 92.599 154.755 92.5619 154.484 92.4866L129.219 85.4699C129.172 85.4569 129.145 85.4083 129.158 85.3615L130.742 79.7231C130.749 79.7006 130.764 79.6814 130.784 79.67C130.805 79.6586 130.829 79.6557 130.852 79.6619L156.116 86.6786C157.727 87.1257 158.671 88.7927 158.221 90.3945C158.003 91.169 157.494 91.814 156.789 92.2104C156.327 92.4679 155.819 92.599 155.304 92.599ZM154.532 92.317C155.265 92.5208 156.036 92.4284 156.702 92.057C157.366 91.6837 157.845 91.0764 158.05 90.3471C158.474 88.8389 157.585 87.2692 156.069 86.8482L130.889 79.8553L129.352 85.3239L154.532 92.317Z" fill="#051C2C"/>
<path d="M108.614 78.8664L109.807 74.6201L130.861 79.8115L129.326 85.2745L108.614 78.8664Z" fill="white"/>
<path d="M109.869 74.7259L130.751 79.8747L129.265 85.1631L108.722 78.8074L109.869 74.7259ZM109.745 74.5137L108.505 78.9248L129.386 85.3852L130.971 79.7475L109.745 74.5137Z" fill="#051C2C"/>
<path d="M105.592 76.5862L106.006 75.1149L109.848 74.8374L108.762 78.7037L105.592 76.5862Z" fill="white"/>
<path d="M109.729 74.9345L108.71 78.5629L105.695 76.5487L106.074 75.1985L109.729 74.9345ZM109.968 74.7407L105.937 75.0317L105.49 76.6239L108.814 78.8451L109.968 74.7407Z" fill="#051C2C"/>
<path d="M105.937 75.0322L103.68 75.2073L105.49 76.6244L105.937 75.0322Z" fill="#051C2C"/>
<path d="M152.663 93.6049C152.283 93.6049 151.899 93.5533 151.521 93.4484L131.384 87.8559C131.196 87.8035 131.086 87.6091 131.138 87.4218C131.191 87.2344 131.387 87.1248 131.575 87.1771L151.712 92.7696C152.76 93.0608 153.862 92.8587 154.737 92.2155L156.667 90.7965C156.825 90.6806 157.047 90.7137 157.163 90.8702C157.28 91.0267 157.246 91.2473 157.089 91.363L155.159 92.7819C154.423 93.3233 153.552 93.6049 152.663 93.6049Z" fill="#051C2C"/>
<path d="M155.301 92.4211C155.042 92.4211 154.783 92.3857 154.532 92.3159L152.962 91.8799L154.499 86.4111L156.069 86.8472C157.585 87.2683 158.474 88.8379 158.05 90.346C157.845 91.0754 157.366 91.6826 156.702 92.056C156.274 92.2948 155.789 92.4211 155.301 92.4211Z" fill="white"/>
<path d="M154.56 86.5203L156.045 86.9326C156.757 87.1302 157.348 87.5918 157.711 88.2325C158.073 88.873 158.164 89.6154 157.965 90.323C157.766 91.0296 157.302 91.6181 156.658 91.9797C156.243 92.2113 155.774 92.3337 155.301 92.3337C155.05 92.3337 154.799 92.2994 154.556 92.2317L153.071 91.8194L154.56 86.5203ZM154.437 86.3032L152.853 91.9417L154.508 92.4014C154.772 92.4748 155.039 92.5099 155.301 92.5099C155.814 92.5099 156.311 92.3758 156.745 92.1333C157.401 91.7649 157.917 91.1478 158.135 90.3704C158.573 88.8139 157.658 87.1977 156.093 86.7629L154.437 86.3032Z" fill="#051C2C"/>
<path d="M131.167 91.7998L135.874 128.781H142.726L138.815 97.7627H139.261L143.398 128.781H149.507L145.916 91.9636L131.167 91.7998Z" fill="#FF9F00"/>
<path d="M134.227 62.8613L134.342 65.2751C134.384 66.1649 134.913 66.9603 135.72 67.3483L135.837 67.4046V68.6451H139.653V64.3871L134.227 62.8613Z" fill="white"/>
<path d="M139.653 68.7333H135.836C135.788 68.7333 135.748 68.694 135.748 68.6453V67.46L135.681 67.4279C134.844 67.0254 134.297 66.2022 134.253 65.2795L134.138 62.8657C134.137 62.8374 134.149 62.8102 134.172 62.7925C134.194 62.7749 134.224 62.769 134.251 62.7768L139.677 64.3025C139.715 64.3133 139.741 64.3479 139.741 64.3873V68.6453C139.741 68.694 139.702 68.7333 139.653 68.7333ZM135.925 68.5573H139.564V64.454L134.321 62.9796L134.43 65.2712C134.471 66.1293 134.98 66.8949 135.758 67.2692L135.875 67.3254C135.906 67.3402 135.925 67.3709 135.925 67.4047V68.5573Z" fill="#051C2C"/>
<path d="M138.3 128.781L133.644 131.953H141.144L140.907 128.781H138.3Z" fill="#051C2C"/>
<path d="M148.488 128.781L150.949 131.953H145.643L145.88 128.781H148.488Z" fill="#051C2C"/>
<path d="M140.538 97.8505H137.617C137.568 97.8505 137.529 97.8111 137.529 97.7624C137.529 97.7138 137.568 97.6743 137.617 97.6743H140.538C140.587 97.6743 140.627 97.7138 140.627 97.7624C140.627 97.8111 140.587 97.8505 140.538 97.8505Z" fill="white"/>
<path d="M135.09 65.8472C135.062 65.8472 135.035 65.8451 135.007 65.8408C134.958 65.8332 134.925 65.788 134.933 65.74C134.941 65.6919 134.987 65.6596 135.035 65.6667C135.258 65.7022 135.494 65.5225 135.637 65.2096C135.792 64.8702 135.809 64.4126 135.498 64.1552C135.356 64.0376 135.215 63.9921 135.078 64.0191C134.774 64.0793 134.567 64.467 134.565 64.4709C134.542 64.5139 134.489 64.5307 134.445 64.5082C134.402 64.4858 134.385 64.4327 134.408 64.3896C134.418 64.3706 134.655 63.9238 135.043 63.8465C135.235 63.8078 135.426 63.8663 135.612 64.0199C135.994 64.3366 135.981 64.8821 135.798 65.2823C135.638 65.6342 135.366 65.8472 135.09 65.8472Z" fill="#051C2C"/>
<path d="M137.469 59.541C134.075 59.541 134.088 61.1786 134.088 63.1986C134.088 63.707 134.322 63.9701 134.612 64.244C134.787 64.0257 135.13 63.7354 135.555 64.0873C135.949 64.4136 135.881 65.0364 135.618 65.4229C136.288 66.1987 137.306 66.8358 138.19 66.8358C140.057 66.8358 140.85 65.2186 140.85 63.1986C140.85 61.1786 140.298 59.541 137.469 59.541Z" fill="#051C2C"/>
<path d="M135.055 65.4603C135.032 65.4603 135.008 65.451 134.991 65.4326C134.957 65.3973 134.959 65.3415 134.994 65.3081C135.166 65.1473 135.255 64.9771 135.259 64.8024C135.266 64.5509 135.097 64.3723 135.096 64.3705C135.062 64.3353 135.063 64.2796 135.098 64.2461C135.134 64.2125 135.19 64.2137 135.224 64.249C135.233 64.2583 135.445 64.4831 135.436 64.8069C135.43 65.0304 135.323 65.242 135.116 65.4361C135.099 65.4523 135.077 65.4603 135.055 65.4603Z" fill="#051C2C"/>
<path d="M148.772 84.7304C147.133 74.4749 144.273 70.7835 143.121 69.6702C142.297 68.6503 139.653 68.5132 139.653 68.5132L135.964 68.6457C135.272 68.5597 133.016 69.1395 132.28 69.862C130.16 71.9438 125.222 79.0375 125.222 79.0375L115.735 78.4973L115.502 81.3656L124.46 83.3C126.354 83.7089 128.318 83.022 129.537 81.5244L131.008 79.7181C130.811 85.7477 130.968 92.3776 130.941 93.1904H146.424C146.424 93.1904 146.426 89.0789 146.1 84.2341L148.772 84.7304Z" fill="white"/>
<path d="M146.424 93.2786H130.94C130.916 93.2786 130.894 93.2689 130.877 93.2518C130.86 93.2346 130.851 93.2114 130.852 93.1876C130.859 92.9684 130.853 92.331 130.844 91.3663C130.821 88.8795 130.778 84.2935 130.911 79.9773L129.606 81.58C128.358 83.1124 126.379 83.8045 124.441 83.3863L115.483 81.4519C115.439 81.4425 115.41 81.4026 115.413 81.3587L115.647 78.4904C115.651 78.4428 115.693 78.4074 115.74 78.4095L125.177 78.947C125.584 78.3647 130.199 71.7814 132.218 69.7996C132.984 69.047 135.264 68.4763 135.967 68.5575L139.65 68.4253C139.767 68.431 142.344 68.5761 143.186 69.611C144.348 70.7364 147.219 74.4559 148.859 84.7167C148.863 84.745 148.854 84.7738 148.833 84.7937C148.812 84.8138 148.783 84.8225 148.755 84.8172L146.196 84.3417C146.51 89.0856 146.512 93.1498 146.512 93.1905C146.512 93.2392 146.473 93.2786 146.424 93.2786ZM131.031 93.1024H146.335C146.333 92.4792 146.307 88.6398 146.012 84.2401C146.01 84.2129 146.021 84.1865 146.041 84.1684C146.062 84.1503 146.089 84.1428 146.116 84.1477L148.664 84.6211C147.028 74.4947 144.201 70.8378 143.059 69.7334C143.056 69.731 143.054 69.7282 143.051 69.7255C142.262 68.7477 139.674 68.6026 139.648 68.6013L135.967 68.7338C135.962 68.7342 135.957 68.7339 135.952 68.7332C135.3 68.6522 133.065 69.215 132.342 69.9247C130.252 71.9771 125.344 79.0169 125.295 79.0878C125.277 79.113 125.248 79.1276 125.217 79.1256L115.816 78.5904L115.596 81.2961L124.479 83.214C126.351 83.6184 128.263 82.9497 129.468 81.4691L130.938 79.6628C130.962 79.6335 131.003 79.6226 131.038 79.6357C131.074 79.6489 131.097 79.6832 131.096 79.7211C130.953 84.1088 130.998 88.8288 131.021 91.3646C131.03 92.2227 131.035 92.8225 131.031 93.1024Z" fill="#051C2C"/>
<path d="M115.684 79.1155L113.917 78.8012C113.664 78.7562 113.423 78.9262 113.382 79.1783H113.382C113.346 79.4054 113.485 79.6241 113.707 79.6884L114.501 79.9187C114.501 79.9187 113.749 80.4893 111.728 79.8642C111.728 79.8642 113.166 83.0499 115.5 81.3643L115.684 79.1155Z" fill="white"/>
<path d="M114.159 81.9457C113.999 81.9457 113.839 81.9249 113.682 81.8831C112.403 81.5445 111.679 79.9684 111.648 79.9015C111.634 79.8698 111.64 79.8328 111.663 79.8069C111.686 79.781 111.723 79.771 111.756 79.7812C113.151 80.2132 113.929 80.062 114.258 79.9409L113.683 79.7741C113.419 79.6976 113.252 79.4359 113.296 79.1654C113.319 79.02 113.399 78.8929 113.52 78.8077C113.641 78.7223 113.787 78.6898 113.933 78.7157L115.7 79.03C115.745 79.0379 115.777 79.0785 115.773 79.1237L115.59 81.3726C115.588 81.3983 115.575 81.4217 115.554 81.4368C115.085 81.7756 114.617 81.9457 114.159 81.9457ZM111.901 80.0083C112.13 80.4285 112.776 81.4614 113.728 81.713C114.272 81.8573 114.84 81.7238 115.416 81.3178L115.59 79.1893L113.902 78.8891C113.804 78.8716 113.704 78.8935 113.622 78.9513C113.54 79.009 113.487 79.095 113.471 79.1932C113.441 79.3762 113.554 79.5533 113.733 79.6051L114.527 79.8354C114.559 79.8447 114.583 79.8712 114.589 79.9038C114.595 79.9365 114.582 79.9698 114.556 79.9899C114.525 80.0135 113.794 80.5438 111.901 80.0083Z" fill="#051C2C"/>
<path d="M131.007 79.8057C130.959 79.8057 130.919 79.7669 130.919 79.7186L130.874 75.6671C130.873 75.6186 130.912 75.5786 130.961 75.5781C130.962 75.5781 130.962 75.5781 130.962 75.5781C131.011 75.5781 131.05 75.6169 131.051 75.6652L131.096 79.7166C131.096 79.7653 131.057 79.8052 131.008 79.8057C131.008 79.8057 131.007 79.8057 131.007 79.8057Z" fill="#051C2C"/>
<path d="M146.1 84.3222C146.055 84.3222 146.016 84.2879 146.012 84.2424C146.006 84.1836 145.448 78.3273 144.759 75.0504C144.749 75.0028 144.78 74.9562 144.828 74.9462C144.875 74.9363 144.923 74.9667 144.933 75.0144C145.624 78.301 146.183 84.1669 146.188 84.2258C146.193 84.2743 146.157 84.3172 146.108 84.3218C146.105 84.3221 146.103 84.3222 146.1 84.3222Z" fill="#051C2C"/>
<path d="M50 21.886V20.8117C50.335 20.8621 50.5863 20.7921 50.7539 20.6019C50.9214 20.4116 51.0051 20.0395 51.0051 19.4856V16.0107H54.8636V21.886H53.7531V17.1187H52.1157V19.452C52.1157 19.9612 52.0562 20.3892 51.9373 20.7362C51.8184 21.0831 51.6536 21.3405 51.4429 21.5083C51.2375 21.6762 51.0159 21.7881 50.7782 21.8441C50.5458 21.9 50.2864 21.914 50 21.886Z" fill="#051C2C"/>
<path d="M58.7932 17.6894H59.5714V21.886H58.55V19.5023L56.6451 21.886H55.8669V17.6894H56.8883V20.0731L58.7932 17.6894Z" fill="#051C2C"/>
<path d="M62.9207 17.6894H63.9664V21.886H62.9207V20.5515C62.6181 20.6522 62.2965 20.7026 61.9561 20.7026C61.4643 20.7026 61.0698 20.5739 60.7726 20.3165C60.4808 20.0591 60.3349 19.6842 60.3349 19.1918V17.6894H61.3806V19.0659C61.3806 19.4856 61.6319 19.6954 62.1344 19.6954C62.4262 19.6954 62.6883 19.6422 62.9207 19.5359V17.6894Z" fill="#051C2C"/>
<path d="M67.5737 17.6894H68.6193V21.886H67.5737V20.2913H65.9606V21.886H64.9149V17.6894H65.9606V19.2757H67.5737V17.6894Z" fill="#051C2C"/>
<path d="M71.4094 19.0323C71.8687 19.0323 72.2389 19.1638 72.5199 19.4268C72.8009 19.6842 72.9414 20.0283 72.9414 20.4592C72.9414 20.89 72.8009 21.237 72.5199 21.5C72.2389 21.7573 71.8687 21.886 71.4094 21.886H69.5774V17.6894H70.6231V19.0323H71.4094ZM73.3872 17.6894H74.4329V21.886H73.3872V17.6894ZM71.4175 20.9292C71.5634 20.9292 71.6823 20.8872 71.7741 20.8033C71.8714 20.7138 71.92 20.5991 71.92 20.4592C71.92 20.3193 71.8714 20.2046 71.7741 20.1151C71.6823 20.0255 71.5634 19.9808 71.4175 19.9808H70.6231V20.9292H71.4175Z" fill="#051C2C"/>
<path d="M76.2713 20.2326C76.4118 20.7585 76.7928 21.0215 77.4142 21.0215C77.8141 21.0215 78.1167 20.8816 78.3221 20.6019L79.1651 21.1055C78.7652 21.7042 78.1762 22.0035 77.398 22.0035C76.7279 22.0035 76.1902 21.7937 75.7849 21.3741C75.3796 20.9544 75.177 20.4256 75.177 19.7877C75.177 19.1554 75.3769 18.6294 75.7768 18.2098C76.1767 17.7845 76.6901 17.5719 77.317 17.5719C77.9114 17.5719 78.4005 17.7845 78.7841 18.2098C79.1732 18.635 79.3678 19.161 79.3678 19.7877C79.3678 19.9276 79.3543 20.0759 79.3272 20.2326H76.2713ZM76.2551 19.3932H78.3221C78.2626 19.1079 78.1384 18.8952 77.9492 18.7553C77.7655 18.6155 77.5547 18.5455 77.317 18.5455C77.0359 18.5455 76.8036 18.6211 76.6198 18.7721C76.4361 18.9176 76.3145 19.1247 76.2551 19.3932Z" fill="#051C2C"/>
<path d="M85.7719 20.8705H86.3069V23.0107H85.2856V21.886H82.7727V23.0107H81.7514V20.8705H82.2458C82.4782 20.5123 82.5944 20.0171 82.5944 19.3848V17.6894H85.7719V20.8705ZM83.3644 20.8705H84.7506V18.663H83.6157V19.3848C83.6157 19.978 83.532 20.4732 83.3644 20.8705Z" fill="#051C2C"/>
<path d="M89.8908 17.6894H90.9364V21.886H89.8908V21.3908C89.5773 21.7993 89.1369 22.0035 88.5695 22.0035C88.0291 22.0035 87.5643 21.7909 87.1753 21.3657C86.7916 20.9348 86.5997 20.4088 86.5997 19.7877C86.5997 19.1666 86.7916 18.6434 87.1753 18.2182C87.5643 17.7873 88.0291 17.5719 88.5695 17.5719C89.1369 17.5719 89.5773 17.7761 89.8908 18.1846V17.6894ZM87.9615 20.6438C88.1723 20.8621 88.4398 20.9712 88.764 20.9712C89.0883 20.9712 89.3558 20.8621 89.5665 20.6438C89.7827 20.42 89.8908 20.1346 89.8908 19.7877C89.8908 19.4408 89.7827 19.1582 89.5665 18.94C89.3558 18.7162 89.0883 18.6043 88.764 18.6043C88.4398 18.6043 88.1723 18.7162 87.9615 18.94C87.7508 19.1582 87.6454 19.4408 87.6454 19.7877C87.6454 20.1346 87.7508 20.42 87.9615 20.6438Z" fill="#051C2C"/>
<path d="M94.5434 17.6894H95.5891V21.886H94.5434V20.2913H92.9303V21.886H91.8846V17.6894H92.9303V19.2757H94.5434V17.6894Z" fill="#051C2C"/>
<path d="M99.2059 17.6894H100.252V21.886H99.2059V20.2913H97.5928V21.886H96.5471V17.6894H97.5928V19.2757H99.2059V17.6894Z" fill="#051C2C"/>
<path d="M103.042 19.0323C103.501 19.0323 103.871 19.1638 104.152 19.4268C104.433 19.6842 104.574 20.0283 104.574 20.4592C104.574 20.89 104.433 21.237 104.152 21.5C103.871 21.7573 103.501 21.886 103.042 21.886H101.21V17.6894H102.255V19.0323H103.042ZM105.019 17.6894H106.065V21.886H105.019V17.6894ZM103.05 20.9292C103.196 20.9292 103.314 20.8872 103.406 20.8033C103.504 20.7138 103.552 20.5991 103.552 20.4592C103.552 20.3193 103.504 20.2046 103.406 20.1151C103.314 20.0255 103.196 19.9808 103.05 19.9808H102.255V20.9292H103.05Z" fill="#051C2C"/>
<path d="M107.904 20.2326C108.044 20.7585 108.425 21.0215 109.046 21.0215C109.446 21.0215 109.749 20.8816 109.954 20.6019L110.797 21.1055C110.397 21.7042 109.808 22.0035 109.03 22.0035C108.36 22.0035 107.822 21.7937 107.417 21.3741C107.012 20.9544 106.809 20.4256 106.809 19.7877C106.809 19.1554 107.009 18.6294 107.409 18.2098C107.809 17.7845 108.322 17.5719 108.949 17.5719C109.544 17.5719 110.033 17.7845 110.416 18.2098C110.805 18.635 111 19.161 111 19.7877C111 19.9276 110.986 20.0759 110.959 20.2326H107.904ZM107.887 19.3932H109.954C109.895 19.1079 109.771 18.8952 109.581 18.7553C109.398 18.6155 109.187 18.5455 108.949 18.5455C108.668 18.5455 108.436 18.6211 108.252 18.7721C108.068 18.9176 107.947 19.1247 107.887 19.3932Z" fill="#051C2C"/>
<path d="M66.6747 100.011H69V90.0107L60.9764 97.1003L58.1338 94.5886L52 100.011H55.2886L58.1338 97.4944L60.9764 100.006H60.979L66.6747 94.9711V100.011Z" fill="#FF9F00"/>
<rect opacity="0.2" y="9.01074" width="170" height="1" rx="0.5" fill="#051C2C"/>
</svg>
