<svg width="17" height="12" viewBox="0 0 17 12" fill="none" xmlns="http://www.w3.org/2000/svg">
<path d="M8.5 0C12.9304 0 17 3.41748 17 6C17 8.58252 12.9304 12 8.5 12C4.06961 12 0 8.58252 0 6C0 3.41748 4.06961 0 8.5 0ZM8.5 1.5C4.83075 1.5 1.47826 4.31528 1.47826 6C1.47826 7.68472 4.83075 10.5 8.5 10.5C12.1692 10.5 15.5217 7.68472 15.5217 6C15.5217 4.31528 12.1692 1.5 8.5 1.5ZM8.5 3C10.1328 3 11.4565 4.34315 11.4565 6C11.4565 7.65685 10.1328 9 8.5 9C6.86716 9 5.54348 7.65685 5.54348 6C5.54348 4.34315 6.86716 3 8.5 3ZM8.5 4.5C7.68358 4.5 7.02174 5.17157 7.02174 6C7.02174 6.82843 7.68358 7.5 8.5 7.5C9.31642 7.5 9.97826 6.82843 9.97826 6C9.97826 5.17157 9.31642 4.5 8.5 4.5Z" fill="#50616C"/>
</svg>
