<svg width="24" height="18" viewBox="0 0 24 18" fill="none" xmlns="http://www.w3.org/2000/svg">
<path d="M0 9C0 9.996 0.78439 10.8 1.7561 10.8C2.7278 10.8 3.5122 9.996 3.5122 9C3.5122 8.004 2.7278 7.2 1.7561 7.2C0.78439 7.2 0 8.004 0 9ZM0 1.8C0 2.796 0.78439 3.6 1.7561 3.6C2.7278 3.6 3.5122 2.796 3.5122 1.8C3.5122 0.804 2.7278 0 1.7561 0C0.78439 0 0 0.804 0 1.8ZM0 16.2C0 17.188 0.792224 18 1.7561 18C2.71997 18 3.5122 17.188 3.5122 16.2C3.5122 15.212 2.73317 14.4 1.7561 14.4C0.779021 14.4 0 15.212 0 16.2ZM24 16.2C24 15.5373 23.4758 15 22.8293 15H6.43902C5.79245 15 5.26829 15.5373 5.26829 16.2C5.26829 16.8627 5.79245 17.4 6.43902 17.4H22.8293C23.4758 17.4 24 16.8627 24 16.2ZM24 9C24 8.33726 23.4758 7.8 22.8293 7.8H6.43902C5.79245 7.8 5.26829 8.33726 5.26829 9C5.26829 9.66274 5.79245 10.2 6.43902 10.2H22.8293C23.4758 10.2 24 9.66274 24 9ZM6.43902 3H22.8293C23.4758 3 24 2.46274 24 1.8C24 1.13726 23.4758 0.6 22.8293 0.6H6.43902C5.79245 0.6 5.26829 1.13726 5.26829 1.8C5.26829 2.46274 5.79245 3 6.43902 3Z" fill="#051C2C"/>
</svg>
