<svg width="191" height="296" viewBox="0 0 191 296" fill="none" xmlns="http://www.w3.org/2000/svg">
<path d="M77.2725 168.628L86.4876 283.511L102.153 283.775L93.7904 188.222L121.094 288.049H140.523L114.128 168.628L77.2725 168.628Z" fill="#051C2C"/>
<path d="M125.869 288.048L123.84 294.036H139.258L138.041 288.048H125.869Z" fill="#051C2C"/>
<path d="M90.8899 283.775L75.5244 294.036H100.023L99.2627 283.775H90.8899Z" fill="#051C2C"/>
<path d="M88.724 76.3534C88.724 76.7701 88.5154 77.1079 88.2585 77.1079C88.0013 77.1079 87.793 76.7701 87.793 76.3534C87.793 75.9365 88.0013 75.5986 88.2585 75.5986C88.5154 75.5986 88.724 75.9365 88.724 76.3534Z" fill="#051C2C"/>
<path d="M96.1546 76.3534C96.1546 76.7701 95.9461 77.1079 95.6891 77.1079C95.4319 77.1079 95.2236 76.7701 95.2236 76.3534C95.2236 75.9365 95.4319 75.5986 95.6891 75.5986C95.9461 75.5986 96.1546 75.9365 96.1546 76.3534Z" fill="#051C2C"/>
<path d="M92.9234 89.7127H91.3106C87.4118 89.7127 84.2402 86.5363 84.2402 82.632V79.8189C84.2402 79.6632 84.3661 79.5371 84.5215 79.5371C84.677 79.5371 84.8029 79.6632 84.8029 79.8189V82.632C84.8029 86.2258 87.722 89.1493 91.3106 89.1493H92.9234C93.0787 89.1493 93.2048 89.2753 93.2048 89.4309C93.2048 89.5866 93.0787 89.7127 92.9234 89.7127Z" fill="#051C2C"/>
<path d="M92.2714 96.4992C92.1455 96.4992 92.0191 96.4953 91.8919 96.4868C90.0723 96.3691 88.4638 95.421 87.4781 93.8853C87.4712 93.875 87.465 93.8643 87.4595 93.8534C87.4398 93.8144 87.4297 93.7712 87.4297 93.7275V88.8079C87.4297 88.6522 87.5556 88.5262 87.7111 88.5262C87.8664 88.5262 87.9922 88.6522 87.9922 88.8079V93.6436C88.8838 94.9902 90.3138 95.8201 91.9284 95.9248C93.5716 96.0314 95.1155 95.3702 96.1734 94.1117L99.3629 90.3179L99.5652 80.0555C99.5682 79.8999 99.6991 79.7801 99.852 79.7793C100.007 79.7823 100.131 79.911 100.128 80.0663L99.9236 90.4286C99.9223 90.4931 99.8988 90.5552 99.8575 90.6044L96.6036 94.4745C95.5113 95.7739 93.949 96.4991 92.2714 96.4992ZM87.7111 93.7275H87.7141H87.7111Z" fill="#051C2C"/>
<path d="M100.451 81.8256C100.073 81.8256 99.8032 81.7607 99.7786 81.7547C99.6279 81.7168 99.5362 81.5639 99.574 81.413C99.6114 81.2622 99.7639 81.17 99.9146 81.208C99.9409 81.214 101.018 81.4625 101.785 80.8265C102.397 80.3203 102.674 79.3855 102.607 78.0484C102.541 76.728 102.202 75.8681 101.628 75.5617C100.908 75.1787 100.001 75.7173 99.9922 75.7227C99.8588 75.8032 99.686 75.76 99.606 75.627C99.5256 75.4936 99.5686 75.3205 99.7013 75.2402C99.7499 75.2112 100.895 74.5333 101.892 75.0643C102.662 75.475 103.091 76.4696 103.169 78.0204C103.245 79.548 102.899 80.6395 102.139 81.2648C101.584 81.7219 100.93 81.8256 100.451 81.8256Z" fill="#051C2C"/>
<path d="M96.767 74.3917C96.7063 74.3917 96.6451 74.3721 96.5936 74.3317C95.4618 73.4439 94.551 74.2252 94.5129 74.2589C94.3968 74.3618 94.2191 74.3511 94.1165 74.2355C94.0135 74.1197 94.0226 73.943 94.1376 73.8392C94.5788 73.4419 95.7325 72.94 96.9407 73.8885C97.063 73.9842 97.0842 74.1614 96.9885 74.2837C96.933 74.3547 96.8504 74.3917 96.767 74.3917Z" fill="#051C2C"/>
<path d="M87.2618 74.3911C87.1891 74.3911 87.1166 74.363 87.0618 74.3076C86.9532 74.1972 86.9532 74.0201 87.0627 73.9108C87.4833 73.4908 88.6098 72.9313 89.8644 73.8171C89.9916 73.9069 90.0218 74.0826 89.9322 74.2096C89.8432 74.3365 89.6679 74.3676 89.5406 74.2777C88.3645 73.448 87.4953 74.275 87.4589 74.3108C87.4042 74.3642 87.333 74.3911 87.2618 74.3911Z" fill="#051C2C"/>
<path d="M102.094 78.9853C101.947 78.9853 101.823 78.8707 101.814 78.7217C101.714 77.1844 101.344 76.8092 101.189 76.7192C101.046 76.6361 100.922 76.6925 100.908 76.6991C100.771 76.7668 100.602 76.7134 100.531 76.5772C100.461 76.4416 100.508 76.2761 100.643 76.2025C100.786 76.1231 101.119 76.0381 101.452 76.2208C101.984 76.5138 102.287 77.3199 102.375 78.6852C102.385 78.8406 102.267 78.9746 102.112 78.9845C102.106 78.9851 102.1 78.9853 102.094 78.9853Z" fill="#051C2C"/>
<path d="M100.844 79.8901C100.833 79.8901 100.821 79.8896 100.809 79.8881C100.655 79.8691 100.546 79.7284 100.565 79.5739C100.788 77.7567 101.614 77.0212 101.649 76.9907C101.766 76.8889 101.944 76.9014 102.045 77.0191C102.147 77.1359 102.135 77.3128 102.019 77.4151C102.012 77.4213 101.318 78.0592 101.123 79.643C101.105 79.7856 100.984 79.8901 100.844 79.8901Z" fill="#051C2C"/>
<path d="M83.8855 81.8254C83.4065 81.8254 82.7524 81.7217 82.1968 81.2644C81.4375 80.6389 81.0913 79.5477 81.1676 78.0202C81.245 76.4693 81.6747 75.4749 82.4445 75.0643C83.4416 74.5323 84.5875 75.211 84.6354 75.24C84.7686 75.3203 84.8115 75.4934 84.7312 75.6268C84.6515 75.7598 84.4785 75.803 84.3453 75.7225C84.3365 75.7174 83.4211 75.1794 82.7068 75.5628C82.1331 75.8704 81.7954 76.7299 81.7294 78.0484C81.6625 79.3851 81.9389 80.3197 82.5506 80.8263C83.3238 81.4666 84.4122 81.21 84.4229 81.2076C84.5732 81.1706 84.7259 81.2627 84.7631 81.4136C84.8003 81.5645 84.7088 81.7169 84.5585 81.7545C84.5339 81.7605 84.2647 81.8254 83.8855 81.8254Z" fill="#051C2C"/>
<path d="M82.2445 78.9846C82.2383 78.9846 82.2323 78.9845 82.2261 78.9841C82.0709 78.9739 81.9535 78.84 81.9635 78.6848C82.0518 77.3192 82.354 76.5132 82.8869 76.2201C83.2192 76.0376 83.5513 76.1227 83.6958 76.2019C83.832 76.2769 83.8819 76.4481 83.807 76.5845C83.7332 76.719 83.5656 76.77 83.43 76.6983C83.4133 76.6902 83.2908 76.6366 83.1493 76.7188C82.9947 76.8087 82.6243 77.1838 82.525 78.7211C82.5152 78.8703 82.3914 78.9846 82.2445 78.9846Z" fill="#051C2C"/>
<path d="M83.4935 79.8899C83.3536 79.8899 83.2323 79.7853 83.2148 79.6428C83.0198 78.059 82.3257 77.4211 82.3188 77.4149C82.2036 77.3116 82.1924 77.134 82.2944 77.0179C82.3967 76.9019 82.5722 76.8889 82.689 76.9905C82.7241 77.0209 83.5494 77.7563 83.7729 79.5737C83.792 79.7281 83.6825 79.8689 83.5283 79.8878C83.5165 79.8894 83.5049 79.8899 83.4935 79.8899Z" fill="#051C2C"/>
<path d="M102.153 284.057H79.2015C79.0541 284.057 78.932 283.943 78.9209 283.796L70.5408 168.696C70.5293 168.541 70.646 168.406 70.801 168.395C70.9542 168.383 71.0904 168.5 71.1021 168.655L79.4631 283.494H101.846L93.5196 188.362L85.8302 181.783C85.712 181.682 85.698 181.504 85.799 181.386C85.8999 181.268 86.0772 181.254 86.1956 181.355L93.9727 188.008C94.0288 188.056 94.0638 188.124 94.0704 188.197L102.433 283.751C102.44 283.83 102.413 283.907 102.361 283.966C102.307 284.024 102.232 284.057 102.153 284.057Z" fill="#051C2C"/>
<path d="M140.523 288.33H121.094C120.967 288.33 120.856 288.245 120.823 288.123L93.5189 188.296C93.4777 188.146 93.566 187.991 93.7157 187.95C93.8658 187.909 94.0202 187.997 94.0614 188.147L121.308 287.767H140.173L113.853 168.688C113.82 168.537 113.916 168.386 114.067 168.353C114.221 168.318 114.369 168.415 114.403 168.567L140.798 287.987C140.816 288.071 140.796 288.158 140.742 288.225C140.689 288.291 140.608 288.33 140.523 288.33Z" fill="#051C2C"/>
<path d="M101.545 70.156C101.516 67.3785 101.206 60.7601 92.0327 61.3151C87.7816 61.5721 82.8709 62.1488 82.8711 68.9091C82.8711 71.0635 83.1523 75.2289 83.1523 75.2289C84.3376 75.3376 84.9605 75.9163 84.9605 75.9163C84.9605 75.9163 85.6491 69.7747 85.7641 69.4726C87.6375 69.7429 97.2698 69.1326 98.8234 69.0299L99.2252 76.3926C99.2252 76.3926 100.029 75.1013 101.221 75.2289C101.221 75.2289 101.566 72.1686 101.545 70.156Z" fill="#051C2C"/>
<path d="M115.155 179.936C111.737 179.937 108.999 178.98 107.004 177.085C103.513 173.771 103.561 168.831 103.565 168.623C103.568 168.469 103.693 168.346 103.846 168.346C103.848 168.346 103.849 168.346 103.851 168.346C104.006 168.349 104.13 168.477 104.127 168.632C104.126 168.681 104.083 173.54 107.394 176.68C109.54 178.714 112.615 179.602 116.533 179.322C116.687 179.309 116.823 179.428 116.834 179.583C116.845 179.738 116.729 179.873 116.574 179.884C116.089 179.919 115.616 179.936 115.155 179.936Z" fill="#051C2C"/>
<path d="M71.6126 179.817C71.5115 179.817 71.4137 179.763 71.3633 179.667C71.2912 179.529 71.344 179.359 71.4815 179.286C77.1653 176.293 76.9936 168.713 76.9911 168.637C76.9865 168.481 77.1082 168.351 77.2634 168.346C77.4165 168.351 77.5486 168.463 77.5536 168.619C77.5562 168.698 77.7423 176.626 71.7432 179.785C71.7014 179.807 71.6566 179.817 71.6126 179.817Z" fill="#051C2C"/>
<path d="M70.8216 168.957C70.679 168.957 70.5588 168.85 70.542 168.709C69.1122 156.558 69.2341 142.982 70.8858 130.479C72.3955 119.052 75.0216 109.613 78.0904 104.584C78.1713 104.452 78.3442 104.41 78.4772 104.491C78.6096 104.572 78.6517 104.745 78.5707 104.878C72.5278 114.78 68.0886 142.626 71.0718 168.394L116.256 168.346L115.033 147.017C115.025 146.861 115.143 146.728 115.298 146.719C115.449 146.71 115.586 146.829 115.595 146.984L116.835 168.612C116.839 168.689 116.812 168.765 116.759 168.821C116.706 168.877 116.632 168.909 116.554 168.909L70.8218 168.957H70.8216Z" fill="#051C2C"/>
<path d="M75.8618 110.273C75.8208 110.273 75.7789 110.264 75.7395 110.245C75.6679 110.21 68.4913 106.683 59.416 99.0207C51.0434 91.9517 39.2866 79.8105 30.8255 62.1154C30.771 62.0015 30.7988 61.8655 30.8935 61.7822L39.0878 54.573C39.1485 54.5194 39.2289 54.4948 39.31 54.5053C39.3904 54.5158 39.4624 54.5606 39.5073 54.628C56.0218 79.379 87.5081 93.3317 87.8243 93.4696C87.9669 93.5319 88.0318 93.6978 87.9697 93.8404C87.9075 93.9832 87.7416 94.0477 87.5994 93.9862C87.2831 93.8479 55.8736 79.9309 39.2186 55.208L31.4251 62.0644C39.8322 79.5567 51.4683 91.571 59.7635 98.5773C68.7881 106.2 75.914 109.704 75.9848 109.738C76.1245 109.806 76.183 109.975 76.1152 110.114C76.0665 110.215 75.9664 110.273 75.8618 110.273Z" fill="#051C2C"/>
<path d="M101.799 149.08C100.744 149.08 99.6842 149.049 98.6195 148.987C98.4706 148.979 98.3545 148.855 98.3545 148.706V137.841C98.3545 137.685 98.4804 137.559 98.6359 137.559C103.468 137.559 108.602 136.444 112.367 134.576C115.556 132.995 119.356 130.101 119.356 125.295C119.357 117.654 108.658 110.298 108.55 110.224C108.421 110.137 108.388 109.962 108.475 109.833C108.562 109.704 108.737 109.671 108.866 109.758C108.894 109.777 111.654 111.664 114.376 114.493C116.905 117.123 119.919 121.131 119.919 125.295C119.919 129.328 117.394 132.712 112.617 135.081C108.85 136.949 103.75 138.079 98.9171 138.121V148.44C105.469 148.789 111.844 147.948 117.861 145.935C124.777 143.621 130.233 138.361 132.83 131.504C135.439 124.616 134.833 117.015 131.167 110.65C125.064 100.054 116.824 95.1961 110.986 92.9867C104.654 90.5899 99.6985 90.703 99.651 90.7049C99.4932 90.7122 99.3662 90.5871 99.3619 90.4315C99.3572 90.2759 99.4793 90.1463 99.6347 90.1418C99.6859 90.1409 104.73 90.0214 111.161 92.4505C117.092 94.6906 125.462 99.6176 131.654 110.368C135.406 116.88 136.025 124.657 133.356 131.704C130.699 138.72 125.116 144.102 118.039 146.469C112.85 148.205 107.4 149.08 101.799 149.08Z" fill="#051C2C"/>
<path d="M38.2511 55.9655C38.1531 55.9655 38.0582 55.9146 38.0062 55.8231L34.5662 49.7669C33.7321 48.2987 32.8985 47.7799 31.7821 48.0294C31.6318 48.0629 31.4804 47.968 31.4463 47.816C31.4124 47.6642 31.5079 47.5135 31.6594 47.4796C33.4519 47.0793 34.4563 48.4337 35.0553 49.4885L38.4953 55.5445C38.5721 55.6798 38.5248 55.8517 38.3899 55.9289C38.346 55.9537 38.2983 55.9655 38.2511 55.9655Z" fill="#051C2C"/>
<path d="M32.3437 61.1621C32.2821 61.1621 32.2199 61.1418 32.1678 61.1002L26.6541 56.6748C26.5329 56.5773 26.5136 56.4003 26.6107 56.2788C26.7076 56.1576 26.8848 56.1379 27.0061 56.2351L32.5199 60.6608C32.641 60.758 32.6604 60.935 32.5633 61.0567C32.5077 61.126 32.4262 61.1621 32.3437 61.1621Z" fill="#051C2C"/>
<path d="M88.422 139.753C88.3846 139.753 88.3471 139.745 88.3106 139.73C88.168 139.668 88.1021 139.502 88.1637 139.359C88.8912 137.67 90.5758 137.651 91.7807 137.785L98.6958 138.55C98.8502 138.567 98.9618 138.706 98.9447 138.861C98.9274 139.015 98.7865 139.128 98.6343 139.11L91.7191 138.345C90.0428 138.16 89.134 138.53 88.6803 139.582C88.6345 139.689 88.5306 139.753 88.422 139.753Z" fill="#051C2C"/>
<path d="M88.8904 143.076C88.3951 143.076 87.883 142.925 87.4647 142.653C86.9434 142.314 86.638 141.833 86.6051 141.299C86.5738 140.798 86.7511 140.312 87.1042 139.931C87.4953 139.508 88.2991 139 89.9048 138.978C90.0652 138.972 90.1875 139.101 90.1898 139.256C90.192 139.412 90.0677 139.54 89.9123 139.542C88.5055 139.56 87.833 139.972 87.5167 140.314C87.2656 140.585 87.1446 140.913 87.1664 141.264C87.1959 141.738 87.5582 142.042 87.7713 142.181C88.1272 142.412 88.5884 142.536 89.0044 142.509C89.1553 142.499 89.2932 142.618 89.3025 142.773C89.3123 142.928 89.1945 143.062 89.0396 143.072C88.99 143.075 88.9404 143.076 88.8904 143.076Z" fill="#051C2C"/>
<path d="M88.5803 146.573C88.0896 146.573 87.6215 146.396 87.2505 146.068C86.847 145.712 86.6066 145.219 86.5734 144.682C86.5397 144.144 86.717 143.626 87.073 143.222C87.4292 142.818 87.9208 142.577 88.4574 142.543L89.0044 142.509C89.1553 142.499 89.2931 142.618 89.3025 142.773C89.3123 142.928 89.1945 143.062 89.0395 143.072L88.4927 143.106C88.1056 143.13 87.7515 143.303 87.4951 143.595C87.2385 143.886 87.1104 144.259 87.1346 144.647C87.1589 145.034 87.3321 145.389 87.6228 145.646C87.9132 145.903 88.2895 146.032 88.6733 146.007C88.8248 145.996 88.962 146.115 88.9714 146.27C88.9811 146.426 88.8633 146.559 88.7084 146.569C88.6654 146.572 88.6225 146.573 88.5803 146.573Z" fill="#051C2C"/>
<path d="M88.8816 149.187C88.4952 149.187 88.1266 149.048 87.8344 148.79C87.5167 148.509 87.3273 148.121 87.301 147.698C87.2746 147.275 87.4143 146.866 87.695 146.548C87.9752 146.23 88.3624 146.04 88.7852 146.014C88.9377 146.004 89.0741 146.122 89.0835 146.277C89.0933 146.433 88.9755 146.566 88.8204 146.576C88.257 146.611 87.8272 147.099 87.8623 147.663C87.8975 148.227 88.3819 148.661 88.9475 148.622L90.5064 148.525C91.5174 148.462 92.525 148.292 93.5016 148.02L98.5894 146.602C98.7391 146.56 98.8942 146.648 98.9356 146.798C98.9775 146.948 98.89 147.103 98.74 147.145L93.6523 148.562C92.6381 148.845 91.5914 149.022 90.5415 149.087L88.9826 149.185C88.9488 149.187 88.9152 149.187 88.8816 149.187Z" fill="#051C2C"/>
<path d="M114.314 134.085C114.169 134.085 114.045 133.973 114.034 133.824L112.493 113.334C112.481 113.178 112.597 113.043 112.752 113.031C112.904 113.021 113.042 113.136 113.054 113.291L114.595 133.782C114.607 133.937 114.491 134.073 114.336 134.084C114.329 134.085 114.322 134.085 114.314 134.085Z" fill="#051C2C"/>
<path d="M92.3897 81.5424C91.5078 81.5424 90.8605 81.2998 90.8201 81.2844C90.6753 81.2288 90.6032 81.0663 90.658 80.9212C90.7136 80.7759 90.8759 80.7033 91.0209 80.758C91.0345 80.7631 92.3462 81.2482 93.6933 80.7567C93.8406 80.704 94.0007 80.7789 94.0542 80.925C94.1072 81.0712 94.0321 81.2328 93.8861 81.286C93.3592 81.4783 92.8434 81.5424 92.3897 81.5424Z" fill="#051C2C"/>
<path d="M95.591 83.4069C92.9153 84.4782 90.4664 83.8994 89.1066 83.3796C88.7335 83.237 88.3924 83.6483 88.6061 83.9862C88.9768 84.5715 89.5078 85.2736 90.1745 85.8146C91.0284 85.3609 92.7669 84.7296 94.5853 85.7783C95.2196 85.2516 95.7276 84.5811 96.0886 84.0151C96.3021 83.6802 95.9594 83.2594 95.591 83.4069Z" fill="#051C2C"/>
<path d="M28.5705 49.4166C28.5655 49.4166 28.5609 49.4164 28.556 49.4162C28.4008 49.4083 28.2813 49.276 28.2892 49.1205L28.5479 44.0018C23.1594 42.6388 18.7127 36.7597 15.3291 26.5217C12.7889 18.836 11.829 11.4156 11.8196 11.3415C11.8002 11.1872 11.9092 11.0461 12.0632 11.0266C12.2182 11.0075 12.3581 11.1161 12.3779 11.2704C12.4151 11.5637 16.2473 40.6229 28.9031 43.508C29.0363 43.5383 29.1285 43.66 29.1216 43.7968L28.8511 49.149C28.8434 49.2995 28.7194 49.4166 28.5705 49.4166Z" fill="#051C2C"/>
<path d="M49.7385 12.4332C49.7244 12.4332 49.7101 12.4321 49.6957 12.4298C49.5422 12.4065 49.4368 12.2628 49.4603 12.1089C49.5422 11.5715 49.5794 11.2735 49.5798 11.2712C49.5992 11.1166 49.7408 11.0071 49.8937 11.0267C50.0479 11.0459 50.1572 11.1865 50.1379 11.341C50.1379 11.341 50.1001 11.6444 50.0163 12.1941C49.9951 12.3334 49.8751 12.4332 49.7385 12.4332Z" fill="#051C2C"/>
<path d="M48.2607 36.8679C46.776 36.8679 45.6427 36.4247 44.8754 35.54C43.6976 34.1816 43.7637 32.1366 45.0292 30.7829L53.1008 22.1497C54.477 20.6779 54.8343 18.6146 54.0333 16.7647C53.2323 14.9148 51.4841 13.7656 49.4706 13.7656C49.3152 13.7656 49.1894 13.6395 49.1894 13.4839C49.1894 13.3282 49.3152 13.2021 49.4706 13.2021C51.7118 13.2021 53.658 14.4813 54.5495 16.5406C55.441 18.5998 55.0434 20.8966 53.5115 22.5348L45.4396 31.168C44.3894 32.2914 44.3281 34.0497 45.3003 35.1707C46.3407 36.3703 48.228 36.6198 50.9098 35.9134C51.0605 35.8741 51.214 35.9636 51.2534 36.1141C51.293 36.2646 51.2032 36.4185 51.053 36.4582C50.0161 36.7313 49.0842 36.8679 48.2607 36.8679Z" fill="#051C2C"/>
<path d="M13.3672 36.8679C12.5435 36.8679 11.612 36.7315 10.5749 36.4582C10.4246 36.4185 10.3348 36.2646 10.3745 36.1141C10.4141 35.9638 10.5685 35.8746 10.718 35.9134C13.4001 36.6203 15.2871 36.3703 16.3278 35.1707C17.2997 34.0497 17.2385 32.2914 16.1882 31.168L8.11638 22.5348C6.58466 20.8966 6.18683 18.5998 7.07831 16.5406C7.97006 14.4813 9.91611 13.2021 12.1573 13.2021C12.3126 13.2021 12.4385 13.3282 12.4385 13.4839C12.4385 13.6395 12.3126 13.7656 12.1573 13.7656C10.144 13.7656 8.39549 14.9148 7.59453 16.7647C6.79373 18.6146 7.15085 20.6779 8.52699 22.1497L16.5988 30.7829C17.8642 32.1366 17.9303 34.1816 16.7525 35.54C15.9853 36.4245 14.8517 36.8679 13.3672 36.8679Z" fill="#051C2C"/>
<path d="M32.4992 43.7829L32.308 49.0424C32.586 48.9867 32.9457 48.9192 33.2506 48.8771L33.0825 43.7908C44.7919 41.1675 49.0671 16.332 49.7986 11.4796C47.276 12.2616 41.2907 13.484 34.3851 13.484C25.3446 13.484 17.9884 12.5417 17.7354 11.3677C17.9035 12.8109 21.3275 40.8964 32.4992 43.7829Z" fill="#FF9F19"/>
<path d="M38.6716 62.8206C35.726 62.1871 33.6047 59.5975 33.5059 56.5804L33.4302 54.2946L32.7761 53.2515L32.1455 53.521L32.0311 56.6674C31.9205 59.651 30.0679 62.203 27.498 62.8463C25.0249 63.4641 23.4453 64.4084 23.4453 65.4656C23.4453 67.1603 27.5039 68.5641 32.7883 68.8017C38.7804 68.5641 43.3807 67.1603 43.3807 65.4656C43.3807 64.3926 41.5402 63.4383 38.6716 62.8206Z" fill="#FF9F19"/>
<path d="M49.8582 11.3061C49.8582 12.5089 41.4056 13.4839 30.9785 13.4839C20.5515 13.4839 12.0986 12.5089 12.0986 11.3061C12.0986 10.1034 20.5515 9.12842 30.9785 9.12842C41.4056 9.12842 49.8582 10.1034 49.8582 11.3061Z" fill="#FF9F19"/>
<path d="M30.9786 69.119C22.7409 69.119 18.2959 67.2365 18.2959 65.4654C18.2959 63.8709 21.3121 62.9678 23.11 62.5714C25.9983 61.9343 27.8538 59.5348 27.9528 56.309C27.9577 56.1534 28.092 56.0321 28.2426 56.0361C28.3978 56.0407 28.5199 56.1707 28.515 56.3261C28.4079 59.8225 26.383 62.4262 23.231 63.1214C20.5339 63.7163 18.8585 64.6143 18.8585 65.4654C18.8585 66.927 23.836 68.5557 30.9786 68.5557C38.1212 68.5557 43.0985 66.927 43.0985 65.4654C43.0985 64.5999 41.3799 63.6924 38.613 63.0968C35.5449 62.4363 33.3287 59.7606 33.2239 56.5902L33.1645 54.7941C33.1595 54.6385 33.2812 54.5085 33.4365 54.5033C33.5951 54.4954 33.7219 54.6201 33.7269 54.7755L33.7861 56.5718C33.8825 59.4831 35.9161 61.9399 38.7313 62.546C40.5724 62.9424 43.6611 63.8485 43.6611 65.4654C43.6611 67.2365 39.2163 69.119 30.9786 69.119Z" fill="#051C2C"/>
<path d="M33.245 48.9881C33.094 48.9881 32.9691 48.868 32.964 48.7156L32.8009 43.7998C32.7964 43.6647 32.8887 43.5453 33.0207 43.5158C45.7029 40.6735 49.5418 11.5642 49.579 11.2704C49.5984 11.1162 49.7368 11.0074 49.8935 11.0266C50.0477 11.0462 50.1567 11.1872 50.1371 11.3415C50.1277 11.4158 49.1661 18.849 46.621 26.5424C43.2299 36.793 38.7729 42.6685 33.3709 44.0118L33.5262 48.697C33.5315 48.8526 33.4098 48.9828 33.2546 48.9879C33.2512 48.9881 33.2482 48.9881 33.245 48.9881Z" fill="#051C2C"/>
<path d="M29.3889 50.4714C29.3078 50.4714 29.2274 50.4364 29.1718 50.3688C28.8273 49.9505 28.6139 49.3956 28.5861 48.8465C28.5546 48.2247 28.7642 47.695 29.1763 47.3547C29.5629 47.0355 30.0588 46.8951 30.5755 46.9565C31.147 47.0259 32.0295 47.3789 32.9891 48.6685C33.082 48.7934 33.0562 48.9698 32.9317 49.0628C32.8069 49.1551 32.6309 49.1299 32.5382 49.0052C31.6976 47.8757 30.9702 47.5718 30.5079 47.5159C30.1413 47.4717 29.8046 47.5661 29.5342 47.7894C28.9355 48.2836 29.0784 49.3696 29.6059 50.0105C29.7045 50.1305 29.6876 50.3081 29.5678 50.4071C29.5154 50.4503 29.4519 50.4714 29.3889 50.4714Z" fill="#051C2C"/>
<path d="M28.4089 54.7359C28.3278 54.7359 28.2474 54.7011 28.1918 54.6336L26.1495 52.1529C25.4432 51.2949 25.5655 50.0213 26.4223 49.3139C26.8372 48.9715 27.3606 48.8125 27.8961 48.8625C28.4315 48.9143 28.9148 49.1716 29.257 49.5874L30.0462 50.5458C30.145 50.6658 30.1281 50.8434 30.008 50.9423C29.888 51.0415 29.7111 51.0242 29.6121 50.9042L28.8229 49.9457C28.5765 49.6461 28.2282 49.4606 27.8424 49.4235C27.4558 49.3855 27.0792 49.502 26.7801 49.7488C26.1628 50.2583 26.0746 51.1764 26.5836 51.7945L28.6259 54.2752C28.7245 54.3952 28.7076 54.5726 28.5878 54.6717C28.5354 54.715 28.4719 54.7359 28.4089 54.7359Z" fill="#051C2C"/>
<path d="M27.4067 56.8981C27.3553 56.8981 27.3038 56.8957 27.252 56.8906C26.8302 56.85 26.4496 56.6474 26.1801 56.3198L24.1965 53.9103C23.9269 53.5831 23.8009 53.17 23.8414 52.7477C23.882 52.3256 24.0845 51.9443 24.4114 51.6743C25.0863 51.1178 26.0877 51.2138 26.6441 51.8895L28.6277 54.2993C29.1841 54.975 29.0878 55.978 28.4128 56.535C28.1262 56.7719 27.7736 56.8981 27.4067 56.8981ZM25.4193 51.8754C25.19 51.8754 24.9595 51.952 24.7692 52.1091C24.3338 52.4687 24.2714 53.1158 24.6306 53.5519L26.6142 55.9615C26.7882 56.1727 27.0336 56.3035 27.3058 56.3298C27.5782 56.3567 27.8439 56.2745 28.055 56.1003C28.4904 55.7408 28.5526 55.0937 28.1936 54.6576L26.21 52.2479C26.0079 52.0024 25.7146 51.8754 25.4193 51.8754Z" fill="#051C2C"/>
<path d="M34.6919 56.6761C34.6263 56.6761 34.5604 56.6531 34.5072 56.6065C34.4488 56.5557 33.1739 55.4246 32.6634 53.6088L31.2851 54.7921C30.8309 55.1818 30.2306 55.357 29.6385 55.2735C29.0466 55.1894 28.5184 54.8544 28.1902 54.3538C27.6719 53.564 27.7463 52.5249 28.3711 51.8264C29.9154 50.1007 31.9858 48.1761 34.3053 48.6185C34.4578 48.6474 34.5582 48.795 34.5288 48.9479C34.5001 49.1007 34.3519 49.2017 34.2001 49.1717C32.1579 48.7844 30.2358 50.5872 28.7902 52.2025C28.3354 52.7108 28.2821 53.4681 28.6604 54.0445C28.9001 54.4098 29.2851 54.6544 29.7174 54.7155C30.1504 54.777 30.5877 54.6486 30.919 54.3641L32.6474 52.8806C32.7237 52.8155 32.8289 52.7958 32.9229 52.8286C33.0176 52.8616 33.0875 52.9425 33.1065 53.0411C33.4724 54.9362 34.863 56.1699 34.8771 56.1821C34.9942 56.2844 35.0062 56.4624 34.904 56.5795C34.8484 56.6434 34.7704 56.6761 34.6919 56.6761Z" fill="#051C2C"/>
<path d="M70.5496 56.7971C70.5451 56.7971 70.5404 56.7969 70.5361 56.7967C70.381 56.7896 70.2611 56.6577 70.2683 56.5021C70.3857 53.9884 71.6119 51.7398 72.7974 49.5651C73.2614 48.7143 73.7405 47.8347 74.1435 46.9563C76.1434 42.5934 75.0294 39.2171 73.1479 37.9262C72.5248 37.499 71.811 37.2494 71.0551 36.9849C70.3311 36.732 69.583 36.4704 68.9197 36.0379C66.9362 34.7444 66.0293 31.9067 66.8104 29.4371C67.4983 27.2619 69.3668 25.3849 71.8084 24.4155C71.9523 24.358 72.1164 24.4287 72.1735 24.5736C72.2307 24.7182 72.16 24.8819 72.0156 24.9393C69.7293 25.8469 67.9839 27.5919 67.3467 29.6072C66.6393 31.8439 67.4478 34.4055 69.2268 35.5657C69.8328 35.961 70.5164 36.2001 71.2402 36.4531C71.9977 36.718 72.781 36.9919 73.4657 37.4616C76.4184 39.4871 76.1519 43.9252 74.6544 47.1915C74.2438 48.0873 73.7595 48.9758 73.291 49.8351C72.1362 51.9537 70.9417 54.1443 70.8303 56.5286C70.8233 56.6795 70.6988 56.7971 70.5496 56.7971Z" fill="#051C2C"/>
<path d="M171.576 150.189C171.453 150.189 171.34 150.107 171.305 149.983C171.263 149.833 171.35 149.678 171.5 149.636C172.362 149.393 172.74 148.72 172.906 148.198C173.305 146.94 172.943 145.221 172.043 144.111C171.436 143.362 170.671 142.71 169.93 142.08C168.864 141.172 167.763 140.234 167.075 138.968C166.215 137.382 166.252 135.352 167.175 133.537C168.098 131.722 169.717 130.498 171.504 130.264C171.66 130.244 171.799 130.352 171.819 130.506C171.84 130.66 171.731 130.802 171.577 130.822C169.974 131.033 168.516 132.143 167.676 133.793C166.837 135.442 166.797 137.276 167.569 138.699C168.207 139.873 169.221 140.736 170.295 141.65C171.055 142.297 171.84 142.966 172.48 143.757C173.49 145.003 173.895 146.943 173.442 148.369C173.144 149.307 172.525 149.933 171.652 150.178C171.626 150.185 171.601 150.189 171.576 150.189Z" fill="#051C2C"/>
<path d="M132.935 27.6187L137.261 27.9379L134.459 33.6627L131.189 33.2949L132.935 27.6187Z" fill="#FF9F19"/>
<path d="M186.674 105.637L191 105.956L188.198 111.681L184.929 111.313L186.674 105.637Z" fill="#FF9F19"/>
<path d="M40.1798 131.806L44.5061 132.125L41.7041 137.85L38.4346 137.482L40.1798 131.806Z" fill="#FF9F19"/>
<path d="M159.269 78.6252C159.232 78.6252 159.196 78.618 159.16 78.6032C159.017 78.5429 158.949 78.378 159.009 78.2344L162.385 70.1814C162.445 70.0377 162.609 69.9707 162.753 70.0309C162.896 70.0911 162.964 70.2561 162.903 70.3996L159.528 78.4525C159.483 78.5605 159.379 78.6252 159.269 78.6252Z" fill="#051C2C"/>
<path d="M16.8896 110.655C16.8533 110.655 16.8165 110.648 16.7809 110.633C16.6377 110.573 16.5703 110.408 16.6304 110.265L20.0054 102.212C20.0655 102.068 20.2303 102.001 20.3738 102.061C20.5169 102.121 20.5841 102.286 20.5241 102.43L17.149 110.483C17.1039 110.591 16.9995 110.655 16.8896 110.655Z" fill="#051C2C"/>
<path d="M143.699 166.845C143.663 166.845 143.626 166.838 143.591 166.823C143.447 166.763 143.38 166.598 143.44 166.454L146.815 158.401C146.876 158.258 147.039 158.19 147.184 158.251C147.327 158.311 147.394 158.476 147.334 158.619L143.959 166.672C143.914 166.78 143.809 166.845 143.699 166.845Z" fill="#051C2C"/>
<path d="M28.1414 176.656C28.1051 176.656 28.0683 176.649 28.0326 176.634C27.8895 176.574 27.8222 176.409 27.8824 176.265L31.2576 168.212C31.3177 168.069 31.482 168.001 31.6257 168.062C31.7689 168.122 31.8361 168.287 31.776 168.43L28.401 176.484C28.3557 176.591 28.2513 176.656 28.1414 176.656Z" fill="#051C2C"/>
<path d="M174.108 211.539C174.071 211.539 174.034 211.532 173.999 211.517C173.855 211.457 173.788 211.292 173.848 211.148L177.224 203.096C177.284 202.952 177.448 202.885 177.592 202.945C177.735 203.005 177.802 203.17 177.742 203.314L174.367 211.367C174.322 211.474 174.217 211.539 174.108 211.539Z" fill="#051C2C"/>
<path d="M42.6345 226.213C42.5983 226.213 42.5615 226.206 42.5258 226.191C42.3827 226.131 42.3154 225.966 42.3755 225.822L45.7507 217.77C45.8108 217.626 45.975 217.558 46.1189 217.619C46.2621 217.679 46.3293 217.844 46.2691 217.988L42.8942 226.041C42.8489 226.148 42.7444 226.213 42.6345 226.213Z" fill="#051C2C"/>
<path d="M99.09 8.61626C99.0535 8.61626 99.0167 8.60911 98.981 8.59425C98.8379 8.53408 98.7704 8.36905 98.8306 8.22572L102.206 0.172454C102.266 0.0289543 102.43 -0.0379977 102.574 0.0219609C102.717 0.0821906 102.785 0.247158 102.724 0.390712L99.3492 8.44354C99.3039 8.55137 99.1999 8.61626 99.09 8.61626Z" fill="#051C2C"/>
<rect x="55" y="294" width="114" height="1" fill="#051C2C"/>
</svg>
