<svg width="17" height="13" viewBox="0 0 17 13"  xmlns="http://www.w3.org/2000/svg">
<path d="M2.55 0H14.45C15.8583 0 17 1.09131 17 2.4375V10.5625C17 11.9087 15.8583 13 14.45 13H2.55C1.14167 13 0 11.9087 0 10.5625V2.4375C0 1.09131 1.14167 0 2.55 0ZM3.4 7.3125H5.1C5.56944 7.3125 5.95 6.94873 5.95 6.5C5.95 6.05127 5.56944 5.6875 5.1 5.6875H3.4C2.93056 5.6875 2.55 6.05127 2.55 6.5C2.55 6.94873 2.93056 7.3125 3.4 7.3125ZM7.65 7.3125H13.6C14.0694 7.3125 14.45 6.94873 14.45 6.5C14.45 6.05127 14.0694 5.6875 13.6 5.6875H7.65C7.18056 5.6875 6.8 6.05127 6.8 6.5C6.8 6.94873 7.18056 7.3125 7.65 7.3125ZM3.4 10.5625H9.35C9.81944 10.5625 10.2 10.1987 10.2 9.75C10.2 9.30127 9.81944 8.9375 9.35 8.9375H3.4C2.93056 8.9375 2.55 9.30127 2.55 9.75C2.55 10.1987 2.93056 10.5625 3.4 10.5625ZM11.9 10.5625H13.6C14.0694 10.5625 14.45 10.1987 14.45 9.75C14.45 9.30127 14.0694 8.9375 13.6 8.9375H11.9C11.4306 8.9375 11.05 9.30127 11.05 9.75C11.05 10.1987 11.4306 10.5625 11.9 10.5625Z"/>
</svg>
