<svg width="17" height="16" viewBox="0 0 17 16" fill="none" xmlns="http://www.w3.org/2000/svg">
<path d="M11.5517 0C13.4462 0 14.1332 0.222782 14.8258 0.641119C15.5184 1.05946 16.0619 1.67335 16.4323 2.45557C16.8027 3.23779 17 4.01368 17 6.15332V9.84667C17 11.9863 16.8027 12.7622 16.4323 13.5444C16.0619 14.3267 15.5184 14.9405 14.8258 15.3589C14.1332 15.7772 13.4462 16 11.5517 16H5.44826C3.55378 16 2.8668 15.7772 2.1742 15.3589C1.48161 14.9405 0.93806 14.3267 0.567657 13.5444C0.197254 12.7622 0 11.9863 0 9.84667V6.15332C0 4.01368 0.197254 3.23779 0.567657 2.45557C0.93806 1.67335 1.48161 1.05946 2.1742 0.641119C2.8668 0.222782 3.55378 0 5.44826 0H11.5517ZM11.7522 1.60074L5.44826 1.6C3.93489 1.6 3.39612 1.71751 2.8423 2.05202C2.39659 2.32124 2.05526 2.70674 1.81689 3.21013C1.53417 3.80718 1.42652 4.38876 1.41732 5.92697L1.41667 9.84667C1.41667 11.5559 1.52071 12.1644 1.81689 12.7899C2.05526 13.2933 2.39659 13.6788 2.8423 13.948C3.39612 14.2825 3.93489 14.4 5.44826 14.4H11.5517C13.0651 14.4 13.6039 14.2825 14.1577 13.948C14.6034 13.6788 14.9447 13.2933 15.1831 12.7899C15.4793 12.1644 15.5833 11.5559 15.5833 9.84667V6.15332C15.5833 4.44411 15.4793 3.83562 15.1831 3.21013C14.9447 2.70674 14.6034 2.32124 14.1577 2.05202C13.6291 1.73271 13.1141 1.61113 11.7522 1.60074ZM8.5 9.6C8.8912 9.6 9.20833 9.95817 9.20833 10.4C9.20833 10.8418 8.8912 11.2 8.5 11.2H4.25C3.8588 11.2 3.54167 10.8418 3.54167 10.4C3.54167 9.95817 3.8588 9.6 4.25 9.6H8.5ZM12.75 9.6C13.1412 9.6 13.4583 9.95817 13.4583 10.4C13.4583 10.8418 13.1412 11.2 12.75 11.2H11.3333C10.9421 11.2 10.625 10.8418 10.625 10.4C10.625 9.95817 10.9421 9.6 11.3333 9.6H12.75ZM12.75 6.4C13.1412 6.4 13.4583 6.75817 13.4583 7.2C13.4583 7.64183 13.1412 8 12.75 8H8.5C8.1088 8 7.79167 7.64183 7.79167 7.2C7.79167 6.75817 8.1088 6.4 8.5 6.4H12.75ZM5.66667 6.4C6.05787 6.4 6.375 6.75817 6.375 7.2C6.375 7.64183 6.05787 8 5.66667 8H4.25C3.8588 8 3.54167 7.64183 3.54167 7.2C3.54167 6.75817 3.8588 6.4 4.25 6.4H5.66667Z"/>
</svg>
