<svg width="17" height="15" viewBox="0 0 17 15" fill="none" xmlns="http://www.w3.org/2000/svg">
<path d="M2.55 0H14.45C15.8583 0 17 1.2592 17 2.8125V12.1875C17 13.7408 15.8583 15 14.45 15H2.55C1.14167 15 0 13.7408 0 12.1875V2.8125C0 1.2592 1.14167 0 2.55 0ZM3.4 8.4375H5.1C5.56944 8.4375 5.95 8.01777 5.95 7.5C5.95 6.98223 5.56944 6.5625 5.1 6.5625H3.4C2.93056 6.5625 2.55 6.98223 2.55 7.5C2.55 8.01777 2.93056 8.4375 3.4 8.4375ZM7.65 8.4375H13.6C14.0694 8.4375 14.45 8.01777 14.45 7.5C14.45 6.98223 14.0694 6.5625 13.6 6.5625H7.65C7.18056 6.5625 6.8 6.98223 6.8 7.5C6.8 8.01777 7.18056 8.4375 7.65 8.4375ZM3.4 12.1875H9.35C9.81944 12.1875 10.2 11.7678 10.2 11.25C10.2 10.7322 9.81944 10.3125 9.35 10.3125H3.4C2.93056 10.3125 2.55 10.7322 2.55 11.25C2.55 11.7678 2.93056 12.1875 3.4 12.1875ZM11.9 12.1875H13.6C14.0694 12.1875 14.45 11.7678 14.45 11.25C14.45 10.7322 14.0694 10.3125 13.6 10.3125H11.9C11.4306 10.3125 11.05 10.7322 11.05 11.25C11.05 11.7678 11.4306 12.1875 11.9 12.1875Z" fill="white"/>
</svg>
