<svg width="15" height="15" viewBox="0 0 15 15" xmlns="http://www.w3.org/2000/svg">
<path d="M2.5 0H12.5C13.8807 0 15 1.11929 15 2.5V12.5C15 13.8807 13.8807 15 12.5 15H2.5C1.11929 15 0 13.8807 0 12.5V2.5C0 1.11929 1.11929 0 2.5 0ZM4.16667 8.33333H10.8333C11.2936 8.33333 11.6667 7.96024 11.6667 7.5C11.6667 7.03976 11.2936 6.66667 10.8333 6.66667H4.16667C3.70643 6.66667 3.33333 7.03976 3.33333 7.5C3.33333 7.96024 3.70643 8.33333 4.16667 8.33333ZM4.16667 5H10.8333C11.2936 5 11.6667 4.6269 11.6667 4.16667C11.6667 3.70643 11.2936 3.33333 10.8333 3.33333H4.16667C3.70643 3.33333 3.33333 3.70643 3.33333 4.16667C3.33333 4.6269 3.70643 5 4.16667 5ZM4.16667 11.6667H8.33333C8.79357 11.6667 9.16667 11.2936 9.16667 10.8333C9.16667 10.3731 8.79357 10 8.33333 10H4.16667C3.70643 10 3.33333 10.3731 3.33333 10.8333C3.33333 11.2936 3.70643 11.6667 4.16667 11.6667Z" />
</svg>
