<svg width="17" height="17" viewBox="0 0 17 17" fill="none" xmlns="http://www.w3.org/2000/svg">
<path d="M11.2743 0C12.9612 0 13.7723 0.156642 14.6151 0.607378C15.3794 1.01613 15.9839 1.62057 16.3926 2.38486C16.8434 3.22766 17 4.03882 17 5.72569V11.2743C17 12.9612 16.8434 13.7723 16.3926 14.6151C15.9839 15.3794 15.3794 15.9839 14.6151 16.3926C13.7723 16.8434 12.9612 17 11.2743 17H5.72569C4.03882 17 3.22766 16.8434 2.38486 16.3926C1.62057 15.9839 1.01613 15.3794 0.607378 14.6151C0.156642 13.7723 0 12.9612 0 11.2743V5.72569C0 4.03882 0.156642 3.22766 0.607378 2.38486C1.01613 1.62057 1.62057 1.01613 2.38486 0.607378C3.22766 0.156642 4.03882 0 5.72569 0H11.2743ZM11.2743 1.54545H5.72569C4.27213 1.54545 3.702 1.65555 3.11369 1.97018C2.61873 2.23489 2.23489 2.61873 1.97018 3.11369C1.65555 3.702 1.54545 4.27213 1.54545 5.72569V11.2743C1.54545 12.7279 1.65555 13.298 1.97018 13.8863C2.23489 14.3813 2.61873 14.7651 3.11369 15.0298C3.702 15.3444 4.27213 15.4545 5.72569 15.4545H11.2743C12.7279 15.4545 13.298 15.3444 13.8863 15.0298C14.3813 14.7651 14.7651 14.3813 15.0298 13.8863C15.3444 13.298 15.4545 12.7279 15.4545 11.2743V5.72569C15.4545 4.27213 15.3444 3.702 15.0298 3.11369C14.7651 2.61873 14.3813 2.23489 13.8863 1.97018C13.298 1.65555 12.7279 1.54545 11.2743 1.54545ZM7.72727 11.2045C8.15404 11.2045 8.5 11.5505 8.5 11.9773C8.5 12.404 8.15404 12.75 7.72727 12.75H4.63636C4.2096 12.75 3.86364 12.404 3.86364 11.9773C3.86364 11.5505 4.2096 11.2045 4.63636 11.2045H7.72727ZM12.3636 7.72727C12.7904 7.72727 13.1364 8.07323 13.1364 8.5C13.1364 8.92677 12.7904 9.27273 12.3636 9.27273H4.63636C4.2096 9.27273 3.86364 8.92677 3.86364 8.5C3.86364 8.07323 4.2096 7.72727 4.63636 7.72727H12.3636ZM12.3636 4.25C12.7904 4.25 13.1364 4.59596 13.1364 5.02273C13.1364 5.44949 12.7904 5.79545 12.3636 5.79545H4.63636C4.2096 5.79545 3.86364 5.44949 3.86364 5.02273C3.86364 4.59596 4.2096 4.25 4.63636 4.25H12.3636Z"/>
</svg>
