<svg width="17" height="17" viewBox="0 0 17 17" fill="none" xmlns="http://www.w3.org/2000/svg">
<path d="M2.83333 0H14.1667C15.7315 0 17 1.26853 17 2.83333V14.1667C17 15.7315 15.7315 17 14.1667 17H2.83333C1.26853 17 0 15.7315 0 14.1667V2.83333C0 1.26853 1.26853 0 2.83333 0ZM4.72222 9.44444H12.2778C12.7994 9.44444 13.2222 9.0216 13.2222 8.5C13.2222 7.9784 12.7994 7.55556 12.2778 7.55556H4.72222C4.20062 7.55556 3.77778 7.9784 3.77778 8.5C3.77778 9.0216 4.20062 9.44444 4.72222 9.44444ZM4.72222 5.66667H12.2778C12.7994 5.66667 13.2222 5.24382 13.2222 4.72222C13.2222 4.20062 12.7994 3.77778 12.2778 3.77778H4.72222C4.20062 3.77778 3.77778 4.20062 3.77778 4.72222C3.77778 5.24382 4.20062 5.66667 4.72222 5.66667ZM4.72222 13.2222H9.44444C9.96605 13.2222 10.3889 12.7994 10.3889 12.2778C10.3889 11.7562 9.96605 11.3333 9.44444 11.3333H4.72222C4.20062 11.3333 3.77778 11.7562 3.77778 12.2778C3.77778 12.7994 4.20062 13.2222 4.72222 13.2222Z" fill="white"/>
</svg>
