<svg width="16" height="16" viewBox="0 0 16 16" fill="none" xmlns="http://www.w3.org/2000/svg">
<path d="M13.4361 0C14.3276 0 14.6509 0.0931812 14.9768 0.268156C15.3028 0.44313 15.5586 0.699899 15.7329 1.02707C15.9072 1.35425 16 1.67877 16 2.5737V9.47225C16 10.3672 15.9072 10.6917 15.7329 11.0189C15.5586 11.3461 15.3028 11.6028 14.9768 11.7778C14.6509 11.9528 14.3276 12.046 13.4361 12.046H8.998L5.28041 15.7794C4.98756 16.0735 4.51269 16.0735 4.21975 15.7796C4.07905 15.6384 4 15.4468 4 15.2471V12.046H2.56389C1.67237 12.046 1.34908 11.9528 1.02315 11.7778C0.697228 11.6028 0.44144 11.3461 0.267133 11.0189C0.0928257 10.6917 0 10.3672 0 9.47225V2.5737C0 1.67877 0.0928257 1.35425 0.267133 1.02707C0.44144 0.699899 0.697228 0.44313 1.02315 0.268156C1.34908 0.0931812 1.67237 0 2.56389 0H13.4361Z" fill="white"/>
</svg>
