<svg width="12" height="12" viewBox="0 0 12 12" xmlns="http://www.w3.org/2000/svg">
<path d="M10.0771 0C10.7457 0 10.9882 0.0698859 11.2326 0.201117C11.4771 0.332348 11.6689 0.524924 11.7997 0.770305C11.9304 1.01569 12 1.25908 12 1.93028V7.10419C12 7.77539 11.9304 8.01878 11.7997 8.26416C11.6689 8.50955 11.4771 8.70212 11.2326 8.83335C10.9882 8.96458 10.7457 9.03447 10.0771 9.03447H6.7485L3.96031 11.8346C3.74067 12.0551 3.38452 12.0552 3.16481 11.8347C3.05929 11.7288 3 11.5851 3 11.4353V9.03447H1.92291C1.25427 9.03447 1.01181 8.96458 0.767366 8.83335C0.522921 8.70212 0.33108 8.50955 0.20035 8.26416C0.0696193 8.01878 0 7.77539 0 7.10419V1.93028C0 1.25908 0.0696193 1.01569 0.20035 0.770305C0.33108 0.524924 0.522921 0.332348 0.767366 0.201117C1.01181 0.0698859 1.25427 0 1.92291 0H10.0771Z"/>
</svg>
