<svg width="17" height="17" viewBox="0 0 17 17" fill="none" xmlns="http://www.w3.org/2000/svg">
<path d="M9.64475 12.1126C9.87553 11.91 10.1717 11.7983 10.4784 11.7983H13.9255C14.8324 11.7983 15.3723 11.2564 15.3723 10.3462V3.0857C15.3723 2.17547 14.8324 1.63361 13.9255 1.63361H3.07447C2.16755 1.63361 1.62766 2.17547 1.62766 3.0857V10.3462C1.62766 11.2564 2.16755 11.7983 3.07447 11.7983H5.3342C5.96655 11.9813 5.96655 11.9813 6.14894 12.616V15.1831L9.64475 12.1126ZM5.1859 16.7286C4.75909 16.4073 4.52128 15.8404 4.52128 15.3377V13.4319H3.07447C1.26862 13.4319 0 12.1586 0 10.3462V3.0857C0 1.27325 1.26862 0 3.07447 0H13.9255C15.7314 0 17 1.27325 17 3.0857V10.3462C17 12.1586 15.7314 13.4319 13.9255 13.4319H10.6143L7.2462 16.3897C6.58352 17.0421 5.80922 17.1978 5.1859 16.7286Z"/>
</svg>
