<svg width="17" height="17" viewBox="0 0 17 17" fill="none" xmlns="http://www.w3.org/2000/svg">
<path d="M9.37283 0.344473L16.2785 6.829C16.7392 7.2616 17 7.86216 17 8.49026V15.0905C17 16.1451 16.1351 17 15.0682 17H10.4318C10.0051 17 9.65909 16.658 9.65909 16.2362V12.0352C9.65909 11.4025 9.14015 10.8895 8.5 10.8895C7.85985 10.8895 7.34091 11.4025 7.34091 12.0352V16.2362C7.34091 16.658 6.99495 17 6.56818 17H1.93182C0.864904 17 0 16.1451 0 15.0905V8.49026C0 7.86216 0.260842 7.2616 0.721535 6.829L7.62717 0.344473C8.11629 -0.114824 8.88371 -0.114824 9.37283 0.344473ZM8.5 1.63189L1.78597 7.9365C1.6324 8.0807 1.54545 8.28089 1.54545 8.49026V15.0905C1.54545 15.3014 1.71844 15.4724 1.93182 15.4724H5.79545V12.0352C5.79545 10.5588 7.00632 9.36193 8.5 9.36193C9.99368 9.36193 11.2045 10.5588 11.2045 12.0352V15.4724H15.0682C15.2816 15.4724 15.4545 15.3014 15.4545 15.0905V8.49026C15.4545 8.28089 15.3676 8.0807 15.214 7.9365L8.5 1.63189Z"/>
</svg>
