<svg width="16" height="14" viewBox="0 0 16 14" xmlns="http://www.w3.org/2000/svg">
<path d="M1.80858 8.43875L1.77252 8.43869L1.61212 8.42929C1.15592 8.3811 0.734931 8.16676 0.435429 7.82882C-0.214603 7.09536 -0.126778 5.99112 0.631594 5.36244L6.41706 0.566339C7.32795 -0.18878 8.67208 -0.18878 9.58297 0.566339L15.3684 5.36244C15.7693 5.69475 16 6.17987 16 6.69049C16 7.65652 15.1903 8.43964 14.1915 8.43964V12.0753C14.1915 13.1383 13.3005 14 12.2013 14H9.72477C9.26071 14 8.88451 13.6362 8.88451 13.1873V10.5782C8.88451 10.1058 8.48851 9.7228 8.00002 9.7228C7.51153 9.7228 7.11553 10.1058 7.11553 10.5782V13.1873C7.11553 13.6362 6.73933 14 6.27526 14H3.79869C2.69958 14 1.80858 13.1383 1.80858 12.0753V8.43875Z"/>
</svg>
