<svg width="12" height="14" viewBox="0 0 12 14" xmlns="http://www.w3.org/2000/svg">
<path d="M11.965 9.68878C11.9881 9.8275 12 9.96841 12 10.1111C12 12.2589 9.31371 14 6 14C2.68629 14 0 12.2589 0 10.1111C0 9.96841 0.0118591 9.8275 0.0349731 9.68878C1.40593 11.3638 3.56776 12.4444 6 12.4444C8.42815 12.4444 10.5868 11.3675 11.9575 9.69742L11.965 9.68878ZM11.965 6.57767C11.9881 6.71639 12 6.8573 12 7C12 9.14777 9.31371 10.8889 6 10.8889C2.68629 10.8889 0 9.14777 0 7C0 6.8573 0.0118591 6.71639 0.0349731 6.57767C1.40593 8.25274 3.56776 9.33333 6 9.33333C8.42815 9.33333 10.5868 8.25637 11.9575 6.58631L11.965 6.57767ZM6 0C9.31371 0 12 1.74111 12 3.88889C12 6.03666 9.31371 7.77778 6 7.77778C2.68629 7.77778 0 6.03666 0 3.88889C0 1.74111 2.68629 0 6 0Z"/>
</svg>
