<svg width="17" height="20" viewBox="0 0 17 20" fill="none" xmlns="http://www.w3.org/2000/svg">
<path d="M9.52454 0.101702C9.86896 0.179524 10.1801 0.305887 10.4798 0.489621C10.7823 0.675096 11.0144 0.869941 11.4933 1.33939L15.6338 5.39876C16.1127 5.86821 16.3114 6.09579 16.5006 6.39236C16.688 6.68615 16.8169 6.99122 16.8963 7.32888C16.9764 7.66974 17 7.96844 17 8.63235V14.3594C17 16.0092 16.8424 16.8095 16.3887 17.6413C15.9761 18.3976 15.3655 18.9961 14.5941 19.4006C13.7457 19.8455 12.9294 20 11.2466 20H5.75343C4.0706 20 3.2543 19.8455 2.40592 19.4006C1.63446 18.9961 1.02393 18.3976 0.61135 17.6413C0.157635 16.8095 0 16.0092 0 14.3594V5.05496C0 3.98425 0.196941 3.11843 0.61135 2.35875C1.02393 1.60241 1.63446 1.00386 2.40592 0.599363C3.1808 0.19308 4.06393 0 5.15606 0H8.19501C8.87219 0 9.17686 0.0231414 9.52454 0.101702ZM8.35222 1.66712L5.15606 1.66667C4.33014 1.66667 3.72114 1.79981 3.20764 2.06905C2.73244 2.31821 2.36458 2.67886 2.11043 3.14475C1.83581 3.64818 1.7 4.24524 1.7 5.05496V14.3594C1.7 15.7576 1.80644 16.298 2.11043 16.8553C2.36458 17.3211 2.73244 17.6818 3.20764 17.9309C3.77606 18.229 4.32724 18.3333 5.75343 18.3333H11.2466C12.6728 18.3333 13.2239 18.229 13.7924 17.9309C14.2676 17.6818 14.6354 17.3211 14.8896 16.8553C15.1936 16.298 15.3 15.7576 15.3 14.3594V8.63235C15.3 8.51793 15.2994 8.41925 15.2979 8.33297L10.625 8.33333C9.4514 8.33333 8.5 7.40059 8.5 6.25L8.50126 1.66871C8.45521 1.66797 8.40569 1.66745 8.35222 1.66712ZM10.2912 2.51791L10.2 2.42917V6.25C10.2 6.45455 10.3503 6.62467 10.5486 6.65995L10.625 6.66667L14.5242 6.66838C14.4951 6.63958 14.4644 6.60926 14.4317 6.57727L10.2912 2.51791Z"/>
</svg>
