<svg width="17" height="20" viewBox="0 0 17 20" xmlns="http://www.w3.org/2000/svg">
<path d="M0 3.20044V16.7996C0 18.5671 1.35295 20 3.02191 20H13.9781C15.647 20.0025 17 18.5696 17 16.8021C17 16.8012 17 16.8004 16.9976 16.7996L16.9906 7.28367C16.9901 6.71838 16.7779 6.17637 16.4005 5.77664L11.5361 0.624924C11.1583 0.224792 10.6459 0 10.1116 0H3.02191C1.35295 0 0 1.43288 0 3.20044ZM9.96102 2.14625L14.2174 6.65187C14.3354 6.77682 14.3355 6.97946 14.2175 7.10448C14.1608 7.16453 14.0839 7.19827 14.0037 7.19827H9.94885C9.6707 7.19827 9.4452 6.95946 9.4452 6.66486V2.37261C9.4452 2.19585 9.5805 2.05256 9.74739 2.05256C9.82751 2.05256 9.90436 2.08626 9.96102 2.14625Z"/>
</svg>