<svg width="10" height="12" viewBox="0 0 10 12" xmlns="http://www.w3.org/2000/svg">
<path d="M0 1.92026V10.0797C0 11.1403 0.795856 12 1.77759 12H8.22241C9.20414 12.0015 10 11.1418 10 10.0812C10 10.0807 10 10.0802 9.9986 10.0797L9.99445 4.3702C9.9942 4.03103 9.86936 3.70582 9.64735 3.46599L6.78597 0.374954C6.56373 0.134875 6.2623 0 5.948 0H1.77759C0.795856 0 0 0.859731 0 1.92026ZM5.85943 1.28775L8.36316 3.99112C8.4326 4.06609 8.43262 4.18768 8.36322 4.26269C8.32988 4.29872 8.28466 4.31896 8.2375 4.31896H5.85227C5.68864 4.31896 5.556 4.17567 5.556 3.99892V1.42356C5.556 1.31751 5.63559 1.23154 5.73376 1.23154C5.78089 1.23154 5.82609 1.25176 5.85943 1.28775Z"/>
</svg>
