<svg width="17" height="19" viewBox="0 0 17 19" fill="none" xmlns="http://www.w3.org/2000/svg">
<path d="M11.4865 5.09756C11.4865 3.30511 10.0474 1.85366 8.27027 1.85366C6.49311 1.85366 5.05405 3.30511 5.05405 5.09756C5.05405 6.89002 6.49311 8.34146 8.27027 8.34146C10.0474 8.34146 11.4865 6.89002 11.4865 5.09756ZM13.3243 5.09756C13.3243 7.91376 11.0624 10.1951 8.27027 10.1951C5.4781 10.1951 3.21622 7.91376 3.21622 5.09756C3.21622 2.28136 5.4781 0 8.27027 0C11.0624 0 13.3243 2.28136 13.3243 5.09756ZM1.83784 16.3519C1.83784 17.2263 1.76421 17.1463 2.25676 17.1463H14.7432C15.2358 17.1463 15.1622 17.2263 15.1622 16.3519C15.1622 14.2312 12.126 12.9756 8.5 12.9756C4.87397 12.9756 1.83784 14.2312 1.83784 16.3519ZM0 16.3519C0 12.7556 3.95036 11.122 8.5 11.122C13.0496 11.122 17 12.7556 17 16.3519C17 18.2208 16.2822 19 14.7432 19H2.25676C0.717776 19 0 18.2208 0 16.3519Z"/>
</svg>
