<svg width="16" height="12" viewBox="0 0 16 12" fill="none" xmlns="http://www.w3.org/2000/svg">
<path d="M8.77268 3.5375V0.378846C8.77268 0.169615 8.939 0 9.14415 0C9.2323 0 9.31757 0.0319671 9.38474 0.0901884L15.8691 5.71134C16.0254 5.84685 16.0444 6.08594 15.9116 6.24536C15.8986 6.26094 15.8844 6.27542 15.8691 6.28866L9.38474 11.9098C9.22842 12.0453 8.99399 12.0259 8.86112 11.8665C8.80403 11.798 8.77268 11.711 8.77268 11.6211V8.46249C4.80082 8.46249 1.98278 9.33002 0.318542 11.0651C0.246821 11.1399 0.129207 11.1412 0.0558669 11.068C0.00948191 11.0218 -0.00986513 10.9542 0.00483109 10.8897C1.12237 5.98823 4.04498 3.5375 8.77268 3.5375ZM8.77268 3.5375V0.378846C8.77268 0.169615 8.939 0 9.14415 0C9.2323 0 9.31757 0.0319671 9.38474 0.0901884L15.8691 5.71134C16.0254 5.84685 16.0444 6.08594 15.9116 6.24536C15.8986 6.26094 15.8844 6.27542 15.8691 6.28866L9.38474 11.9098C9.22842 12.0453 8.99399 12.0259 8.86112 11.8665C8.80403 11.798 8.77268 11.711 8.77268 11.6211V8.46249C4.80082 8.46249 1.98278 9.33002 0.318542 11.0651C0.246821 11.1399 0.129207 11.1412 0.0558669 11.068C0.00948191 11.0218 -0.00986513 10.9542 0.00483109 10.8897C1.12237 5.98823 4.04498 3.5375 8.77268 3.5375Z" fill="#051C2C"/>
</svg>
