<svg width="18" height="14" viewBox="0 0 18 14" fill="none" xmlns="http://www.w3.org/2000/svg">
<path fill-rule="evenodd" clip-rule="evenodd" d="M14.2683 0C15.3155 0 15.8493 0.100484 16.405 0.390125C16.9179 0.657511 17.3254 1.05466 17.5997 1.55462C17.874 2.05455 17.983 2.53637 17.9981 3.41032L18 3.63721V10.3628L17.9981 10.5897C17.983 11.4636 17.874 11.9455 17.5997 12.4454C17.3254 12.9453 16.9179 13.3425 16.405 13.6099L16.2769 13.6734C15.7642 13.9144 15.2349 14 14.2683 14H3.73169C2.76507 14 2.23582 13.9144 1.72309 13.6734L1.595 13.6099C1.08205 13.3425 0.674589 12.9453 0.400258 12.4454C0.125953 11.9455 0.017009 11.4636 0.00187159 10.5897L0 10.3628V3.63721C0 2.61655 0.103094 2.09621 0.400258 1.55462C0.674589 1.05466 1.08205 0.657511 1.595 0.390125C2.10791 0.122764 2.60225 0.0165784 3.4989 0.0018242L3.73169 0H14.2683ZM16.3627 5.13924L16.3636 10.3628C16.3636 11.1427 16.3098 11.4143 16.1568 11.6932C16.035 11.9152 15.8611 12.0847 15.6333 12.2034C15.3691 12.3411 15.1114 12.3964 14.4439 12.4041L14.2683 12.4051H3.73169L3.55606 12.4041C2.88863 12.3964 2.63088 12.3411 2.36671 12.2034C2.13892 12.0847 1.96505 11.9152 1.84323 11.6932C1.69018 11.4143 1.63636 11.1427 1.63636 10.3628L1.63545 5.13924H16.3627ZM3.73169 1.59494H14.2683L14.4439 1.59589C15.1114 1.60358 15.3691 1.65886 15.6333 1.79656C15.8611 1.9153 16.035 2.08477 16.1568 2.30679C16.2981 2.56427 16.3548 2.8155 16.3627 3.46603L16.3618 3.5443H1.63636L1.63734 3.46603C1.64523 2.8155 1.70195 2.56427 1.84323 2.30679C1.96505 2.08477 2.13892 1.9153 2.36671 1.79656C2.65289 1.64739 2.93155 1.59494 3.73169 1.59494Z" fill="white"/>
<path d="M3.54545 9.48103C3.54545 9.23291 3.54545 9.10885 3.59499 9.01408C3.63857 8.93071 3.70811 8.86294 3.79364 8.82046C3.89087 8.77217 4.01815 8.77217 4.27272 8.77217H4.63636C4.89093 8.77217 5.01821 8.77217 5.11545 8.82046C5.20097 8.86294 5.27051 8.93071 5.31409 9.01408C5.36363 9.10885 5.36363 9.23291 5.36363 9.48103V9.83546C5.36363 10.0836 5.36363 10.2077 5.31409 10.3024C5.27051 10.3858 5.20097 10.4536 5.11545 10.496C5.01821 10.5443 4.89093 10.5443 4.63636 10.5443H4.27272C4.01815 10.5443 3.89087 10.5443 3.79364 10.496C3.70811 10.4536 3.63857 10.3858 3.59499 10.3024C3.54545 10.2077 3.54545 10.0836 3.54545 9.83546V9.48103Z" fill="white"/>
</svg>
