<svg width="18" height="17" viewBox="0 0 18 17" fill="none" xmlns="http://www.w3.org/2000/svg">
<path d="M13.8293 0.583328C14.7892 0.583328 15.2786 0.677831 15.7879 0.950232C16.2581 1.2017 16.6316 1.57521 16.8831 2.04542C17.1345 2.51558 17.2344 2.96873 17.2483 3.79065L17.25 4.00404V7.99999C17.25 8.41421 16.9142 8.74999 16.5 8.74999C16.1176 8.74999 15.8021 8.46388 15.7558 8.09407L15.75 7.99999L15.7492 5.41666H2.24917L2.25 10.3293C2.25 11.0627 2.29933 11.3182 2.43962 11.5805C2.55129 11.7893 2.71068 11.9487 2.91949 12.0604C3.16164 12.1899 3.39791 12.2419 4.00972 12.2491L4.17071 12.25H14.6892L13.4697 11.0303C13.2012 10.7618 13.1788 10.3404 13.4025 10.0465L13.4697 9.96966C13.7382 9.70118 14.1596 9.67881 14.4535 9.90254L14.5303 9.96966L17.0303 12.4697C17.2988 12.7382 17.3212 13.1596 17.0975 13.4535L17.0303 13.5303L14.5303 16.0303C14.2374 16.3232 13.7626 16.3232 13.4697 16.0303C13.2012 15.7618 13.1788 15.3404 13.4025 15.0465L13.4697 14.9697L14.6892 13.75H4.17071C3.28465 13.75 2.7995 13.6695 2.3295 13.4428L2.21209 13.3831C1.74188 13.1316 1.36837 12.7581 1.1169 12.2879C0.865457 11.8177 0.765592 11.3646 0.751716 10.5427L0.75 10.3293V4.00404C0.75 3.04413 0.844503 2.55476 1.1169 2.04542C1.36837 1.57521 1.74188 1.2017 2.21209 0.950232C2.68225 0.698785 3.1354 0.59892 3.95733 0.585044L4.17071 0.583328H13.8293ZM13.8293 2.08333H4.17071C3.43725 2.08333 3.18182 2.13266 2.91949 2.27295C2.71068 2.38462 2.55129 2.54401 2.43962 2.75281C2.31012 2.99496 2.25813 3.23124 2.25089 3.84305L2.25 3.91666H15.7483L15.7491 3.84305C15.7419 3.23124 15.6899 2.99496 15.5604 2.75281C15.4487 2.54401 15.2893 2.38462 15.0805 2.27295C14.8384 2.14345 14.6021 2.09146 13.9903 2.08422L13.8293 2.08333Z" fill="white"/>
</svg>
