<svg width="18" height="19" viewBox="0 0 18 19" fill="none" xmlns="http://www.w3.org/2000/svg">
<path d="M17.7071 0.927842C17.3166 0.537318 16.6834 0.537318 16.2929 0.927842L9 8.22135L1.70711 0.927842C1.31658 0.537318 0.683416 0.537318 0.292892 0.927842C-0.0715981 1.29233 -0.0958958 1.86819 0.219995 2.26086L0.292892 2.34206L7.5864 9.63495L0.292892 16.9278L0.219995 17.009C-0.0958958 17.4017 -0.0715981 17.9776 0.292892 18.3421C0.683416 18.7326 1.31658 18.7326 1.70711 18.3421L9 11.0485L16.2929 18.3421C16.6834 18.7326 17.3166 18.7326 17.7071 18.3421C18.0716 17.9776 18.0959 17.4017 17.78 17.009L17.7071 16.9278L10.4136 9.63495L17.7071 2.34206L17.78 2.26086C18.0959 1.86819 18.0716 1.29233 17.7071 0.927842Z" fill="#E74B4B"/>
</svg>