<svg width="23" height="24" viewBox="0 0 23 24" fill="none" xmlns="http://www.w3.org/2000/svg">
<path d="M11.5 0.825073C17.8513 0.825073 23 5.9738 23 12.3251C23 18.6763 17.8513 23.8251 11.5 23.8251C5.14873 23.8251 0 18.6763 0 12.3251C0 5.9738 5.14873 0.825073 11.5 0.825073ZM3.89488 5.73574C2.36396 7.50113 1.4375 9.80491 1.4375 12.3251C1.4375 17.8824 5.94263 22.3876 11.5 22.3876C14.0202 22.3876 16.3239 21.4611 18.0893 19.9302L3.89488 5.73574ZM11.5 2.26257C8.97983 2.26257 6.67605 3.18904 4.91067 4.71996L19.1051 18.9144C20.636 17.149 21.5625 14.8452 21.5625 12.3251C21.5625 6.76771 17.0574 2.26257 11.5 2.26257Z" fill="#E74B4B"/>
</svg>
