<svg width="20" height="23" viewBox="0 0 20 23" fill="none" xmlns="http://www.w3.org/2000/svg">
<path d="M13.6364 6.06944C13.6364 3.77483 11.8737 1.91667 9.69697 1.91667C7.52026 1.91667 5.75758 3.77483 5.75758 6.06944C5.75758 8.36406 7.52026 10.2222 9.69697 10.2222C11.8737 10.2222 13.6364 8.36406 13.6364 6.06944ZM15.4545 6.06944C15.4545 9.42261 12.8778 12.1389 9.69697 12.1389C6.51611 12.1389 3.93939 9.42261 3.93939 6.06944C3.93939 2.71628 6.51611 0 9.69697 0C12.8778 0 15.4545 2.71628 15.4545 6.06944ZM1.81818 19.8512C1.81818 21.0855 1.81629 21.0833 2.51337 21.0833H17.4866C18.1837 21.0833 18.1818 21.0855 18.1818 19.8512C18.1818 16.9723 14.4473 15.3333 10 15.3333C5.5527 15.3333 1.81818 16.9723 1.81818 19.8512ZM10 13.4167C15.3566 13.4167 20 15.4545 20 19.8512C20 22.1079 19.2257 23 17.4866 23H2.51337C0.774323 23 0 22.1079 0 19.8512C0 15.4545 4.64338 13.4167 10 13.4167Z" fill="#051C2C"/>
</svg>
