<svg width="18" height="15" viewBox="0 0 18 15" fill="none" xmlns="http://www.w3.org/2000/svg">
<path fill-rule="evenodd" clip-rule="evenodd" d="M2.9 4.50654C2.98045 4.50654 3.05844 4.49599 3.13265 4.47618C3.50208 5.65293 4.60135 6.50654 5.9 6.50654C7.19865 6.50654 8.29793 5.65293 8.66735 4.47618C8.74156 4.49598 8.81955 4.50654 8.9 4.50654H16.9C17.3971 4.50654 17.8 4.1036 17.8 3.60654C17.8 3.10949 17.3971 2.70654 16.9 2.70654H8.9C8.81955 2.70654 8.74156 2.7171 8.66735 2.73691C8.29793 1.56016 7.19865 0.706543 5.9 0.706543C4.60135 0.706543 3.50208 1.56016 3.13265 2.7369C3.05844 2.7171 2.98045 2.70654 2.9 2.70654H0.9C0.402944 2.70654 0 3.10949 0 3.60654C0 4.1036 0.402944 4.50654 0.9 4.50654H2.9ZM5.9 2.50654C5.29249 2.50654 4.8 2.99903 4.8 3.60654C4.8 4.21406 5.29249 4.70654 5.9 4.70654C6.50751 4.70654 7 4.21406 7 3.60654C7 2.99903 6.50751 2.50654 5.9 2.50654Z" fill="#051C2C"/>
<path fill-rule="evenodd" clip-rule="evenodd" d="M0 11.6065C0 11.1095 0.402944 10.7065 0.9 10.7065H8.9C8.98045 10.7065 9.05844 10.7171 9.13265 10.7369C9.50208 9.56015 10.6013 8.70654 11.9 8.70654C13.1986 8.70654 14.2979 9.56015 14.6673 10.7369C14.7416 10.7171 14.8195 10.7065 14.9 10.7065H16.9C17.3971 10.7065 17.8 11.1095 17.8 11.6065C17.8 12.1036 17.3971 12.5065 16.9 12.5065H14.9C14.8195 12.5065 14.7416 12.496 14.6673 12.4762C14.2979 13.6529 13.1987 14.5065 11.9 14.5065C10.6013 14.5065 9.50208 13.6529 9.13265 12.4762C9.05844 12.496 8.98045 12.5065 8.9 12.5065H0.9C0.402944 12.5065 0 12.1036 0 11.6065ZM10.8 11.6065C10.8 10.999 11.2925 10.5065 11.9 10.5065C12.5075 10.5065 13 10.999 13 11.6065C13 12.2141 12.5075 12.7065 11.9 12.7065C11.2925 12.7065 10.8 12.2141 10.8 11.6065Z" fill="#051C2C"/>
</svg>
