<svg width="26" height="29" viewBox="0 0 26 29" fill="none" xmlns="http://www.w3.org/2000/svg">
<path d="M14.7813 2.62038H6.01919C4.19836 2.62038 2.73063 4.00697 2.73063 5.70679V23.2932C2.73063 24.993 4.19836 26.3796 6.01919 26.3796H19.9808C21.8016 26.3796 23.2694 24.993 23.2694 23.2932V13.3041H19.8222C17.0382 13.3041 14.7813 11.0788 14.7813 8.33376V2.62038ZM17.4723 8.89433C17.4723 9.86439 18.2698 10.6508 19.2536 10.6508H22.7655L17.4723 4.71601V8.89433ZM0 5.70679C0 2.55026 2.69949 0 6.01919 0H14.9951C16.1772 0 17.3008 0.493621 18.0661 1.35168L25.0463 9.17796C25.6617 9.8679 26 10.7433 26 11.6488V23.2932C26 26.4497 23.3005 29 19.9808 29H6.01919C2.69949 29 0 26.4497 0 23.2932V5.70679Z" fill="#FF9F19"/>
</svg>
