<svg width="10" height="13" viewBox="0 0 10 13" fill="none" xmlns="http://www.w3.org/2000/svg">
<path d="M9.375 11.6316C9.72018 11.6316 10 11.9379 10 12.3158C10 12.6937 9.72018 13 9.375 13H0.625C0.279822 13 0 12.6937 0 12.3158C0 11.9379 0.279822 11.6316 0.625 11.6316H9.375ZM5 0C5.34518 0 5.625 0.306331 5.625 0.684211V7.92658L8.30806 4.98987C8.53336 4.74323 8.88788 4.72425 9.13306 4.93296L9.19194 4.98987C9.43602 5.25708 9.43602 5.69029 9.19194 5.95749L5.44194 10.0628C5.42415 10.0822 5.40529 10.1005 5.38547 10.1176C5.38115 10.1213 5.37663 10.1251 5.37207 10.1288C5.35696 10.141 5.34142 10.1525 5.32541 10.1632C5.31788 10.1683 5.31025 10.1732 5.30254 10.1779C5.29018 10.1853 5.27743 10.1924 5.26444 10.1991C5.25381 10.2045 5.243 10.2097 5.23209 10.2144C5.21974 10.2198 5.20737 10.2248 5.19484 10.2293C5.18553 10.2326 5.17591 10.2357 5.16625 10.2386C5.15277 10.2427 5.13922 10.2463 5.1255 10.2494C5.11461 10.2517 5.10372 10.2538 5.09279 10.2556C5.08007 10.2577 5.06691 10.2594 5.05363 10.2607C5.04245 10.2617 5.03162 10.2624 5.02078 10.2628C5.014 10.263 5.00701 10.2632 5 10.2632L4.97984 10.2628C4.96858 10.2624 4.95733 10.2617 4.94611 10.2606L5 10.2632C4.96836 10.2632 4.93727 10.2606 4.9069 10.2556C4.89628 10.2538 4.88539 10.2517 4.87455 10.2493C4.86078 10.2463 4.84723 10.2427 4.83385 10.2387C4.82409 10.2357 4.81447 10.2326 4.80491 10.2291C4.79263 10.2248 4.78026 10.2198 4.76809 10.2145C4.757 10.2097 4.74619 10.2045 4.73549 10.1991C4.72257 10.1924 4.70982 10.1853 4.69733 10.1777C4.68975 10.1732 4.68212 10.1683 4.67456 10.1633C4.65858 10.1525 4.64304 10.141 4.62803 10.1288C4.60355 10.109 4.58018 10.087 4.55806 10.0628L4.61453 10.1176C4.59471 10.1005 4.57585 10.0822 4.55806 10.0628L0.808058 5.95749C0.563981 5.69029 0.563981 5.25708 0.808058 4.98987C1.05214 4.72267 1.44786 4.72267 1.69194 4.98987L4.375 7.92658V0.684211C4.375 0.306331 4.65482 0 5 0Z" fill="#051C2C"/>
</svg>
