<svg width="31" height="19" viewBox="0 0 31 19" fill="none" xmlns="http://www.w3.org/2000/svg">
<path d="M11.3086 16.9689H19.6911V2.03101H11.3086V16.9689Z" fill="#7673C0"/>
<path d="M11.8409 9.5C11.8409 6.46951 13.2718 3.77053 15.5 2.03097C13.8705 0.758946 11.8143 0 9.57954 0C4.28896 0 0 4.25323 0 9.5C0 14.7466 4.28896 19 9.57954 19C11.8143 19 13.8705 18.241 15.5 16.9689C13.2718 15.2293 11.8409 12.5303 11.8409 9.5Z" fill="#EB001B"/>
<path d="M30.7009 15.3865V15.0178H30.6037L30.4919 15.2715L30.3804 15.0178H30.2834V15.3865H30.3517V15.1085L30.4565 15.3483H30.5276L30.6322 15.1078V15.3865H30.7009ZM30.0859 15.3865V15.0808H30.2102V15.0185H29.8934V15.0808H30.018V15.3865H30.0859Z" fill="#00A1DF"/>
<path d="M31 9.5C31 14.7466 26.711 19 21.4204 19C19.1856 19 17.1295 18.241 15.5 16.9689C17.7283 15.2293 19.1589 12.5303 19.1589 9.5C19.1589 6.46951 17.7283 3.77053 15.5 2.03097C17.1295 0.758946 19.1856 0 21.4204 0C26.711 0 31 4.25323 31 9.5Z" fill="#00A1DF"/>
</svg>
