<svg width="35" height="23" viewBox="0 0 35 23" fill="none" xmlns="http://www.w3.org/2000/svg">
<path d="M22.1177 4.00708H12.8849V18.9902H22.1177V4.00708Z" fill="#FF5F00"/>
<path d="M13.8359 11.5C13.8347 10.0573 14.1639 8.63319 14.7985 7.33551C15.4331 6.03783 16.3564 4.90057 17.4986 4.0098C16.0839 2.90512 14.3849 2.21818 12.5959 2.0275C10.8068 1.83682 8.99983 2.15009 7.38147 2.93151C5.76312 3.71292 4.39868 4.93096 3.44409 6.4464C2.4895 7.96185 1.98328 9.71357 1.98328 11.5013C1.98328 13.2891 2.4895 15.0408 3.44409 16.5563C4.39868 18.0717 5.76312 19.2898 7.38147 20.0712C8.99983 20.8526 10.8068 21.1659 12.5959 20.9752C14.3849 20.7845 16.0839 20.0976 17.4986 18.9929C16.356 18.1018 15.4325 16.9642 14.7979 15.666C14.1633 14.3678 13.8343 12.9432 13.8359 11.5Z" fill="#EB001B"/>
<path d="M32.0991 17.405V17.0979H32.2323V17.0344H31.9153V17.0979H32.0405V17.405H32.0991ZM32.7144 17.405V17.0344H32.6185L32.5067 17.2991L32.3948 17.0344H32.2989V17.405H32.3681V17.1244L32.472 17.3653H32.5439L32.6478 17.1244V17.405H32.7144Z" fill="#F79E1B"/>
<path d="M33.0154 11.5001C33.0154 13.288 32.5091 15.0398 31.5543 16.5553C30.5995 18.0708 29.2349 19.2889 27.6163 20.0702C25.9978 20.8515 24.1906 21.1645 22.4015 20.9736C20.6123 20.7826 18.9133 20.0954 17.4987 18.9903C18.6404 18.0988 19.5635 16.9612 20.1983 15.6634C20.833 14.3657 21.1628 12.9417 21.1628 11.4988C21.1628 10.0559 20.833 8.63187 20.1983 7.33412C19.5635 6.03638 18.6404 4.8988 17.4987 4.00724C18.9133 2.90221 20.6123 2.21494 22.4015 2.02399C24.1906 1.83303 25.9978 2.1461 27.6163 2.92741C29.2349 3.70871 30.5995 4.92673 31.5543 6.44222C32.5091 7.95772 33.0154 9.70955 33.0154 11.4975V11.5001Z" fill="#F79E1B"/>
</svg>
