<svg width="25" height="29" viewBox="0 0 25 29" fill="none" xmlns="http://www.w3.org/2000/svg">
<path fill-rule="evenodd" clip-rule="evenodd" d="M22.5551 7.3807C22.9094 5.11412 22.5551 3.60315 21.3156 2.20835C19.958 0.639401 17.4787 0 14.2913 0H5.14176C4.49254 0 3.96113 0.464996 3.8431 1.10417L0.00645226 24.9316C-0.0526632 25.3966 0.301629 25.8034 0.773925 25.8034H6.44042L6.02724 28.2444C5.96812 28.6512 6.2633 29 6.7356 29L11.5168 28.9998C12.1072 28.9998 12.5795 28.593 12.6384 28.07L13.6419 21.9097C13.701 21.3867 14.2322 20.9799 14.7634 20.9799H15.4717C20.0761 20.9799 23.7358 19.1201 24.7982 13.7736C25.2114 11.5652 25.0342 9.64748 23.8538 8.36889C23.4995 7.96209 23.0863 7.67151 22.5551 7.38092V7.3807Z" fill="#009CDE"/>
<path fill-rule="evenodd" clip-rule="evenodd" d="M22.5551 7.38069C22.9094 5.11412 22.5551 3.60314 21.3156 2.20835C19.958 0.639401 17.4787 0 14.2913 0H5.14176C4.49254 0 3.96113 0.464996 3.8431 1.10417L0.00645226 24.9316C-0.0526632 25.3966 0.301629 25.8034 0.773925 25.8034H6.44042L7.798 17.2024C7.916 16.5632 8.44721 16.0982 9.09666 16.0982H11.812C17.1247 16.0982 21.2565 14.006 22.4371 7.84569C22.4962 7.72948 22.4962 7.55511 22.5551 7.38069Z" fill="#012169"/>
<path fill-rule="evenodd" clip-rule="evenodd" d="M9.39181 7.4389C9.45092 7.0321 9.98214 6.50913 10.5133 6.50913L17.715 6.5089C18.5414 6.5089 19.3677 6.56711 20.0761 6.68329C20.7253 6.79949 21.9059 7.09008 22.4962 7.4389C22.8505 5.17232 22.4962 3.66135 21.2567 2.26656C19.958 0.639401 17.4787 0 14.2913 0H5.14176C4.49254 0 3.96113 0.464996 3.8431 1.10417L0.00645226 24.9316C-0.0526632 25.3966 0.301629 25.8034 0.773925 25.8034H6.44042L9.39181 7.4389Z" fill="#003087"/>
</svg>
