<svg width="42" height="13" viewBox="0 0 42 13" fill="none" xmlns="http://www.w3.org/2000/svg">
<path fill-rule="evenodd" clip-rule="evenodd" d="M42 12.7892V12.7067L39.2389 0.22974C38.3991 0.171332 37.2953 0.213164 36.4325 0.221344C35.4664 0.230513 35.1163 0.666722 34.8081 1.355C34.4989 2.04557 29.86 12.5773 29.8298 12.7958L33.3836 12.7957L34.102 10.9205L38.4129 10.9218C38.5325 11.2253 38.5986 11.6966 38.6714 12.0227C38.8712 12.9175 38.7416 12.8057 39.2139 12.7982C40.1355 12.7836 41.0838 12.8246 42 12.7892ZM0 0.421415V0.606676C0.964586 0.757476 2.95141 1.36713 3.6036 1.82572C4.07535 2.15744 4.14643 2.77452 4.32545 3.44105L6.34414 10.9099C6.5012 11.5062 6.65373 12.2176 6.85494 12.781L10.441 12.7961C10.7367 12.2499 12.9096 7.18136 13.2023 6.50396L15.2601 1.79257C15.4044 1.45405 15.8783 0.518104 15.9291 0.229595L12.39 0.222262L8.87356 8.69396C8.70223 8.43326 7.62579 2.50021 7.44553 1.61501C7.13743 0.10216 6.11407 0.22061 4.515 0.22169C3.07695 0.22264 1.52899 0.168892 0.105001 0.228035L0 0.421415ZM20.9475 9.5825C20.8253 9.78938 20.3259 12.0312 20.3259 12.3427C22.8332 13.3538 27.3681 13.4004 29.2181 11.0281C29.7613 10.3316 30.1779 9.16979 29.9334 8.02284C29.4908 5.94682 27.0684 5.43414 25.7858 4.51202C24.424 3.53297 25.7743 2.20923 28.5175 2.75697C29.139 2.88108 29.5154 3.07331 30.0427 3.22099L30.6313 0.535569C29.3839 0.227643 28.7768 -0.0052686 27.2998 9.06394e-05C25.3299 0.00725747 23.0257 0.745949 22.1246 2.48291C21.0366 4.57993 22.1053 6.28213 24.1247 7.30817C24.8518 7.67761 26.1905 8.19618 26.392 8.85719C26.7469 10.0214 25.1217 10.4023 24.0975 10.3591C22.1611 10.2773 22.0529 9.89159 20.9475 9.5825ZM14.5845 12.7902L17.9812 12.7942L20.7945 0.227611L17.408 0.223494L14.5845 12.7902ZM35.0878 8.32607L37.8532 8.33717L36.859 3.70656C36.7266 3.88372 35.1641 8.06252 35.0878 8.32607Z" fill="#1A1F71"/>
</svg>
