<svg width="29" height="29" viewBox="0 0 29 29" fill="none" xmlns="http://www.w3.org/2000/svg">
<path fill-rule="evenodd" clip-rule="evenodd" d="M14.4458 0C16.7138 0 18.8618 0.529698 20.775 1.47136C21.0751 1.61457 21.3753 1.77234 21.6755 1.9448L20.3462 3.14008L18.3481 1.06642L14.9758 4.08564L12.9725 1.89118L6.69107 7.57521L10.7188 12.0296L9.13608 13.4268L13.1026 17.8889L11.5294 19.2822L17.1974 25.615L20.5621 22.5055L23.4704 25.8373C22.8927 26.2888 22.262 26.7137 21.5679 27.107C19.4639 28.3108 17.0327 29 14.4458 29C6.48928 29 0 22.4864 0 14.5C0 6.51361 6.48928 0 14.4458 0Z" fill="#245096"/>
<path fill-rule="evenodd" clip-rule="evenodd" d="M11.8131 13.5836L15.2482 10.479L18.3412 13.927L14.9061 17.0316L11.8131 13.5836Z" fill="#245096"/>
<path fill-rule="evenodd" clip-rule="evenodd" d="M14.2562 19.5418L17.6913 16.4373L20.7843 19.8853L17.3492 22.9898L14.2562 19.5418Z" fill="#245096"/>
<path fill-rule="evenodd" clip-rule="evenodd" d="M9.35449 7.69565L12.7896 4.59106L15.8826 8.03906L12.4475 11.1436L9.35449 7.69565Z" fill="#245096"/>
<path fill-rule="evenodd" clip-rule="evenodd" d="M15.6586 6.02498L18.2349 3.69653L20.5547 6.28257L17.9783 8.61101L15.6586 6.02498Z" fill="#245096"/>
<path fill-rule="evenodd" clip-rule="evenodd" d="M20.2365 16.6893L22.8128 14.3608L25.1325 16.9468L22.5563 19.2752L20.2365 16.6893Z" fill="#245096"/>
<path fill-rule="evenodd" clip-rule="evenodd" d="M22.5023 21.9124L25.0785 19.584L27.3983 22.17L24.822 24.4984L22.5023 21.9124Z" fill="#245096"/>
<path fill-rule="evenodd" clip-rule="evenodd" d="M23.5407 9.94071L25.2582 8.38843L26.8048 10.1124L25.0872 11.6647L23.5407 9.94071Z" fill="#245096"/>
<path fill-rule="evenodd" clip-rule="evenodd" d="M21.3456 4.81888L23.0631 3.2666L24.6096 4.9906L22.8921 6.54288L21.3456 4.81888Z" fill="#245096"/>
<path fill-rule="evenodd" clip-rule="evenodd" d="M25.736 15.0633L27.4535 13.511L29 15.235L27.2824 16.7873L25.736 15.0633Z" fill="#245096"/>
<path fill-rule="evenodd" clip-rule="evenodd" d="M18.0335 11.2247L20.6098 8.89624L22.9295 11.4822L20.3532 13.8106L18.0335 11.2247Z" fill="#245096"/>
</svg>
