<svg width="24" height="32" viewBox="0 0 24 32" fill="none" xmlns="http://www.w3.org/2000/svg">
<path d="M0.000386686 15.8734C0.000386686 14.0765 0.148922 12.9362 3.81856 10.1584C6.85661 7.85871 16.5946 0 16.5946 0V13.1187H24V32H2.31343C1.04128 32 0 30.9441 0 29.654L0.000386686 15.8734Z" fill="#F3CE12"/>
<path d="M16.5946 13.1189V20.7204L2.98657 30.1212L20.1916 24.4445V13.1189H16.5946Z" fill="#CDB013"/>
<path d="M10.3761 12.7257C11.1719 11.7642 12.3341 11.4247 12.9722 11.9678C13.6104 12.5108 13.4828 13.7307 12.687 14.6922C11.8917 15.6537 10.7291 15.9927 10.091 15.4497C9.45279 14.9066 9.58067 13.6871 10.3761 12.7257Z" fill="black"/>
</svg>
