<svg width="18" height="18" viewBox="0 0 18 18" fill="none" xmlns="http://www.w3.org/2000/svg">
<path d="M9 0C4.032 0 0 4.032 0 9C0 13.968 4.032 18 9 18C13.968 18 18 13.968 18 9C18 4.032 13.968 0 9 0ZM8.1 12.6V9C8.1 8.50294 8.50294 8.1 9 8.1C9.49706 8.1 9.9 8.50294 9.9 9V12.6C9.9 13.0971 9.49706 13.5 9 13.5C8.50294 13.5 8.1 13.0971 8.1 12.6ZM7.87514 5.62498V5.17518C7.87514 4.67812 8.27808 4.27518 8.77514 4.27518H9.22504C9.7221 4.27518 10.125 4.67812 10.125 5.17518V5.62498C10.125 6.12204 9.7221 6.52498 9.22504 6.52498H8.77514C8.27808 6.52498 7.87514 6.12204 7.87514 5.62498Z" fill="#051C2C"/>
</svg>
