<svg width="14" height="14" viewBox="0 0 14 14" fill="none" xmlns="http://www.w3.org/2000/svg">
<path opacity="0.2" d="M9.06642 4.48777L9.18232 4.76128L9.47795 4.7903L12.8236 5.11871C13.2404 5.15964 13.4254 5.36911 13.479 5.54445C13.533 5.72128 13.4965 6.00525 13.1707 6.28231L10.5515 8.50955L10.3106 8.71441L10.3924 9.01988L11.3648 12.6482C11.4851 13.0973 11.3376 13.3386 11.215 13.4271C11.0988 13.5111 10.8428 13.5738 10.477 13.3093L7.29441 11.0093L7.00154 10.7976L6.70866 11.0093L3.52611 13.3093C3.16294 13.5718 2.90648 13.5103 2.78895 13.4257C2.66584 13.337 2.5182 13.0964 2.6383 12.6482L3.61065 9.01988L3.69251 8.71441L3.45159 8.50955L0.832355 6.28231C0.503208 6.00243 0.467366 5.71821 0.520751 5.54337C0.573656 5.37011 0.758098 5.16007 1.17934 5.11871L4.52433 4.7903L4.81991 4.76128L4.93582 4.48784L6.40954 1.01144C6.57969 0.610055 6.83337 0.499966 7.00153 0.5C7.16976 0.500034 7.42341 0.610308 7.5934 1.01148L9.06642 4.48777Z" stroke="white"/>
</svg>
