<svg width="298" height="80" viewBox="0 0 298 80" fill="none" xmlns="http://www.w3.org/2000/svg">
  <g clip-path="url(#clip0)">
    <path d="M143.436 1.63129L142.108 0.308899L-158.804 299.945L-157.476 301.267L143.436 1.63129Z" fill="#FF9F19"/>
    <path d="M401.73 -231.768L400.402 -233.09L152.732 13.529L154.06 14.8514L401.73 -231.768Z" fill="#FF9F19"/>
    <path d="M154.066 14.8574L155.394 13.535L142.11 0.308058L140.782 1.63045L154.066 14.8574Z" fill="#FF9F19"/>
    <path d="M143.434 14.8596L142.106 13.5372L-153.228 307.618L-151.9 308.941L143.434 14.8596Z" fill="#FF9F19"/>
    <path d="M407.961 -224.741L406.633 -226.064L152.731 26.7612L154.059 28.0835L407.961 -224.741Z" fill="#FF9F19"/>
    <path d="M154.067 28.0863L155.395 26.7639L142.111 13.537L140.783 14.8593L154.067 28.0863Z" fill="#FF9F19"/>
    <path d="M143.434 28.0815L142.106 26.7591L-129.962 297.673L-128.634 298.996L143.434 28.0815Z" fill="#FF9F19"/>
    <path d="M420.309 -223.811L418.981 -225.134L152.734 39.9845L154.062 41.3069L420.309 -223.811Z" fill="#FF9F19"/>
    <path d="M154.067 41.3116L155.396 39.9892L142.112 26.7623L140.784 28.0847L154.067 41.3116Z" fill="#FF9F19"/>
    <path d="M143.389 41.3579L142.061 40.0355L-130.008 310.95L-128.68 312.272L143.389 41.3579Z" fill="#FF9F19"/>
    <path d="M436.201 -226.41L434.873 -227.732L152.683 53.2605L154.011 54.5829L436.201 -226.41Z" fill="#FF9F19"/>
    <path d="M154.019 54.5868L155.347 53.2644L142.063 40.0375L140.735 41.3599L154.019 54.5868Z" fill="#FF9F19"/>
    <path d="M143.387 54.5866L142.059 53.2642L-130.01 324.178L-128.682 325.501L143.387 54.5866Z" fill="#FF9F19"/>
    <path d="M446.609 -223.546L445.281 -224.868L152.686 66.4855L154.014 67.8079L446.609 -223.546Z" fill="#FF9F19"/>
    <path d="M154.018 67.8127L155.346 66.4903L142.062 53.2634L140.734 54.5858L154.018 67.8127Z" fill="#FF9F19"/>
    <path d="M143.389 67.8107L142.061 66.4883L-130.008 337.403L-128.68 338.725L143.389 67.8107Z" fill="#FF9F19"/>
    <path d="M456.909 -220.578L455.581 -221.9L152.684 79.7116L154.012 81.0339L456.909 -220.578Z" fill="#FF9F19"/>
    <path d="M154.021 81.0399L155.349 79.7175L142.065 66.4906L140.737 67.813L154.021 81.0399Z" fill="#FF9F19"/>
  </g>
  <defs>
    <clipPath id="clip0">
      <rect width="298" height="80" fill="white"/>
    </clipPath>
  </defs>
</svg>
