<svg width="18" height="12" viewBox="0 0 18 12" fill="none" xmlns="http://www.w3.org/2000/svg">
<path d="M18 4.5H15.75V2.25H14.625V4.5H12.375V5.625H14.625V7.875H15.75V5.625H18V4.5Z" fill="white"/>
<path d="M5.625 6.75H8.80762C8.343 8.0595 7.092 9 5.625 9C3.76425 9 2.25 7.48575 2.25 5.625C2.25 3.76425 3.76425 2.25 5.625 2.25C6.43162 2.25 7.20787 2.53912 7.81087 3.0645L9.28913 1.368C8.27662 0.486 6.97612 0 5.625 0C2.52338 0 0 2.52338 0 5.625C0 8.72663 2.52338 11.25 5.625 11.25C8.72663 11.25 11.25 8.72663 11.25 5.625V4.5H5.625V6.75Z" fill="white"/>
</svg>
