<svg width="16" height="16" viewBox="0 0 16 16" fill="none" xmlns="http://www.w3.org/2000/svg">
<path d="M11.6689 0H4.33105C1.94287 0 0 1.94287 0 4.33105V11.669C0 14.0571 1.94287 16 4.33105 16H11.669C14.0571 16 16 14.0571 16 11.669V4.33105C16 1.94287 14.0571 0 11.6689 0V0ZM7.99998 12.3749C5.58764 12.3749 3.62512 10.4123 3.62512 7.99998C3.62512 5.58764 5.58764 3.62512 7.99998 3.62512C10.4123 3.62512 12.3749 5.58764 12.3749 7.99998C12.3749 10.4123 10.4123 12.3749 7.99998 12.3749ZM12.4795 4.65685C11.7666 4.65685 11.1867 4.07702 11.1867 3.36413C11.1867 2.65124 11.7666 2.07129 12.4795 2.07129C13.1924 2.07129 13.7723 2.65124 13.7723 3.36413C13.7723 4.07702 13.1924 4.65685 12.4795 4.65685Z" fill="url(#paint0_linear)"/>
<path d="M8 5C6.34587 5 5 6.34576 5 8C5 9.65413 6.34587 11 8 11C9.65424 11 11 9.65413 11 8C11 6.34576 9.65424 5 8 5Z" fill="url(#paint1_linear)"/>
<path d="M12.4795 3.0094C12.2839 3.0094 12.1248 3.16858 12.1248 3.36413C12.1248 3.55969 12.2839 3.71887 12.4795 3.71887C12.6752 3.71887 12.8343 3.55981 12.8343 3.36413C12.8343 3.16846 12.6752 3.0094 12.4795 3.0094Z" fill="url(#paint2_linear)"/>
<defs>
<linearGradient id="paint0_linear" x1="-1.78814e-07" y1="16" x2="16.945" y2="14.9272" gradientUnits="userSpaceOnUse">
<stop stop-color="#F4BF6F"/>
<stop offset="0.357861" stop-color="#E24443"/>
<stop offset="0.730205" stop-color="#A2249F"/>
<stop offset="0.964978" stop-color="#B91995"/>
</linearGradient>
<linearGradient id="paint1_linear" x1="5" y1="11" x2="11.3544" y2="10.5977" gradientUnits="userSpaceOnUse">
<stop stop-color="#F4BF6F"/>
<stop offset="0.357861" stop-color="#E24443"/>
<stop offset="0.730205" stop-color="#A2249F"/>
<stop offset="0.964978" stop-color="#B91995"/>
</linearGradient>
<linearGradient id="paint2_linear" x1="12.1248" y1="3.71887" x2="12.8763" y2="3.67129" gradientUnits="userSpaceOnUse">
<stop stop-color="#F4BF6F"/>
<stop offset="0.357861" stop-color="#E24443"/>
<stop offset="0.730205" stop-color="#A2249F"/>
<stop offset="0.964978" stop-color="#B91995"/>
</linearGradient>
</defs>
</svg>
