<svg width="12" height="19" viewBox="0 0 12 19" fill="none" xmlns="http://www.w3.org/2000/svg">
<path d="M5.99998 10C8.76139 10 11 7.76143 11 4.99998C11 2.23854 8.76143 0 5.99998 0C3.23854 0 1 2.23857 1 5.00002C1.00339 7.76002 3.23998 9.99661 5.99998 10ZM5.99998 2.30769C7.4869 2.30769 8.6923 3.51307 8.6923 5.00002C8.6923 6.48697 7.48693 7.69234 5.99998 7.69234C4.51303 7.69234 3.30766 6.48697 3.30766 5.00002C3.30766 3.51307 4.51307 2.30769 5.99998 2.30769Z" fill="#FF9800"/>
<path d="M11.0935 12.992C11.6586 12.64 11.9991 12.0433 11.9999 11.4034C12.0077 10.8724 11.6908 10.3848 11.1863 10.1515C10.6679 9.90665 10.0473 9.96179 9.5863 10.2937C7.44948 11.7668 4.55128 11.7668 2.41446 10.2937C1.9527 9.96353 1.33325 9.90846 0.814484 10.1515C0.310157 10.3847 -0.00689837 10.8718 0.000113976 11.4026C0.00131395 12.0424 0.341694 12.6389 0.906507 12.9912C1.63114 13.4469 2.42027 13.8034 3.25047 14.0502C3.39128 14.0916 3.53659 14.1299 3.68647 14.1652L1.26894 16.4005C0.634751 16.9824 0.619413 17.9401 1.23474 18.5398C1.85006 19.1395 2.86295 19.154 3.49718 18.5722C3.51038 18.5601 3.52335 18.5477 3.5361 18.5352L6.00006 16.1236L8.46882 18.5397C9.08362 19.1399 10.0965 19.1551 10.7312 18.5738C11.3659 17.9924 11.382 17.0346 10.7672 16.4345C10.7544 16.4219 10.7413 16.4096 10.728 16.3975L8.3144 14.1644C8.46425 14.1281 8.61012 14.0895 8.75198 14.0487C9.58127 13.8028 10.3697 13.447 11.0935 12.992Z" fill="#FF9800"/>
</svg>
