<svg width="17" height="17" viewBox="0 0 17 17" fill="none" xmlns="http://www.w3.org/2000/svg">
<path d="M16.5105 10.3046C17.7416 4.77247 12.8952 -0.253156 7.20375 0.711594C4.114 -1.20586 0 0.960928 0 4.63718C0 5.49214 0.235875 6.29255 0.646 6.98247C-0.497958 12.5273 4.38812 17.4807 10.0746 16.4501C10.7376 16.8007 11.4941 17.0004 12.2981 17.0004C15.8036 17.0004 18.0483 13.3646 16.5105 10.3046ZM8.568 14.0814C6.90908 14.0814 5.28842 13.6812 4.32933 12.3113C2.89992 10.2897 4.78479 9.27818 5.70987 10.0488C6.48196 10.6998 6.23971 12.2744 8.50708 12.2744C9.50654 12.2744 10.7405 11.848 10.7405 10.8571C10.7405 8.8631 6.31692 9.8066 4.55813 7.63272C3.91212 6.83655 3.79029 5.43193 4.58362 4.41335C5.96629 2.63401 10.0236 2.52564 11.7682 3.86934C13.379 5.11601 12.9441 6.77068 11.6443 6.77068C10.081 6.77068 10.9027 4.72501 8.37887 4.72501C6.54925 4.72501 5.82958 6.02622 7.11804 6.65947C8.83292 7.51089 13.316 7.24526 13.316 10.6283C13.3103 13.0061 11.016 14.0814 8.568 14.0814Z" fill="#03A9F4"/>
</svg>
