<svg width="19" height="11" viewBox="0 0 19 11" fill="none" xmlns="http://www.w3.org/2000/svg">
<path d="M18.8307 9.74903C18.7796 9.66353 18.4637 8.9771 16.9436 7.56625C15.3522 6.08889 15.566 6.32878 17.4827 3.77428C18.6501 2.21854 19.1169 1.26847 18.9708 0.862311C18.8318 0.475157 17.9732 0.57729 17.9732 0.57729L15.1183 0.593916C15.1183 0.593916 14.9069 0.565414 14.7489 0.659234C14.5957 0.751865 14.4971 0.965631 14.4971 0.965631C14.4971 0.965631 14.0447 2.16985 13.4414 3.19355C12.1695 5.35377 11.66 5.46778 11.4522 5.33358C10.9688 5.02125 11.09 4.07711 11.09 3.40731C11.09 1.31359 11.407 0.440717 10.4712 0.215075C10.1601 0.140257 9.93206 0.0903787 9.13756 0.0820656C8.11861 0.0713773 7.25524 0.0856284 6.76714 0.324334C6.44174 0.48347 6.19116 0.83856 6.34436 0.858749C6.53319 0.883688 6.96072 0.973945 7.18755 1.28272C7.48088 1.68056 7.47019 2.576 7.47019 2.576C7.47019 2.576 7.63883 5.04025 7.0771 5.34664C6.69113 5.55685 6.16266 5.12813 5.02851 3.16742C4.44778 2.16391 4.00837 1.05351 4.00837 1.05351C4.00837 1.05351 3.92405 0.846873 3.77323 0.736427C3.59034 0.602229 3.33382 0.559476 3.33382 0.559476L0.618998 0.576102C0.618998 0.576102 0.211656 0.587979 0.0620197 0.764929C-0.0709901 0.922878 0.0513314 1.24828 0.0513314 1.24828C0.0513314 1.24828 2.17711 6.22071 4.58317 8.72771C6.79089 11.0257 9.2967 10.8749 9.2967 10.8749H10.432C10.432 10.8749 10.7752 10.8369 10.9498 10.648C11.1113 10.4747 11.1054 10.1493 11.1054 10.1493C11.1054 10.1493 11.0828 8.62558 11.7906 8.40112C12.4878 8.18023 13.3832 9.87373 14.3321 10.5257C15.0494 11.0186 15.5945 10.9105 15.5945 10.9105L18.1324 10.8749C18.1324 10.8749 19.4601 10.7929 18.8307 9.74903Z"/>
</svg>
