<svg width="20" height="16" viewBox="0 0 20 16" fill="none" xmlns="http://www.w3.org/2000/svg">
<path d="M19.5575 2.94081L19.5825 3.10414C19.3408 2.24664 18.6883 1.58497 17.8592 1.34414L17.8417 1.33997C16.2825 0.916637 10.0083 0.916637 10.0083 0.916637C10.0083 0.916637 3.75 0.908304 2.175 1.33997C1.33 1.58497 0.676668 2.24664 0.439168 3.08664L0.435001 3.10414C-0.147499 6.14664 -0.151666 9.80248 0.460834 13.06L0.435001 12.895C0.676668 13.7525 1.32917 14.4141 2.15833 14.655L2.17583 14.6591C3.73333 15.0833 10.0092 15.0833 10.0092 15.0833C10.0092 15.0833 16.2667 15.0833 17.8425 14.6591C18.6883 14.4141 19.3417 13.7525 19.5792 12.9125L19.5833 12.895C19.8483 11.48 20 9.85164 20 8.18831C20 8.12747 20 8.06581 19.9992 8.00414C20 7.94747 20 7.87997 20 7.81247C20 6.14831 19.8483 4.51997 19.5575 2.94081ZM8.00667 11.0425V4.96497L13.2283 8.00831L8.00667 11.0425Z" fill="#DA271E"/>
</svg>
